<?xml version="1.0" standalone="no"?>
<!DOCTYPE svg PUBLIC "-//W3C//DTD SVG 1.1//EN" "http://www.w3.org/Graphics/SVG/1.1/DTD/svg11.dtd" >
<svg xmlns="http://www.w3.org/2000/svg">
<metadata></metadata>
<defs>
<font id="noto_serifbold_italic" horiz-adv-x="1145" >
<font-face units-per-em="2048" ascent="1638" descent="-410" />
<missing-glyph horiz-adv-x="532" />
<glyph horiz-adv-x="0" />
<glyph horiz-adv-x="0" />
<glyph unicode="&#xd;" horiz-adv-x="1044" />
<glyph unicode=" "  horiz-adv-x="532" />
<glyph unicode="&#x09;" horiz-adv-x="532" />
<glyph unicode="&#xa0;" horiz-adv-x="532" />
<glyph unicode="!" horiz-adv-x="809" d="M158 131q0 42 12.5 76t35.5 58t56 37t74 13q35 0 65.5 -9t53 -27t35 -46t12.5 -65q0 -51 -15.5 -86.5t-41 -57t-57.5 -31t-64 -9.5q-75 0 -120.5 36t-45.5 111zM313 467l117 995h356l-354 -995h-119z" />
<glyph unicode="&#x22;" horiz-adv-x="1040" d="M311 899l49 563h320l-234 -563h-135zM778 899l29 563h319l-213 -563h-135z" />
<glyph unicode="#" d="M57 410l15 141h231l111 371h-238l17 143h264l112 397h148l-115 -397h213l117 397h145l-116 -397h196l-16 -143h-223l-109 -371h227l-14 -141h-256l-119 -410h-145l119 410h-213l-121 -410h-146l121 410h-205zM449 551h215l110 371h-215z" />
<glyph unicode="$" d="M51 352q0 97 59.5 141t168.5 44q0 -72 12 -127t34.5 -95t53.5 -66t70 -40l92 436q-73 39 -129 78.5t-94.5 86t-58 102t-19.5 126.5q0 85 33.5 152.5t94.5 114.5t146.5 73t190.5 29l32 149h115l-35 -153q162 -13 243 -68t81 -139q0 -42 -12 -75t-39 -56t-71.5 -35 t-109.5 -12q0 37 -7 75.5t-21 74t-36.5 64t-53.5 44.5l-86 -404l47 -24q141 -74 209.5 -162t68.5 -205q0 -95 -34.5 -169t-99 -126t-156 -80t-205.5 -30l-50 -238h-114l51 240q-187 15 -279 87t-92 187zM504 1106q0 -59 24.5 -98t73.5 -74l76 356q-35 -5 -66.5 -17.5 t-55.5 -35t-38 -55t-14 -76.5zM559 193q48 1 86.5 15.5t65.5 40.5t42 62t15 78q0 28 -5 52.5t-19 47.5t-38.5 47t-62.5 50z" />
<glyph unicode="%" horiz-adv-x="1835" d="M147 872q0 64 12 134t37.5 138t63.5 129.5t90.5 108t119 74t148.5 27.5q78 0 134 -23t92 -64t53.5 -97t17.5 -121q0 -59 -12.5 -127t-37.5 -135t-64 -129t-92.5 -109.5t-121.5 -76t-151 -28.5q-66 0 -119.5 19.5t-91 57.5t-58 93.5t-20.5 128.5zM367 0l1015 1462h154 l-1010 -1462h-159zM369 856q0 -81 20 -129.5t70 -48.5q40 0 73.5 27.5t60.5 71.5t47.5 100.5t34 114.5t20.5 112.5t7 95.5q0 82 -19.5 128t-70.5 48q-40 0 -73.5 -27.5t-60.5 -71.5t-47.5 -100t-34 -114t-20.5 -112.5t-7 -94.5zM997 279q0 64 12 134t37.5 138t63.5 129 t90.5 107.5t119 74t148.5 27.5q78 0 134 -23t92 -64t53.5 -97t17.5 -121q0 -59 -12.5 -126.5t-37.5 -135t-64 -129t-92.5 -109t-121.5 -76t-151 -28.5q-66 0 -119.5 19.5t-91 57t-58 93.5t-20.5 129zM1219 262q0 -81 20 -129.5t70 -48.5q40 0 73.5 27.5t60.5 71.5 t47.5 100.5t34 114.5t20.5 112.5t7 95.5q0 82 -19.5 128t-70.5 48q-40 0 -73.5 -27.5t-60.5 -71.5t-47.5 -100t-34 -114t-20.5 -112.5t-7 -94.5z" />
<glyph unicode="&#x26;" horiz-adv-x="1640" d="M70 365q0 102 36 174.5t97 125.5t142 91t171 71q-46 79 -71 155t-25 148q0 88 31 154t89.5 110t144 66.5t194.5 22.5q94 0 162.5 -20.5t113.5 -56.5t66.5 -84.5t21.5 -104.5q0 -71 -21 -124.5t-68.5 -98.5t-123.5 -85.5t-186 -85.5l252 -331q35 74 60 151t40 152l16 77 h410l-23 -108h-18q-35 0 -68 -4t-64.5 -18.5t-59.5 -41.5t-52 -73q-31 -60 -65.5 -127.5t-79.5 -137.5l129 -169q31 -42 77.5 -63t112.5 -21h15l-23 -109h-393l-102 141q-85 -72 -197.5 -116.5t-261.5 -44.5q-124 0 -214 29t-149 81t-87.5 122t-28.5 153zM371 381 q0 -57 16 -105.5t47 -83.5t76 -55t102 -20q96 0 174.5 36.5t141.5 98.5l-334 463q-61 -34 -103.5 -70t-69 -76.5t-38.5 -87t-12 -100.5zM696 1147q0 -59 20 -112t60 -113q63 27 107.5 54t72.5 58t41 68.5t13 85.5q0 81 -36.5 126.5t-109.5 45.5q-36 0 -67 -14t-53.5 -41 t-35 -67t-12.5 -91z" />
<glyph unicode="'" horiz-adv-x="594" d="M311 899l29 563h319l-213 -563h-135z" />
<glyph unicode="(" horiz-adv-x="819" d="M86 381q0 127 23.5 256t70.5 251t118 233t166.5 202t215 157.5t264.5 100.5l-20 -129q-77 -42 -137.5 -97t-107.5 -117t-82 -129t-60.5 -133t-43 -128t-30.5 -115q-38 -154 -50 -264.5t-12 -183.5q0 -63 9 -126t30 -120.5t55.5 -107t84.5 -85.5l-27 -131 q-124 43 -212.5 111t-145 154.5t-83 188t-26.5 212.5z" />
<glyph unicode=")" horiz-adv-x="819" d="M-90 -285l20 131q77 42 137.5 97t107.5 117t82 129t60.5 133t43 128t30.5 115q38 155 50 264.5t12 184.5q0 63 -9 126t-30 120t-55.5 106.5t-84.5 85.5l27 131q124 -43 212.5 -111t145 -154.5t83 -188t26.5 -211.5q0 -127 -23.5 -256t-70.5 -251t-118 -233t-166.5 -202 t-215 -158t-264.5 -103z" />
<glyph unicode="*" horiz-adv-x="1266" d="M301 1161l330 17l-295 145l133 184l252 -280l4 340l225 -47l-141 -308l344 146l47 -219l-328 -13l295 -147l-133 -178l-256 272l2 -340l-223 47l135 314l-342 -150z" />
<glyph unicode="+" d="M166 659v146h364v366h148v-366h366v-146h-366v-366h-148v366h-364z" />
<glyph unicode="," horiz-adv-x="623" d="M-33 -309l23 108q211 50 211 170q0 21 -8.5 36.5t-21.5 28t-27.5 24.5t-27.5 27.5t-21.5 36t-8.5 50.5q0 33 12.5 59t33.5 44.5t49 28t59 9.5q37 0 69.5 -12.5t56.5 -36t38 -58t14 -79.5q0 -78 -28.5 -148t-85 -127t-141 -98.5t-196.5 -62.5z" />
<glyph unicode="-" horiz-adv-x="635" d="M20 451l48 215h532l-47 -215h-533z" />
<glyph unicode="." horiz-adv-x="623" d="M70 131q0 42 12.5 76t36 58t56 37t73.5 13q35 0 65.5 -9t53 -27t35 -46t12.5 -65q0 -51 -15.5 -86.5t-41 -57t-57.5 -31t-64 -9.5q-74 0 -120 36t-46 111z" />
<glyph unicode="/" horiz-adv-x="590" d="M-211 -248l873 1804h159l-872 -1804h-160z" />
<glyph unicode="0" d="M76 473q0 106 17.5 222t53 228.5t89.5 214.5t127.5 179t166.5 122.5t207 45.5q88 0 164 -27.5t132.5 -85t89 -146t32.5 -210.5q0 -103 -17 -220.5t-51.5 -233t-87.5 -221.5t-125.5 -187t-165.5 -129t-206 -48q-95 0 -173.5 32t-134.5 95t-87 155.5t-31 213.5zM356 385 q0 -137 43 -202.5t115 -65.5q60 0 111 47.5t92 126.5t72.5 180t52.5 208.5t32 212.5t11 191q0 135 -41.5 200t-116.5 65q-58 0 -108 -47t-91 -125t-73 -179t-54 -208t-33.5 -212t-11.5 -192z" />
<glyph unicode="1" d="M82 0l22 109h121q73 0 118 29.5t60 103.5l158 745q13 62 25 113t22 89q11 44 21 79h-8q-48 -50 -88.5 -89.5t-75.5 -67t-67.5 -42t-65.5 -14.5q-44 0 -71.5 39.5t-27.5 111.5q35 9 72 21t79 30t90.5 43.5t106.5 63.5l166 106h230l-260 -1222q-3 -13 -8 -36t-5 -36 q0 -22 11.5 -35.5t32.5 -20.5t49 -9t61 -2h100l-22 -109h-846z" />
<glyph unicode="2" d="M-29 0l43 211l478 403q104 88 171 161t106 137.5t54 125t15 125.5q0 42 -9.5 77.5t-28 61t-45.5 40t-61 14.5q-51 0 -90.5 -27t-67.5 -73.5t-44.5 -109.5t-20.5 -136q-51 0 -94 10.5t-74.5 32t-49 55t-17.5 78.5q0 61 31.5 115t92 94.5t150 64t205.5 23.5q105 0 186 -20 t136 -56.5t83.5 -89.5t28.5 -119q0 -68 -28 -133.5t-83.5 -134.5t-138.5 -144.5t-192 -164.5l-492 -396h477q49 0 83.5 14.5t58.5 38t40.5 53.5t30.5 62l15 37h120l-100 -430h-969z" />
<glyph unicode="3" d="M-2 227q0 81 59.5 127.5t165.5 46.5q0 -60 14 -110.5t43 -87t73 -57.5t104 -21q51 0 99 20t85 60.5t59.5 100.5t22.5 140q0 118 -76 182t-213 64h-88l21 127h65q86 0 159 26t126.5 74t83.5 115t30 148q0 38 -8.5 70.5t-25.5 56t-43.5 36.5t-63.5 13q-56 0 -95.5 -25 t-66.5 -67t-44 -97.5t-27 -115.5q-49 0 -91.5 6.5t-73.5 21.5t-49 40t-18 63q0 63 39.5 117.5t107.5 95t159.5 63.5t195.5 23q94 0 171.5 -19.5t133 -57t85.5 -92t30 -124.5q0 -72 -25.5 -141t-77 -126.5t-129 -100t-180.5 -60.5q71 -8 128 -31t96.5 -61t61 -90.5 t21.5 -118.5q0 -91 -26 -162t-71 -124t-105 -90.5t-128 -60.5t-140.5 -33.5t-141.5 -10.5q-120 0 -202.5 22.5t-133.5 58t-73.5 79.5t-22.5 87z" />
<glyph unicode="4" d="M0 381l29 127l784 954h287l-203 -946h213l-29 -135h-213l-26 -127q-3 -12 -5.5 -33t-2.5 -31q0 -26 9.5 -42t27 -24.5t42.5 -11.5t56 -3h37l-23 -109h-719l21 109h59q30 0 61 3.5t58 18t48 44t32 81.5l26 125h-569zM188 516h410l76 358q8 41 19 89.5t23.5 100.5t26.5 104 t29 100q-22 -35 -51 -77t-59.5 -84.5t-59.5 -80.5t-51 -65z" />
<glyph unicode="5" d="M20 219q0 34 11.5 63.5t35 52t59.5 35.5t85 13q1 -44 10.5 -90t34 -84t67.5 -62t111 -24q67 0 121.5 23t93 69t59.5 115.5t21 161.5q0 66 -19 115t-52 82t-78.5 49t-98.5 16q-37 0 -67 -4t-55 -10.5t-47 -14.5t-42 -16l-86 43l209 710h774l-59 -372h-125q2 26 4 55.5 t2 42.5q0 23 -21 37t-79 14h-412l-121 -383q38 11 88 22t125 11q106 0 192 -25t146.5 -73.5t93.5 -120t33 -164.5q0 -112 -43 -208.5t-123.5 -167t-196.5 -110.5t-263 -40q-107 0 -181 19t-120 51.5t-66.5 76t-20.5 92.5z" />
<glyph unicode="6" d="M104 475q0 128 23.5 252t69 236t111.5 207t150.5 165t187 109t220.5 39q84 0 147.5 -17t106.5 -46.5t64.5 -67.5t21.5 -80q0 -82 -67 -128t-189 -46q0 50 -3.5 97.5t-16 84.5t-36.5 59.5t-65 22.5q-132 0 -231 -140.5t-162 -426.5q23 18 53 36t67.5 32.5t82 24t96.5 9.5 q89 0 154.5 -29t108 -78.5t63 -115.5t20.5 -139q0 -108 -33.5 -208t-102 -177t-172 -123.5t-243.5 -46.5q-88 0 -165.5 30.5t-135.5 92.5t-91.5 154.5t-33.5 217.5zM385 410q0 -155 47 -226t127 -71q52 0 95 31t74 85.5t48 128.5t17 160q0 124 -38.5 189t-113.5 65 q-33 0 -65.5 -9.5t-62.5 -24.5t-56 -34t-47 -38q-25 -149 -25 -256z" />
<glyph unicode="7" d="M201 1032l84 430h977l-23 -121l-852 -1341h-174l809 1239h-526q-56 0 -92 -26.5t-50 -77.5l-28 -103h-125z" />
<glyph unicode="8" d="M27 332q0 86 31 148t85 109t127.5 83t159.5 69q-44 33 -80 73.5t-62 86.5t-40.5 97t-14.5 106q0 77 28.5 146t91 120.5t161 82t238.5 30.5q97 0 173 -22.5t128.5 -62.5t80 -95t27.5 -119q0 -78 -25 -137.5t-70.5 -106.5t-109 -84.5t-139.5 -71.5q53 -34 98.5 -72.5 t78.5 -84t52 -98.5t19 -115q0 -112 -41 -194t-115.5 -135t-177 -79t-225.5 -26q-108 0 -196 26t-151 73t-97.5 111.5t-34.5 141.5zM303 324q0 -106 58 -166t161 -60q54 0 102 16t84 48.5t57 80.5t21 113q0 50 -15 92t-44 79.5t-72.5 71t-101.5 65.5q-117 -48 -183.5 -131 t-66.5 -209zM516 1114q0 -160 174 -266q59 31 100 66.5t66 75.5t36 85t11 94q0 42 -9.5 77.5t-29.5 61.5t-50.5 41t-72.5 15q-48 0 -89 -17.5t-71 -50t-47.5 -78.5t-17.5 -104z" />
<glyph unicode="9" d="M57 190q0 69 42.5 105.5t117.5 36.5q1 -39 11 -79t31 -72t53.5 -52t78.5 -20q75 0 135.5 39t111 114t92.5 185.5t81 254.5q-26 -27 -58 -52t-70 -44.5t-83 -31t-98 -11.5q-82 0 -146 25.5t-107.5 70.5t-66 107.5t-22.5 136.5q0 128 46.5 235t125.5 183.5t183.5 119 t221.5 42.5q92 0 166.5 -27t127 -78.5t80.5 -126.5t28 -172q0 -24 -2 -60t-6.5 -78t-12 -88.5t-18.5 -92.5q-22 -99 -55.5 -195t-80 -182.5t-106 -160.5t-133.5 -127.5t-162.5 -84t-193.5 -30.5q-82 0 -141 17t-97 45.5t-56 66.5t-18 81zM455 913q0 -100 41 -151t110 -51 q40 1 74.5 15t64 36.5t53.5 50.5t42 57q6 25 11.5 55t9.5 60t6.5 58t2.5 49q0 67 -11 115.5t-31.5 79t-48 45t-60.5 14.5q-58 0 -106.5 -38t-83.5 -99.5t-54.5 -139t-19.5 -156.5z" />
<glyph unicode=":" horiz-adv-x="733" d="M90 131q0 42 12.5 76t36 58t56 37t73.5 13q35 0 65.5 -9t53 -27t35 -46t12.5 -65q0 -51 -15.5 -86.5t-41 -57t-57.5 -31t-64 -9.5q-74 0 -120 36t-46 111zM270 924q0 41 12.5 75t36 58t56.5 37.5t74 13.5q35 0 65.5 -9t52.5 -27t34.5 -46t12.5 -65q0 -52 -15.5 -87.5 t-41 -57t-57.5 -31t-64 -9.5q-74 0 -120 36t-46 112z" />
<glyph unicode=";" horiz-adv-x="733" d="M-23 -309l23 108q211 50 211 170q0 21 -8.5 36.5t-21.5 28t-27.5 24.5t-27.5 27.5t-21.5 36t-8.5 50.5q0 33 12.5 59t33.5 44.5t49 28t59 9.5q37 0 69.5 -12.5t56.5 -36t38 -58t14 -79.5q0 -78 -28.5 -148t-85 -127t-141 -98.5t-196.5 -62.5zM270 924q0 41 12.5 75t36 58 t56.5 37.5t74 13.5q35 0 65.5 -9t52.5 -27t34.5 -46t12.5 -65q0 -52 -15.5 -87.5t-41 -57t-57.5 -31t-64 -9.5q-74 0 -120 36t-46 112z" />
<glyph unicode="&#x3c;" d="M166 690v84l878 479v-161l-659 -361l659 -356v-162z" />
<glyph unicode="=" d="M166 461v143h887v-143h-887zM166 858v143h887v-143h-887z" />
<glyph unicode="&#x3e;" d="M166 213v162l659 356l-659 361v161l878 -479v-84z" />
<glyph unicode="?" horiz-adv-x="1096" d="M207 1217q0 55 33 103.5t94.5 84.5t149 57t196.5 21q102 0 184 -20t139 -62t88 -106t31 -152q0 -89 -39 -162.5t-107 -134t-161.5 -109.5t-202.5 -88l-73 -182h-131l-5 254q91 33 164.5 72.5t126 90t81 115t28.5 148.5q0 51 -11.5 90t-31 66t-47 41t-58.5 14 q-48 0 -82.5 -25t-57.5 -66.5t-36 -95.5t-20 -112q-252 0 -252 158zM258 131q0 42 12.5 76t36 58t56 37t73.5 13q35 0 65.5 -9t53 -27t35 -46t12.5 -65q0 -51 -15.5 -86.5t-41 -57t-57.5 -31t-64 -9.5q-74 0 -120 36t-46 111z" />
<glyph unicode="@" horiz-adv-x="1886" d="M88 500q0 137 33.5 262t95 231.5t149.5 193t197 148t236.5 94.5t269.5 33q177 0 312 -51t226 -139.5t137 -209t46 -259.5q0 -153 -37 -273t-97 -202.5t-135.5 -126t-152.5 -43.5q-91 0 -154.5 44.5t-97.5 147.5h-12q-21 -40 -48 -75t-61 -61t-77 -41t-97 -15 q-65 0 -123 21t-102 64t-70 109t-26 156q0 55 13 119t41 127.5t72 123t105 105t140.5 73t179.5 27.5q71 0 121.5 -18t82.5 -43l86 43h50l-86 -512q-3 -12 -5.5 -31t-4.5 -39t-3.5 -38.5t-1.5 -30.5q0 -42 9 -69t23 -42.5t32 -21t35 -5.5q40 0 82 34t76 99.5t55.5 162.5 t21.5 223q0 140 -42.5 245.5t-118.5 176t-180.5 106t-227.5 35.5q-97 0 -191.5 -27t-180 -79t-157.5 -127.5t-125 -172t-82.5 -213.5t-29.5 -252q0 -181 54 -309t146.5 -209t216 -118t261.5 -37q83 0 162 15t150 39t132 55t109 63l49 -78q-54 -41 -123 -77t-149 -63 t-171 -43t-188 -16q-117 0 -225 21.5t-202.5 65.5t-172.5 109.5t-133.5 153.5t-86 198t-30.5 243zM752 487q0 -102 36 -156.5t95 -54.5q43 0 74.5 21t53.5 55.5t36 77.5t22 88l82 418q-6 14 -17.5 24.5t-26.5 18t-32 11t-33 3.5q-52 0 -93.5 -26t-73.5 -68.5t-55.5 -97 t-38.5 -110.5t-22 -109.5t-7 -94.5z" />
<glyph unicode="A" horiz-adv-x="1542" d="M-100 0l22 109h43q28 0 49.5 6.5t41.5 24.5t41.5 49t49.5 79l695 1194h280l172 -1206q5 -32 13.5 -59t22.5 -46.5t35.5 -30.5t53.5 -11h37l-22 -109h-676l22 109h47q66 0 105 20.5t39 65.5q0 17 -1 33.5t-3 31.5l-31 221h-498l-100 -184q-20 -37 -29.5 -65t-9.5 -50 q0 -38 28 -55.5t87 -17.5h41l-23 -109h-532zM508 606h414l-37 344q-5 45 -9.5 84.5t-8 76.5t-6 72t-3.5 72q-15 -37 -30 -68.5t-32 -64t-37.5 -69t-47.5 -84.5z" />
<glyph unicode="B" horiz-adv-x="1376" d="M-47 0l22 109h27q32 0 62.5 4t55.5 17t43.5 37t26.5 64l209 986q5 20 9 39.5t4 27.5q0 22 -11 36t-30.5 21.5t-47 10t-59.5 2.5h-26l22 108h635q238 0 358.5 -77.5t120.5 -229.5q0 -84 -25.5 -148t-70.5 -110.5t-106 -76.5t-132 -46l-2 -8q55 -10 101 -34t79 -61.5 t51.5 -88.5t18.5 -115q0 -112 -38 -199t-112 -146.5t-184.5 -90.5t-255.5 -31h-745zM489 125h142q87 0 147.5 23t98.5 68t55.5 111.5t17.5 153.5q0 112 -51 166.5t-158 54.5h-129zM639 829h115q145 0 209.5 75.5t64.5 215.5q0 109 -49 163t-143 54h-91z" />
<glyph unicode="C" horiz-adv-x="1368" d="M129 530q0 123 29 242t84 226t134.5 197t180 156t220.5 103t257 37q102 0 178.5 -17.5t127 -49t75.5 -77t25 -100.5q0 -45 -22 -79t-60.5 -57.5t-91.5 -35.5t-115 -12q0 43 -6 95t-24.5 97t-52.5 75t-91 30q-81 0 -149.5 -37t-125 -100.5t-100 -147.5t-73 -177.5 t-45 -191t-15.5 -188.5q0 -175 89 -270.5t265 -95.5q71 0 128 16t102 42.5t79 59.5t60 68q12 -9 23.5 -28t11.5 -42q0 -51 -31 -102.5t-91.5 -93t-149.5 -67t-205 -25.5q-147 0 -262.5 36.5t-195 107t-121.5 173t-42 233.5z" />
<glyph unicode="D" horiz-adv-x="1573" d="M-49 0l22 109h29q32 0 62.5 4t55.5 17t43.5 37t26.5 64l213 1006q4 11 6.5 25t2.5 22q0 22 -11 36t-30.5 21.5t-47 10t-59.5 2.5h-26l22 108h655q147 0 262.5 -36t195 -106.5t121.5 -174.5t42 -240q0 -122 -25.5 -236.5t-75 -215t-122.5 -184t-169 -143.5t-214.5 -93 t-257.5 -33h-721zM492 127h92q144 0 257 58.5t191 164t119 251.5t41 321q0 107 -25 185.5t-71.5 129.5t-113 75.5t-148.5 24.5h-86z" />
<glyph unicode="E" horiz-adv-x="1296" d="M-47 0l22 109h27q32 0 62.5 4t55.5 17t43.5 37t26.5 64l213 1006q4 11 6.5 25t2.5 22q0 22 -11 36t-30.5 21.5t-47 10t-59.5 2.5h-26l22 108h1112l-72 -381h-145q1 7 2.5 25t3 37.5t3 36t1.5 20.5q0 28 -8 53t-25 44t-44.5 29.5t-67.5 10.5h-272l-109 -512h465l-27 -123 h-465l-123 -577h324q48 0 86 13.5t66 36.5t47.5 53.5t31.5 64.5l33 88h146l-95 -381h-1175z" />
<glyph unicode="F" horiz-adv-x="1272" d="M-47 0l22 109h27q32 0 62.5 4t55.5 17t43.5 37t26.5 64l209 983q13 53 13 70q0 22 -11 36t-30.5 21.5t-47 10t-59.5 2.5h-26l22 108h1126l-71 -381h-146q2 17 4 36t3.5 36.5t2.5 30t1 16.5q0 29 -8 54t-26 43.5t-47.5 29t-72.5 10.5h-278l-119 -559h485l-24 -121h-486 l-90 -415q-5 -23 -7.5 -39.5t-2.5 -24.5q0 -22 11 -35.5t31 -21t47.5 -10t59.5 -2.5h27l-23 -109h-704z" />
<glyph unicode="G" horiz-adv-x="1630" d="M129 528q0 132 31 254.5t89 228.5t142 193t189 149t230.5 96t266.5 34q118 0 205 -21t145 -55t86.5 -78t28.5 -90q0 -40 -23.5 -74.5t-63.5 -60t-94.5 -40.5t-115.5 -15q0 64 -13.5 119.5t-42 96.5t-72 64t-103.5 23q-78 0 -149 -32t-132 -89t-110.5 -136t-84.5 -173 t-54 -200.5t-19 -217.5q0 -86 17 -156.5t54.5 -121.5t96 -79t141.5 -28q47 0 96 8t86 20l68 304q12 54 12 69q0 22 -11 36t-30.5 21.5t-46.5 10t-59 2.5h-27l23 108h682l-23 -108h-2q-34 0 -65.5 -4.5t-57 -17.5t-44.5 -38t-27 -65l-78 -391q-62 -24 -121.5 -41.5 t-121 -29.5t-126.5 -17.5t-137 -5.5q-158 0 -276.5 38t-198.5 109t-120 172.5t-40 228.5z" />
<glyph unicode="H" horiz-adv-x="1677" d="M-47 0l22 109h27q32 0 62.5 4t55.5 17t43.5 37t26.5 64l209 983q13 53 13 70q0 22 -11 36t-30.5 21.5t-47 10t-59.5 2.5h-26l22 108h707l-23 -108h-26q-34 0 -65.5 -4.5t-57.5 -17.5t-45 -38t-27 -65l-84 -404h535l86 398q5 21 7.5 37t2.5 24q0 22 -11.5 36t-31.5 21.5 t-47.5 10t-59.5 2.5h-26l22 108h707l-23 -108h-26q-33 0 -64 -4.5t-57 -17.5t-44.5 -38t-27.5 -65l-211 -1004q-3 -11 -5.5 -25t-2.5 -22q0 -22 11 -35.5t30.5 -21t46.5 -10t59 -2.5h27l-23 -109h-706l22 109h27q33 0 64 4t57 17.5t44.5 37.5t27.5 65l98 467h-535l-100 -475 q-3 -11 -5.5 -25t-2.5 -22q0 -22 11 -35.5t31 -21t47.5 -10t59.5 -2.5h27l-23 -109h-704z" />
<glyph unicode="I" horiz-adv-x="821" d="M-47 0l22 109h27q32 0 62.5 4t55.5 17t43.5 37t26.5 64l213 1006q4 11 6.5 25t2.5 22q0 22 -11 36t-30.5 21.5t-47 10t-59.5 2.5h-26l22 108h707l-23 -108h-26q-34 0 -65.5 -4.5t-57.5 -17.5t-45 -38t-27 -65l-211 -1004q-2 -11 -5 -25t-3 -22q0 -22 11 -35.5t31 -21 t47.5 -10t59.5 -2.5h27l-23 -109h-704z" />
<glyph unicode="J" horiz-adv-x="821" d="M-324 -469l29 113q13 -5 29.5 -8.5t34.5 -6t36 -3.5t33 -1q53 0 98.5 19t83 62.5t67.5 114t52 173.5l264 1243q4 11 6.5 25t2.5 22q0 22 -11 36t-30.5 21.5t-47 10t-59.5 2.5h-26l22 108h707l-23 -108h-26q-34 0 -65.5 -4.5t-57.5 -17.5t-45 -38t-27 -65l-260 -1235 q-26 -125 -87 -216.5t-144 -151.5t-183 -89t-205 -29q-55 0 -92.5 6t-75.5 17z" />
<glyph unicode="K" horiz-adv-x="1518" d="M-47 0l22 109h27q32 0 62.5 4t55.5 17t43.5 37t26.5 64l209 983q13 53 13 70q0 22 -11 36t-30.5 21.5t-47 10t-59.5 2.5h-26l22 108h707l-23 -108h-26q-34 0 -65.5 -4.5t-57.5 -17.5t-45 -38t-27 -65l-102 -486l415 367q42 37 68.5 66.5t42 53t21.5 41.5t6 32 q0 26 -20 39.5t-71 13.5l23 106h553l-23 -106q-41 0 -79 -10t-77 -31t-81.5 -53t-91.5 -76l-332 -293l239 -576q25 -57 45.5 -97t42 -64.5t47 -35.5t60.5 -11h6l-20 -109h-107q-102 0 -169.5 12.5t-114 44.5t-79 86.5t-65.5 139.5l-151 391l-121 -86l-76 -363q-2 -11 -5 -25 t-3 -22q0 -22 11 -35.5t31 -21t47.5 -10t59.5 -2.5h27l-23 -109h-704z" />
<glyph unicode="L" horiz-adv-x="1339" d="M-47 0l22 109h27q32 0 62.5 4t55.5 17t43.5 37t26.5 64l209 983q13 53 13 70q0 22 -11 36t-30.5 21.5t-47 10t-59.5 2.5h-26l22 108h707l-23 -108h-26q-34 0 -65.5 -4.5t-57.5 -17.5t-45 -38t-27 -65l-231 -1104h342q56 0 97 14t71.5 41.5t53.5 69.5t42 98l37 109h131 l-113 -457h-1200z" />
<glyph unicode="M" horiz-adv-x="1950" d="M-47 0l22 109h27q32 0 62.5 4t55.5 17t43.5 37t26.5 64l209 983q13 53 13 70q0 22 -11 36t-30.5 21.5t-47 10t-59.5 2.5h-26l22 108h571l138 -995l536 995h592l-22 -108h-27q-33 0 -64 -4.5t-57 -17.5t-44.5 -38t-27.5 -65l-210 -1004q-4 -11 -6.5 -25t-2.5 -22 q0 -22 11 -35.5t30.5 -21t47 -10t59.5 -2.5h26l-22 -109h-698l22 109h27q33 0 64 4t56.5 17.5t44.5 37.5t27 65l217 1027l-678 -1260h-141l-166 1260l-217 -1018q-5 -23 -7.5 -39.5t-2.5 -24.5q0 -22 11 -35.5t31 -21t47.5 -10t59.5 -2.5h7l-23 -109h-516z" />
<glyph unicode="N" horiz-adv-x="1614" d="M-47 0l22 109h27q32 0 62.5 4t55.5 17t43.5 37t26.5 64l209 983q13 53 13 70q0 22 -11 36t-30.5 21.5t-47 10t-59.5 2.5h-26l22 108h455l499 -1050l172 809q11 47 11 63q0 22 -11.5 36t-31.5 21.5t-47.5 10t-59.5 2.5h-6l23 108h516l-23 -108h-26q-32 0 -62.5 -4.5 t-55.5 -17.5t-43.5 -37t-27.5 -64l-260 -1231h-188l-555 1159l-193 -917q-5 -23 -7.5 -39.5t-2.5 -24.5q0 -22 11 -35.5t31 -21t47.5 -10t59.5 -2.5h7l-23 -109h-516z" />
<glyph unicode="O" horiz-adv-x="1622" d="M129 545q0 98 24.5 206t73.5 212.5t122 199t169.5 166t217.5 114t265 42.5q113 0 215.5 -33t180.5 -102t124 -175t46 -253q0 -94 -23.5 -201t-71 -212t-119 -201t-168 -169.5t-218 -117.5t-267.5 -44q-121 0 -225.5 36.5t-181 108.5t-120.5 178t-44 245zM463 496 q0 -101 21.5 -173.5t59 -119t88.5 -68.5t109 -22q85 0 154.5 41t124.5 109.5t95.5 157t67 183.5t39.5 189.5t13 175.5q0 100 -21 172t-57.5 119t-87.5 69.5t-111 22.5q-85 0 -154.5 -41t-124.5 -109.5t-96 -157t-67.5 -184t-39.5 -190t-13 -174.5z" />
<glyph unicode="P" horiz-adv-x="1358" d="M-47 0l22 109h27q32 0 62.5 4t55.5 17t43.5 37t26.5 64l209 983q13 53 13 70q0 22 -11 36t-30.5 21.5t-47 10t-59.5 2.5h-26l22 108h586q120 0 217 -25.5t164.5 -76t104 -125t36.5 -172.5q0 -52 -10 -110t-35.5 -114t-70.5 -106.5t-114.5 -89t-167 -61.5t-229.5 -23h-155 l-74 -334q-3 -11 -5.5 -25t-2.5 -22q0 -22 11 -35.5t31 -21t47.5 -10t59.5 -2.5h68l-23 -109h-745zM610 678h86q93 0 157.5 28t104.5 78.5t58 120t18 152.5q0 77 -17.5 131t-48.5 88t-74.5 49.5t-94.5 15.5h-45z" />
<glyph unicode="Q" horiz-adv-x="1612" d="M127 545q0 98 24.5 206t73.5 212.5t122 199t169.5 166t217.5 114t265 42.5q113 0 215.5 -33t180.5 -102t124 -175t46 -253q0 -84 -18.5 -177t-55 -186.5t-92.5 -182t-130.5 -163t-168.5 -130.5t-207 -83q3 -113 21 -185.5t49 -114t72.5 -57.5t92.5 -16h33l-26 -119h-148 q-92 0 -171 27.5t-137.5 86t-92.5 150.5t-37 222q-93 19 -170.5 63.5t-133.5 114t-87 163t-31 210.5zM461 496q0 -101 21.5 -173.5t59 -119t88.5 -68.5t109 -22q85 0 154.5 41t124.5 109.5t95.5 157t67 183.5t39.5 189.5t13 175.5q0 100 -21 172t-57.5 119t-87.5 69.5 t-111 22.5q-85 0 -154.5 -41t-124.5 -109.5t-96 -157t-67.5 -184t-39.5 -190t-13 -174.5zM700 -23z" />
<glyph unicode="R" horiz-adv-x="1448" d="M-47 0l22 109h27q32 0 62.5 4t55.5 17t43.5 37t26.5 64l209 983q13 53 13 70q0 22 -11 36t-30.5 21.5t-47 10t-59.5 2.5h-26l22 108h658q245 0 366 -85t121 -257q0 -104 -33.5 -177t-86 -122.5t-117.5 -78.5t-128 -44l142 -381q21 -58 41 -98t42.5 -64.5t49 -35 t61.5 -10.5h8l-22 -109h-21q-107 0 -185.5 9t-134.5 34.5t-93 71t-60 118.5l-129 402h-141l-80 -375q-8 -37 -11 -55.5t-3 -26.5q0 -22 11 -35.5t31 -21t47.5 -10t59.5 -2.5h68l-23 -109h-745zM621 754h127q65 0 121.5 19t98 59.5t65.5 105t24 156.5q0 69 -12 116t-37 76.5 t-63 42t-89 12.5h-104z" />
<glyph unicode="S" horiz-adv-x="1200" d="M29 279q0 48 19.5 84t55 60t84 36t107.5 12q0 -94 20 -163t56 -114.5t86 -67.5t110 -22q58 0 103 16.5t76.5 45t48 67t16.5 82.5q0 43 -10.5 79t-38.5 70t-77 69t-126 77q-80 44 -140.5 90.5t-101 100.5t-61 118.5t-20.5 145.5q0 92 37 169t106 132.5t167 86t220 30.5 q114 0 199 -18t141.5 -49t84.5 -73t28 -90q0 -83 -63 -130.5t-206 -47.5q0 46 -9 96t-32 91.5t-62 68.5t-99 27q-41 0 -81.5 -13t-72.5 -39t-52 -65.5t-20 -93.5t17 -92t51 -70.5t85 -63t120 -67.5q155 -84 229 -185.5t74 -232.5q0 -109 -39.5 -194t-113 -143t-177.5 -88.5 t-233 -30.5q-127 0 -222 23t-158 63t-94.5 94.5t-31.5 118.5z" />
<glyph unicode="T" horiz-adv-x="1337" d="M139 1065l94 397h1274l-71 -397h-138q1 7 3.5 31.5t5.5 52.5t5.5 51.5t2.5 28.5q0 54 -32.5 81t-111.5 27h-163l-236 -1112q-2 -11 -5 -25t-3 -22q0 -22 11 -35.5t31 -21t47.5 -10t59.5 -2.5h27l-22 -109h-705l23 109h26q32 0 62.5 4t55.5 17t43.5 37t27.5 64l231 1106 h-164q-48 0 -81.5 -12t-58 -35.5t-41.5 -57.5t-32 -79l-29 -88h-137z" />
<glyph unicode="U" horiz-adv-x="1530" d="M203 334q0 16 2 40t5 49.5t7 50t8 42.5l150 698q12 55 12 70q0 22 -11 36t-30.5 21.5t-46.5 10t-59 2.5h-27l23 108h708l-22 -108h-27q-34 0 -65.5 -4.5t-57.5 -17t-44.5 -36.5t-27.5 -63l-155 -721q-4 -18 -8.5 -40t-8 -45.5t-6 -47.5t-2.5 -45q0 -103 64 -156t188 -53 q93 0 157 27t107 74.5t69 113t42 143.5l158 740q3 17 5.5 35t2.5 26q0 22 -11 36t-30.5 21.5t-47 10t-59.5 2.5h-26l22 108h539l-23 -108h-26q-33 0 -64 -4.5t-57 -17.5t-44.5 -38t-27.5 -65l-164 -778q-24 -115 -71.5 -203t-121 -147.5t-173.5 -90t-230 -30.5 q-120 0 -212 23.5t-155 69t-95.5 111.5t-32.5 150z" />
<glyph unicode="V" horiz-adv-x="1430" d="M174 1354l23 108h675l-22 -108h-47q-66 0 -105 -16.5t-39 -65.5q0 -17 1.5 -36.5t3.5 -33.5l65 -540q4 -36 7.5 -83.5t5 -96t2.5 -92t1 -71.5q12 28 25.5 59t26 60t23.5 54t20 40l368 662q20 35 28.5 61t8.5 48q0 30 -30 40.5t-89 10.5h-47l21 108h534l-22 -108h-49 q-30 0 -51.5 -5t-40.5 -19.5t-38 -41.5t-44 -71l-682 -1217h-205l-172 1255q-5 31 -16.5 50.5t-28 30.5t-38 14.5t-46.5 3.5h-27z" />
<glyph unicode="W" horiz-adv-x="2185" d="M176 1354l23 108h669l-22 -108h-47q-66 0 -105 -16.5t-39 -65.5q0 -17 1 -39t3 -51l39 -510q3 -27 6 -71.5t5.5 -93.5t4 -96.5t1.5 -80.5q21 60 49 120.5t59 120.5l457 877h150l116 -782q14 -97 24.5 -185.5t10.5 -154.5q12 34 29 79t37.5 95.5t43.5 102.5t46 102 l227 489q14 29 22.5 58t8.5 51q0 30 -27 40.5t-86 10.5h-47l20 108h535l-23 -108h-49q-30 0 -53 -6t-42.5 -22.5t-39 -46t-41.5 -75.5l-573 -1204h-234l-141 977l-498 -977h-254l-110 1255q-3 31 -14 50.5t-28.5 30.5t-39.5 14.5t-47 3.5h-27z" />
<glyph unicode="X" horiz-adv-x="1499" d="M-86 0l23 109h20q31 0 57.5 7.5t54 24.5t59 45t71.5 70l452 467l-229 526q-15 34 -30.5 55t-34.5 32t-42.5 14.5t-52.5 3.5h-18l22 108h678l-22 -108h-48q-51 0 -73.5 -15t-22.5 -43q0 -20 9.5 -49.5t27.5 -72.5l109 -254l241 258q28 29 50 63t22 62q0 26 -25 38.5 t-73 12.5h-6l22 108h477l-22 -108h-19q-30 0 -55 -7t-51.5 -24t-56 -45t-68.5 -70l-385 -405l252 -586q28 -63 65.5 -85.5t75.5 -22.5h27l-23 -109h-676l23 109h31q61 0 88.5 18.5t27.5 52.5q0 29 -10 64.5t-29 77.5l-125 282l-286 -297q-37 -38 -59.5 -73t-22.5 -64 q0 -15 5 -26t17.5 -19t34 -12t55.5 -4h7l-23 -109h-516z" />
<glyph unicode="Y" horiz-adv-x="1419" d="M180 1354l23 108h665l-22 -108h-92q-47 0 -66.5 -16t-19.5 -44q0 -18 6 -52t18 -81l74 -289q7 -30 15 -64t14.5 -68t11 -66.5t6.5 -57.5q19 41 58 104t92 138l202 289q25 35 43.5 76t18.5 75q0 28 -28.5 42t-96.5 14h-43l24 108h537l-23 -108h-38q-23 0 -42.5 -6 t-39.5 -21.5t-42.5 -41t-50.5 -64.5l-507 -705l-62 -291q-2 -11 -5 -25t-3 -22q0 -22 11 -35.5t31 -21t47.5 -10t59.5 -2.5h50l-23 -109h-756l23 109h55q32 0 62 4.5t55 18t43 37.5t27 64l59 285l-221 727q-9 30 -18.5 51t-22.5 33.5t-32.5 18.5t-49.5 6h-27z" />
<glyph unicode="Z" horiz-adv-x="1364" d="M-4 0l18 102l1010 1235h-356q-93 0 -149.5 -42t-82.5 -136l-35 -119h-147l100 422h1090l-21 -104l-1011 -1233h422q46 0 87 12t75 38t61 68.5t45 104.5l22 74h148l-98 -422h-1178z" />
<glyph unicode="[" horiz-adv-x="848" d="M43 -262l387 1818h567l-22 -108h-88q-34 0 -65.5 -5t-58.5 -20.5t-47 -44.5t-30 -78l-276 -1306q-3 -16 -5 -28t-2 -23q0 -32 11 -51t30.5 -29t45.5 -13.5t55 -3.5h88l-23 -108h-567z" />
<glyph unicode="\" horiz-adv-x="590" d="M221 1556h144l110 -1804h-143z" />
<glyph unicode="]" horiz-adv-x="848" d="M-109 -262l23 108h88q34 0 65.5 5t57.5 20.5t46 45t30 77.5l276 1306q6 31 6 52q0 31 -11 50t-30 29.5t-45 13.5t-55 3h-88l22 108h568l-387 -1818h-566z" />
<glyph unicode="^" d="M137 537l432 925h88l435 -925h-160l-320 702l-315 -702h-160z" />
<glyph unicode="_" horiz-adv-x="940" d="M-186 -291l26 121h959l-27 -121h-958z" />
<glyph unicode="`" horiz-adv-x="1182" d="M498 1548l6 21h301q12 -37 31.5 -80t40.5 -84t42.5 -77t38.5 -60l-6 -27h-121q-44 26 -93.5 66t-95.5 83.5t-84.5 85.5t-59.5 72z" />
<glyph unicode="a" horiz-adv-x="1362" d="M82 354q0 80 18.5 167.5t55.5 172.5t91.5 162t126 135t159.5 92.5t192 34.5q40 0 81.5 -6.5t79.5 -16.5t71.5 -22.5t56.5 -25.5l108 49h109l-135 -639q-4 -17 -10 -45t-11.5 -59.5t-9.5 -61t-4 -49.5q0 -51 20 -76t52 -25q29 0 55.5 12.5t58.5 30.5l45 -82 q-26 -20 -59 -41.5t-73.5 -39.5t-88 -29.5t-102.5 -11.5q-91 0 -146 41.5t-55 121.5q0 32 3 62.5t11 70.5h-14q-38 -71 -75.5 -126.5t-83.5 -93t-102.5 -57t-131.5 -19.5q-73 0 -128 28.5t-91.5 78.5t-55 118.5t-18.5 148.5zM393 352q0 -59 8.5 -99t23 -64.5t35 -35 t44.5 -10.5q45 0 93 39t90 102.5t75.5 143.5t50.5 162l72 340q-20 29 -55.5 43t-75.5 14q-60 0 -109.5 -31t-89.5 -83t-70.5 -118t-51 -137t-30.5 -140t-10 -126z" />
<glyph unicode="b" horiz-adv-x="1276" d="M43 -6l272 1280q3 13 6 27t5 26.5t3 21.5t1 13q0 28 -6 45t-19 26t-34 12t-50 3h-47l19 108h497l-82 -389q-4 -19 -12.5 -48t-19 -63t-23 -69.5t-23.5 -67.5t-20 -58t-14 -40h10q37 75 77 130.5t87 92.5t102 55.5t123 18.5q65 0 120 -24t94.5 -70.5t62 -116t22.5 -159.5 q0 -83 -20 -172t-59 -174.5t-95.5 -162t-130 -134t-162.5 -91.5t-192 -34q-42 0 -81 6t-72.5 16t-61 23t-46.5 28l-116 -59h-115zM391 168q22 -25 56 -41t77 -16q60 0 110 31.5t90 83t69.5 117.5t49.5 135t30 135.5t10 119.5q0 61 -8.5 103t-23.5 68t-35 38t-42 12 q-38 0 -73 -22.5t-66.5 -58.5t-58 -80.5t-47 -89t-34.5 -84t-20 -64.5z" />
<glyph unicode="c" horiz-adv-x="1081" d="M82 403q0 76 19 158.5t57 162t94.5 151t131.5 125.5t168 86t204 32q85 0 146.5 -17.5t101 -47t58.5 -69t19 -83.5q0 -32 -13.5 -62.5t-43.5 -55t-77.5 -39.5t-115.5 -15q0 54 -9.5 102.5t-28.5 85t-46.5 57.5t-64.5 21q-44 0 -82.5 -29.5t-70.5 -78t-56.5 -111t-42 -129 t-26.5 -131t-9 -117.5q0 -125 57 -194.5t169 -69.5q54 0 97.5 14.5t78.5 38.5t62 54t48 61q13 -12 22 -35.5t9 -54.5q0 -40 -23.5 -81.5t-73 -75t-125.5 -55t-181 -21.5q-93 0 -175.5 26t-144 79t-97.5 132t-36 186z" />
<glyph unicode="d" horiz-adv-x="1362" d="M82 354q0 80 18.5 167.5t55 172.5t90 162t123.5 135t155.5 92.5t186.5 34.5q60 0 112 -13t92 -36q3 13 6 30.5t6.5 35t7 33t5.5 24.5l18 82q3 13 6 27t5 26.5t3 21.5t1 13q0 28 -6 45t-19 26t-34 12t-50 3h-47l19 108h493l-237 -1116l-8.5 -42.5t-10.5 -57.5t-8.5 -59 t-3.5 -48q0 -48 22 -70t50 -22q26 0 57.5 14t56.5 29l45 -80q-27 -22 -61 -44t-74.5 -40t-87.5 -29t-100 -11q-45 0 -82 10.5t-63.5 30.5t-41 50.5t-14.5 71.5q0 19 1 34t2.5 29.5t4 31t6.5 38.5h-12q-38 -79 -80 -135t-89.5 -92t-102 -52.5t-117.5 -16.5q-79 0 -135.5 30 t-93 81t-53.5 119t-17 144zM393 352q0 -58 8.5 -98t23 -64.5t35 -35.5t44.5 -11q45 0 92.5 39t89.5 102t75.5 143t51.5 163l72 340q-22 28 -60 42.5t-75 14.5q-58 0 -107 -31.5t-88.5 -83t-70 -118t-50.5 -137t-30.5 -140t-10.5 -125.5z" />
<glyph unicode="e" horiz-adv-x="1096" d="M82 403q0 76 20 159t59.5 162.5t98 151t135.5 125.5t172.5 85.5t208.5 31.5q147 0 228 -63.5t81 -177.5q0 -83 -46 -159t-127 -133.5t-193 -91.5t-244 -34h-37t-39 2q-3 -20 -3.5 -40.5t-0.5 -37.5q0 -119 55.5 -183.5t167.5 -64.5q50 0 95 14.5t83.5 38t69 53t52.5 60.5 q12 -15 19 -38.5t7 -49.5q0 -37 -24 -78t-73.5 -75.5t-126 -57t-181.5 -22.5q-94 0 -177 26t-145.5 78.5t-98.5 132t-36 186.5zM414 578h18q76 0 141.5 20t114 57.5t76 89.5t27.5 117q0 63 -26.5 98t-74.5 35q-50 0 -95 -37.5t-81 -97.5t-62 -134.5t-38 -147.5z" />
<glyph unicode="f" horiz-adv-x="827" d="M-285 -475l25 119q17 -5 44 -10t50 -5q50 0 88.5 17t69 57.5t55 108.5t45.5 170l207 976h-186l20 97l197 43l16 76q24 101 64 176.5t99 126t138.5 75.5t183.5 25q79 0 139.5 -14t101 -38t61 -56.5t20.5 -69.5q0 -68 -60 -106t-175 -38q0 39 -4.5 75.5t-15.5 64.5 t-29 44.5t-46 16.5q-65 0 -99.5 -56t-55.5 -171l-27 -131h258l-29 -140h-260l-194 -915q-23 -109 -59.5 -191t-82 -141.5t-98.5 -98.5t-109 -62t-114 -32.5t-113 -9.5q-15 0 -33 1.5t-35 4t-32 5.5t-25 6z" />
<glyph unicode="g" horiz-adv-x="1188" d="M-119 -231q0 54 27.5 98t73.5 76.5t105 54.5t122 33q-20 10 -39 27.5t-33.5 40t-23.5 48t-9 52.5q0 32 13 60t40 55t69 54.5t100 59.5q-68 32 -106 95t-38 151q0 71 31.5 149.5t95 144t159.5 108t226 42.5q68 0 127.5 -15.5t104.5 -49.5q23 29 49 54.5t55 44t62 29.5 t71 11q63 0 92 -30.5t29 -78.5q0 -25 -6.5 -51t-21.5 -47t-40.5 -34t-62.5 -13q0 42 -18.5 65t-53.5 23q-28 0 -51 -10t-43 -27q22 -29 36.5 -73t14.5 -91q0 -45 -13 -94.5t-39 -98t-66 -93t-95 -78.5t-125 -54t-155 -20q-9 0 -23.5 0.5t-29.5 1t-29 1.5t-23 3 q-48 -21 -80 -48.5t-32 -59.5q0 -17 8.5 -28t23 -17.5t34.5 -10.5t44 -6l230 -22q150 -14 233.5 -81.5t83.5 -197.5q0 -93 -42.5 -169.5t-124 -130.5t-200 -84t-270.5 -30q-125 0 -213.5 18.5t-144.5 52.5t-82.5 82.5t-26.5 107.5zM125 -217q0 -32 11.5 -59.5t40 -48 t78 -32.5t124.5 -12q90 0 154.5 16t106 43t61.5 62.5t20 73.5q0 58 -44.5 89t-150.5 40l-182 16q-45 -6 -84.5 -23t-69.5 -42t-47.5 -56.5t-17.5 -66.5zM440 653q0 -75 29 -108t82 -33q36 0 66 17t54 45t42 63.5t29.5 73.5t17.5 74.5t6 66.5q0 72 -28.5 105.5t-82.5 33.5 q-53 0 -93 -35t-67 -87t-41 -110.5t-14 -105.5z" />
<glyph unicode="h" horiz-adv-x="1343" d="M43 0l270 1274q3 13 6 27t5 26.5t3 21.5t1 13q0 28 -6 45t-19 26t-34 12t-50 3h-43l19 108h495l-96 -450q-8 -31 -17.5 -70t-18.5 -74q-11 -41 -21 -83h12q39 61 80.5 106t89.5 74.5t104.5 44t124.5 14.5q65 0 110 -19t72.5 -51.5t39.5 -75t12 -89.5q0 -26 -4 -55.5 t-9.5 -59.5t-12 -60t-11.5 -57l-47 -219q-13 -56 -21 -104.5t-8 -91.5q0 -45 19 -69t53 -24q32 0 58.5 12t62.5 35l49 -69q-25 -26 -56 -51.5t-69.5 -45.5t-85.5 -32t-103 -12q-117 0 -180 55.5t-63 154.5q0 44 7.5 105t24.5 139l35 162q5 20 11.5 49t12 60.5t9.5 63t4 56.5 q0 19 -3.5 40t-12.5 38t-26 28t-44 11q-35 0 -69.5 -23.5t-66.5 -62t-60.5 -88t-52 -101.5t-40.5 -102t-26 -90l-107 -475h-307z" />
<glyph unicode="i" horiz-adv-x="725" d="M117 989l18 109h486l-142 -666q-12 -56 -20 -104.5t-8 -91.5q0 -45 18.5 -69t52.5 -24q32 0 59 12t62 35l49 -69q-24 -26 -55 -51.5t-70 -45.5t-85.5 -32t-102.5 -12q-118 0 -181 55.5t-63 154.5q0 44 8 105t25 139l80 381q3 13 5.5 27t4.5 26.5t3 21.5t1 13q0 28 -6 45 t-19 26t-33.5 12t-49.5 3h-37zM319 1409q0 45 15.5 76.5t41.5 52t61 30t73 9.5q33 0 62.5 -7t52 -23t36 -40.5t13.5 -58.5q0 -42 -16.5 -73.5t-44 -52t-62.5 -30.5t-72 -10q-34 0 -63 7.5t-50.5 23.5t-34 40t-12.5 56z" />
<glyph unicode="j" horiz-adv-x="692" d="M-287 -467l25 107q15 -5 42.5 -10t49.5 -5q48 0 83.5 17.5t63.5 59.5t50.5 111t44.5 171l176 831q3 13 5.5 27t4.5 26.5t3 21.5t1 13q0 28 -6 45t-19 26t-33.5 12t-49.5 3h-37l18 109h486l-238 -1114q-28 -137 -75 -228.5t-108.5 -146.5t-133.5 -78t-150 -23 q-65 0 -112 7t-91 18zM319 1409q0 45 15.5 76.5t41.5 52t61 30t73 9.5q33 0 62.5 -7t52 -23t36 -40.5t13.5 -58.5q0 -42 -16.5 -73.5t-44 -52t-62.5 -30.5t-72 -10q-34 0 -63 7.5t-50.5 23.5t-34 40t-12.5 56z" />
<glyph unicode="k" horiz-adv-x="1223" d="M43 0l270 1274q3 13 6 27t5 26.5t3 21.5t1 13q0 28 -6 45t-19 26t-34 12t-50 3h-43l19 108h495l-108 -499q-18 -81 -31.5 -144.5t-27 -120.5t-28 -114t-32.5 -125l319 289q25 22 40 39t23.5 29.5t11.5 22t3 17.5q0 22 -25 33.5t-71 11.5l20 103h516l-20 -103 q-71 0 -149 -41.5t-177 -132.5l-163 -151l153 -334q33 -72 64 -116t58 -69t50 -33.5t41 -8.5h8l-22 -109h-105q-75 0 -134 10.5t-104 34t-77 60t-53 88.5l-121 286l-111 -71l-88 -408h-307z" />
<glyph unicode="l" horiz-adv-x="725" d="M102 190q0 88 33 244l178 840q3 13 6 27t5 26.5t3 21.5t1 13q0 28 -6 45t-19 26t-34 12t-50 3h-43l19 108h495l-244 -1124q-12 -56 -20 -104.5t-8 -91.5q0 -45 18.5 -69t52.5 -24q32 0 59 12t62 35l49 -69q-24 -26 -55 -51.5t-69.5 -45.5t-85.5 -32t-103 -12 q-118 0 -181 55.5t-63 154.5z" />
<glyph unicode="m" horiz-adv-x="1985" d="M76 0l172 815q3 13 5.5 27t4.5 26.5t3 21.5t1 13q0 28 -6 45t-19 26t-33.5 12t-49.5 3h-37l18 109h475l-39 -209h15q40 62 82.5 105.5t89.5 71t99.5 40t113.5 12.5q64 0 107 -18t69 -49t37.5 -71t11.5 -85v-16h12q38 61 78.5 107t87.5 76.5t102 46t121 15.5q63 0 106 -19 t70 -51.5t38.5 -75t11.5 -89.5q0 -26 -4 -55.5t-9.5 -59.5t-12 -60t-11.5 -57l-47 -219q-13 -55 -21 -104t-8 -92q0 -45 19 -68.5t53 -23.5q32 0 58.5 12t62.5 35l49 -70q-25 -26 -56 -51.5t-69.5 -45.5t-85.5 -32t-103 -12q-117 0 -180 56t-63 155q0 43 7.5 104t24.5 139 l35 162q5 20 11.5 49t12 60.5t9.5 63t4 56.5q0 19 -3.5 40t-12.5 38t-25 28t-41 11q-33 0 -65.5 -23t-63.5 -60.5t-58.5 -86t-50 -99.5t-38.5 -100.5t-23 -89.5l-16 -86q-4 -21 -9.5 -57.5t-11.5 -78.5t-12 -86t-10.5 -81.5t-7 -64.5t-2.5 -35h-318q0 12 3.5 42t9.5 70.5 t14 87.5l16 94t16 89.5t15 73.5l31 143q4 19 9.5 48t11 60.5t9.5 63.5t4 57q0 19 -2 39t-8.5 36.5t-20 27t-36.5 10.5q-34 0 -67.5 -21t-64.5 -56t-59 -80t-50.5 -92.5t-39 -94t-24.5 -84.5l-115 -514h-307z" />
<glyph unicode="n" horiz-adv-x="1376" d="M76 0l172 815q3 13 5.5 27t4.5 26.5t3 21.5t1 13q0 28 -6 45t-19 26t-33.5 12t-49.5 3h-37l18 109h455l-23 -219h13q39 61 80.5 106t89.5 74.5t104.5 44t124.5 14.5q65 0 109.5 -19t72 -51.5t39.5 -75t12 -89.5q0 -26 -3.5 -55.5t-9 -59.5t-12 -60t-11.5 -57l-46 -219 q-12 -56 -20 -104.5t-8 -91.5q0 -45 18.5 -69t53.5 -24q32 0 58.5 12t61.5 35l49 -69q-24 -26 -55 -51.5t-69.5 -45.5t-85.5 -32t-103 -12q-118 0 -181 55.5t-63 154.5q0 88 33 244l33 162q4 20 10 49t12 60.5t10.5 63t4.5 56.5q0 19 -3.5 40t-13 38t-26 28t-43.5 11 q-35 0 -69.5 -23.5t-66.5 -62t-61 -88t-52.5 -101.5t-40.5 -102t-26 -90l-104 -475h-307z" />
<glyph unicode="o" horiz-adv-x="1266" d="M82 410q0 77 18 159t54.5 161t91.5 149.5t129.5 123.5t169 84t209.5 31q88 0 166 -24.5t136 -76.5t92 -133.5t34 -195.5q0 -74 -17 -155t-52.5 -159.5t-90 -150t-128.5 -125.5t-168 -86t-210 -32q-96 0 -176 26.5t-137 80t-89 134.5t-32 189zM395 360q0 -125 42 -179 t116 -54q55 0 99.5 31.5t80 83t61.5 117.5t42.5 136t25 137.5t8.5 121.5q0 121 -41.5 174t-113.5 53q-52 0 -96 -30t-79.5 -80t-62.5 -114.5t-45.5 -133.5t-27.5 -137.5t-9 -125.5z" />
<glyph unicode="p" horiz-adv-x="1276" d="M-61 -492l278 1307q3 13 5.5 27t4.5 26.5t3 21.5t1 13q0 28 -6 45t-19 26t-33.5 12t-49.5 3h-37l18 109h441l-53 -273h14q35 64 72 118t82 93t102 60.5t133 21.5q67 0 122.5 -24t94.5 -71t60.5 -116t21.5 -159q0 -74 -17.5 -159.5t-52.5 -171t-87.5 -164.5t-123.5 -139.5 t-159.5 -97t-194.5 -36.5q-62 0 -115.5 12.5t-93.5 34.5q-1 -16 -4 -33q-2 -14 -5 -31.5t-7 -34.5l-29 -137q-3 -13 -5.5 -27t-4.5 -26.5t-3 -21.5t-1 -13q0 -28 6 -45t19 -26t33.5 -12t49.5 -3h78l-18 -109h-520zM391 168q9 -9 24 -19.5t34 -18.5t41.5 -13.5t46.5 -5.5 q55 0 102.5 30t86 80t68.5 114.5t50 133.5t30.5 137.5t10.5 126.5q0 42 -5.5 81.5t-18 70.5t-34 50t-53.5 19q-34 0 -67.5 -19.5t-65 -52.5t-59 -76t-50 -89.5t-39 -93.5t-24.5 -88z" />
<glyph unicode="q" horiz-adv-x="1292" d="M82 354q0 80 19.5 167.5t56.5 172.5t91.5 162t124.5 135t154.5 92.5t182.5 34.5q45 0 88 -6t82 -15.5t72 -21.5t59 -24l121 67h102l-281 -1327q-6 -26 -10 -55t-4 -49q0 -37 25 -53.5t84 -16.5h77l-18 -109h-485l82 410q3 16 8 39.5t11 51.5t12.5 58.5t12.5 60.5 q15 70 33 148h-12q-35 -67 -72 -121.5t-82.5 -93.5t-104.5 -60t-138 -21q-65 0 -118.5 24t-91.5 71t-59.5 117t-21.5 162zM393 360q0 -59 8.5 -100t23 -67t35 -38t44.5 -12q31 0 62.5 18.5t62.5 51t59.5 76.5t52 94t42 103.5t28.5 105.5l74 338q-14 23 -49 40t-84 17 q-61 0 -111 -32t-90 -84.5t-69.5 -119.5t-49 -136.5t-29.5 -136t-10 -118.5z" />
<glyph unicode="r" horiz-adv-x="1128" d="M76 0l174 823q3 17 7.5 45t4.5 50q0 38 -25 54.5t-83 16.5h-37l18 109h453l-43 -281h10q35 74 70.5 130t78 94t96.5 57.5t126 19.5q109 0 162 -41t53 -119q0 -106 -62 -158t-180 -52q0 46 -4.5 83.5t-16 64t-31 40.5t-48.5 14t-61 -23.5t-64 -64.5t-62.5 -97.5 t-58.5 -123t-51 -139.5t-39 -148l-78 -354h-309z" />
<glyph unicode="s" horiz-adv-x="1053" d="M35 205q0 48 19 81t49.5 53.5t70 30t80.5 9.5q0 -55 11 -105t35 -88.5t62.5 -61t94.5 -22.5q42 0 78 10.5t62 30t41 48t15 65.5q0 35 -13.5 62t-42 50.5t-72 46.5t-103.5 52q-60 28 -108.5 60t-82.5 71t-52.5 87t-18.5 108q0 75 32 135t92 102.5t145.5 65t193.5 22.5 q103 0 174.5 -16t116 -42.5t64 -61.5t19.5 -72q0 -82 -63 -119t-172 -37q0 41 -8 82.5t-27 75.5t-49 55t-74 21q-40 0 -71.5 -11.5t-54 -31t-34.5 -45.5t-12 -56q0 -34 13.5 -59t42 -47t72.5 -43.5t104 -48.5q66 -30 114 -63.5t79.5 -73t47 -86t15.5 -103.5 q0 -83 -31.5 -149t-94.5 -112t-156 -70.5t-216 -24.5q-88 0 -159.5 15t-122 44t-78 71t-27.5 95z" />
<glyph unicode="t" horiz-adv-x="854" d="M123 958l22 105q44 0 96 15t106.5 49t109 89t102.5 134h119l-53 -252h247l-28 -140h-250l-123 -561q-11 -45 -15.5 -81.5t-4.5 -65.5q0 -51 28 -77t74 -26q48 0 87 16t73 38l47 -78q-34 -29 -71.5 -55t-81.5 -45.5t-94.5 -31t-109.5 -11.5q-56 0 -104.5 14.5t-84.5 44 t-56.5 74.5t-20.5 106q0 18 1.5 40t4.5 45t7 45.5t8 41.5l123 567h-158z" />
<glyph unicode="u" horiz-adv-x="1378" d="M117 989l18 109h492l-135 -613q-6 -24 -12 -54t-11 -60t-8.5 -57t-3.5 -46q0 -45 19 -71.5t69 -26.5q45 0 92.5 40.5t91 105t77.5 144t52 156.5l109 482h305l-139 -666q-13 -56 -21 -104.5t-8 -91.5q0 -45 18.5 -69t53.5 -24q32 0 58.5 12t61.5 35l50 -69 q-25 -26 -56 -51.5t-69.5 -45.5t-85.5 -32t-103 -12q-68 0 -113.5 15.5t-73.5 42t-40 62t-12 76.5q0 9 1 21t2.5 25t3 24.5t3.5 19.5h-17q-45 -64 -88.5 -116t-92.5 -89.5t-106 -58t-130 -20.5q-66 0 -111 18.5t-72 49.5t-39 72.5t-12 86.5q0 51 12 112t23 113l74 361 q8 42 13 76t5 51q0 41 -25 54t-83 13h-37z" />
<glyph unicode="v" horiz-adv-x="1200" d="M33 989l24 109h402l94 -606q15 -104 21.5 -185.5t11.5 -132.5h6q70 72 134 155t113 166.5t78 162t29 141.5q0 69 -39 101t-96 32q0 84 46 134t124 50q32 0 60 -10.5t49 -33.5t33 -59t12 -87q0 -80 -26 -167t-68.5 -174.5t-97.5 -172t-113.5 -160t-115.5 -140t-104 -110.5 l-270 -20l-145 899q-6 32 -17.5 53t-29 33t-41.5 17t-54 5h-20z" />
<glyph unicode="w" horiz-adv-x="1792" d="M76 989l33 109h395q6 -102 11 -203.5t8 -190t5 -159t2 -111.5q0 -78 -1 -125.5t-1 -52.5h15q51 81 102 177t101 202t98 218.5t92 225.5l250 8q6 -51 11.5 -125t10.5 -158t9.5 -172t8 -166.5t5.5 -142t2 -98.5h14q90 111 149 200.5t93.5 163.5t48.5 134t14 111q0 30 -9 54 t-23 41.5t-32.5 28t-37.5 15.5q3 39 16.5 66.5t34 45t46.5 25.5t55 8q68 0 105.5 -45t37.5 -129q0 -106 -45 -224t-120 -240.5t-172 -244t-200 -233.5l-250 -22q0 63 -1.5 136.5t-3 151.5l-3 156t-3.5 149t-4 131t-3 103q-80 -190 -183 -394.5t-239 -406.5l-268 -18l-21 852 q-1 47 -12 76t-29.5 45.5t-44 22t-55.5 5.5h-12z" />
<glyph unicode="x" horiz-adv-x="1237" d="M-41 0l21 109h26q29 0 52.5 4.5t47 18.5t51.5 40t66 68l258 284l-141 340q-16 39 -31.5 63t-33.5 38t-40 19t-51 5h-24l20 109h385l144 -389l284 389h250l-20 -109h-37q-30 0 -53.5 -6t-47 -22.5t-50 -45t-62.5 -73.5l-211 -244l149 -344q19 -43 35.5 -71t34.5 -44.5 t40 -23t52 -6.5h27l-21 -109h-397l-154 414l-319 -414h-250z" />
<glyph unicode="y" horiz-adv-x="1200" d="M-344 -455l31 115q24 -8 67.5 -17.5t106.5 -9.5q94 0 172 25t144.5 67.5t125 99.5t113.5 122l-256 934q-17 61 -49.5 84.5t-92.5 23.5h-20l25 109h401l135 -531q10 -40 21 -93.5t21 -107t17 -100t9 -71.5h6q61 82 115 165t94.5 161.5t64 149.5t23.5 130q0 69 -33.5 105 t-93.5 36q0 40 12.5 72.5t34.5 55.5t52 35.5t65 12.5q83 0 125.5 -46t42.5 -128q0 -80 -27 -169t-77 -189t-121.5 -212t-161.5 -237q-74 -104 -139 -191t-127.5 -157t-127 -122.5t-137 -88t-158 -53t-190.5 -17.5q-59 0 -114.5 10t-98.5 27z" />
<glyph unicode="z" horiz-adv-x="1143" d="M0 0l23 104l684 854h-261q-41 0 -69 -13.5t-49.5 -37.5t-39 -58t-36.5 -75l-4 -8h-125l90 332h879l-23 -107l-686 -852h332q35 0 62 16.5t47.5 43t36.5 59.5t30 66l20 47h119l-88 -371h-942z" />
<glyph unicode="{" horiz-adv-x="905" d="M80 590l26 125q51 1 96.5 9.5t82 29.5t62.5 57.5t38 93.5l74 352q16 77 46 133.5t78.5 93t119.5 54.5t169 18h195l-23 -108h-79q-44 0 -74.5 -13t-52 -38t-35.5 -62.5t-25 -85.5l-76 -348q-20 -93 -84.5 -152.5t-189.5 -86.5l-4 -17q93 -25 136.5 -70.5t43.5 -113.5 q0 -27 -6 -58l-76 -350q-6 -26 -8 -49t-2 -43q0 -53 26 -80.5t89 -27.5h80l-25 -109h-195q-146 0 -219 59t-73 164q0 9 0.5 20t2.5 27t6 39.5t11 57.5l61 286q7 29 7 56q0 40 -15.5 66t-43 41.5t-64.5 21.5t-80 8z" />
<glyph unicode="|" d="M530 -492v2048h148v-2048h-148z" />
<glyph unicode="}" horiz-adv-x="905" d="M-111 -254l23 109h80q44 0 74.5 13t52 38t35 62t24.5 85l76 348q20 93 84.5 152.5t189.5 87.5l4 16q-92 25 -136 71t-44 114q0 27 6 57l76 350q6 26 8 49t2 43q0 53 -25.5 81t-88.5 28h-80l24 109h195q147 0 220 -59t73 -165q0 -9 -0.5 -20t-3 -27t-6.5 -39t-11 -57 l-61 -287q-6 -30 -6 -55q0 -41 15.5 -67t43 -41t64.5 -21.5t80 -7.5l-27 -125q-51 -2 -96 -10t-81.5 -29t-63 -57.5t-38.5 -94.5l-73 -352q-16 -77 -46 -133.5t-79 -93t-120 -54.5t-169 -18h-195z" />
<glyph unicode="~" d="M94 537q0 190 70.5 288.5t204.5 98.5q79 0 151 -51.5t142.5 -119t121.5 -67.5q50 0 79 58t34 180h152q-10 -210 -77.5 -298.5t-197.5 -88.5q-60 0 -113 29.5t-104 74.5t-99 89t-98 44q-53 0 -84 -56.5t-31 -180.5h-151z" />
<glyph unicode="&#xa2;" d="M137 592q0 71 17.5 148.5t52.5 153.5t87.5 145.5t121.5 125.5t154.5 93.5t187.5 48.5l33 155h127l-33 -151q77 -5 132.5 -24t91 -48t52.5 -66t17 -77q0 -32 -14 -62.5t-44 -55t-77.5 -39.5t-114.5 -15q0 74 -19 135t-57 96l-176 -831h16q59 0 106 14.5t84.5 38.5t66.5 54 t52 61q13 -13 23 -36.5t10 -54.5q0 -38 -23 -78t-71 -73.5t-122 -56t-175 -25.5l-35 -168h-127l37 174q-81 12 -151 43.5t-121 83.5t-80 124.5t-29 166.5zM451 588q0 -84 26.5 -142.5t79.5 -89.5l174 830q-44 -10 -81.5 -44.5t-68.5 -84.5t-55 -111t-41 -124t-25.5 -124 t-8.5 -110z" />
<glyph unicode="&#xa3;" d="M-12 106l69 44q51 30 102.5 71.5t93 94.5t67.5 118.5t26 143.5q0 34 -3.5 66.5t-8.5 64.5h-236l29 125h192q-6 38 -13 91t-7 103q0 108 38 193t107.5 143t168 88.5t218.5 30.5q87 0 154 -17.5t112.5 -48t69 -71t23.5 -86.5q0 -88 -66 -134.5t-190 -46.5q0 140 -40 209.5 t-110 69.5q-103 0 -158 -86t-55 -244q0 -60 7 -109.5t12 -84.5h364l-28 -125l-326 2q1 -8 2 -20t2 -26t1.5 -29t0.5 -28q0 -63 -20 -114.5t-58 -95t-93 -81t-126 -71.5l2 -8q54 20 98 28t83 8q46 0 95 -11.5t95.5 -25t88 -25t73.5 -11.5q35 0 62 4.5t50.5 14t46.5 24.5 t50 37l65 -103q-24 -25 -64 -59t-88.5 -65t-102.5 -52.5t-105 -21.5t-99.5 14.5t-99 32.5t-105.5 32.5t-118 14.5q-41 0 -75.5 -3.5t-66 -11t-63 -19.5t-65.5 -28l-33 -14z" />
<glyph unicode="&#xa5;" d="M90 0l22 109h55q32 0 62 4.5t55 18t43 37.5t27 64l22 105h-286l24 121h287l27 119h-287l24 120h271l-125 547q-7 31 -14 51.5t-18.5 33.5t-30 18.5t-48.5 5.5h-26l22 108h559l-22 -108h-58q-46 0 -66 -16t-20 -44q0 -18 8 -55.5t17 -85.5l37 -195q12 -65 21.5 -125 t9.5 -102q11 28 32 67t47 83l158 266q22 37 42 77t20 74q0 28 -23 42t-57 14h-41l24 108h434l-22 -108h-6q-47 0 -91.5 -39t-97.5 -121l-319 -496h262l-25 -120h-286l-27 -119h287l-25 -121h-286l-23 -98q-5 -22 -7.5 -38t-2.5 -24q0 -22 11 -35.5t30.5 -21t46.5 -10 t59 -2.5h49l-22 -109h-733z" />
<glyph unicode="&#xa8;" horiz-adv-x="1182" d="M381 1386q0 66 33 105t90 39q49 0 80.5 -28t31.5 -85q0 -40 -11 -67t-28 -44t-39 -24.5t-44 -7.5q-51 0 -82 27.5t-31 84.5zM809 1386q0 66 33 105t90 39q49 0 80.5 -28t31.5 -85q0 -40 -11 -67t-28 -44t-39 -24.5t-44 -7.5q-51 0 -82 27.5t-31 84.5z" />
<glyph unicode="&#xa9;" horiz-adv-x="1731" d="M129 731q0 104 27 200.5t75.5 180t117.5 152.5t152.5 118t179.5 76t200 27t200 -27t179.5 -76t152.5 -118t118 -152.5t76 -180t27 -200.5t-27 -200t-76 -179.5t-118 -152t-152.5 -117.5t-179.5 -75.5t-200 -26.5t-200 26.5t-179.5 75.5t-152.5 117.5t-117.5 152 t-75.5 179.5t-27 200zM242 731q0 -88 23 -169.5t64.5 -152.5t99.5 -129.5t129 -100t153 -64.5t170 -23q89 0 170.5 23t153 64.5t130 100t100 129.5t64.5 152.5t23 169.5q0 133 -50.5 249.5t-137.5 203.5t-203.5 137.5t-249.5 50.5q-88 0 -170 -23t-153 -64.5t-129 -100 t-99.5 -130t-64.5 -153.5t-23 -170zM481 733q0 100 28 183t83.5 143t137.5 93.5t190 33.5q70 0 123 -11.5t87.5 -31t52 -46t17.5 -57.5q0 -22 -11 -40t-29.5 -30.5t-44 -19t-54.5 -6.5q0 28 -7.5 56t-24.5 50.5t-45 36t-69 13.5q-72 0 -122.5 -24t-82.5 -71t-46.5 -115.5 t-14.5 -156.5q0 -177 69 -272.5t200 -95.5q46 0 86 12t72.5 32t55.5 44.5t37 50.5q13 -9 21 -25.5t8 -38.5q0 -28 -19 -57t-57.5 -53t-96 -39t-134.5 -15q-102 0 -179 33t-128.5 93t-77 144t-25.5 187z" />
<glyph unicode="&#xab;" horiz-adv-x="1135" d="M121 514l22 107l389 342h144l-293 -410l119 -410h-144zM532 514l23 107l389 342h143l-292 -410l118 -410h-143z" />
<glyph unicode="&#xad;" horiz-adv-x="635" d="M20 451l48 215h532l-47 -215h-533z" />
<glyph unicode="&#xae;" horiz-adv-x="1731" d="M129 731q0 104 27 200.5t75.5 180t117.5 152.5t152.5 118t179.5 76t200 27t200 -27t179.5 -76t152.5 -118t118 -152.5t76 -180t27 -200.5t-27 -200t-76 -179.5t-118 -152t-152.5 -117.5t-179.5 -75.5t-200 -26.5t-200 26.5t-179.5 75.5t-152.5 117.5t-117.5 152 t-75.5 179.5t-27 200zM242 731q0 -88 23 -169.5t64.5 -152.5t99.5 -129.5t129 -100t153 -64.5t170 -23q89 0 170.5 23t153 64.5t130 100t100 129.5t64.5 152.5t23 169.5q0 133 -50.5 249.5t-137.5 203.5t-203.5 137.5t-249.5 50.5q-88 0 -170 -23t-153 -64.5t-129 -100 t-99.5 -130t-64.5 -153.5t-23 -170zM494 289v69h26q20 0 38 2.5t32 10t22.5 21.5t8.5 38v600q0 24 -8.5 38t-22.5 21.5t-32 10t-38 2.5h-26v72h368q352 0 352 -244q0 -49 -16 -86t-42 -64t-59.5 -45.5t-68.5 -29.5l182 -293q10 -17 19.5 -27.5t22.5 -16.5t30 -8t43 -2v-69 h-217l-225 381h-109v-240q1 -24 9.5 -38t22 -21.5t31 -10t37.5 -2.5h29v-69h-409zM774 748h86q55 0 92.5 11t59.5 33t31.5 56t9.5 80q0 45 -11 77t-35 51.5t-61.5 28.5t-91.5 9h-80v-346z" />
<glyph unicode="&#xb4;" horiz-adv-x="1182" d="M498 1241l6 27q28 29 61 67t65.5 78.5t63 80.5t54.5 75h321l-6 -21q-16 -18 -44 -42.5t-63.5 -52.5t-76 -57.5t-82.5 -57.5t-83 -53.5t-77 -43.5h-139z" />
<glyph unicode="&#xb8;" horiz-adv-x="682" d="M51 -465l27 121q35 -8 70 -12t63 -4q31 0 59 6t48 18.5t32 32t12 47.5q0 20 -10.5 36.5t-28.5 29t-43 19.5t-53 9l82 180h117l-39 -88q41 -5 74.5 -20t57.5 -37.5t37 -51t13 -61.5q0 -66 -30.5 -113.5t-81.5 -78.5t-116.5 -45.5t-135.5 -14.5q-32 0 -75.5 7.5t-78.5 19.5 z" />
<glyph unicode="&#xbb;" horiz-adv-x="1135" d="M45 143l295 410l-121 410h143l236 -369l-23 -107l-387 -344h-143zM457 143l295 410l-121 410h143l236 -369l-23 -107l-387 -344h-143z" />
<glyph unicode="&#xc4;" horiz-adv-x="1542" d="M-100 0l22 109h43q28 0 49.5 6.5t41.5 24.5t41.5 49t49.5 79l695 1194h280l172 -1206q5 -32 13.5 -59t22.5 -46.5t35.5 -30.5t53.5 -11h37l-22 -109h-676l22 109h47q66 0 105 20.5t39 65.5q0 17 -1 33.5t-3 31.5l-31 221h-498l-100 -184q-20 -37 -29.5 -65t-9.5 -50 q0 -38 28 -55.5t87 -17.5h41l-23 -109h-532zM508 606h414l-37 344q-5 45 -9.5 84.5t-8 76.5t-6 72t-3.5 72q-15 -37 -30 -68.5t-32 -64t-37.5 -69t-47.5 -84.5zM678 1724q0 66 33 105t90 39q49 0 80.5 -28t31.5 -85q0 -40 -11 -67t-28 -44t-39 -24.5t-44 -7.5 q-51 0 -82 27.5t-31 84.5zM1106 1724q0 66 33 105t90 39q49 0 80.5 -28t31.5 -85q0 -40 -11 -67t-28 -44t-39 -24.5t-44 -7.5q-51 0 -82 27.5t-31 84.5z" />
<glyph unicode="&#xd5;" horiz-adv-x="1622" d="M129 545q0 98 24.5 206t73.5 212.5t122 199t169.5 166t217.5 114t265 42.5q113 0 215.5 -33t180.5 -102t124 -175t46 -253q0 -94 -23.5 -201t-71 -212t-119 -201t-168 -169.5t-218 -117.5t-267.5 -44q-121 0 -225.5 36.5t-181 108.5t-120.5 178t-44 245zM463 496 q0 -101 21.5 -173.5t59 -119t88.5 -68.5t109 -22q85 0 154.5 41t124.5 109.5t95.5 157t67 183.5t39.5 189.5t13 175.5q0 100 -21 172t-57.5 119t-87.5 69.5t-111 22.5q-85 0 -154.5 -41t-124.5 -109.5t-96 -157t-67.5 -184t-39.5 -190t-13 -174.5zM603 1600q9 46 32.5 99.5 t59.5 98.5t82.5 75t101.5 30q54 0 96.5 -20t78 -44.5t67 -44.5t63.5 -20q26 0 45 9t32.5 24t22 34.5t13.5 40.5h123q-11 -49 -33.5 -102.5t-56 -98t-78 -73.5t-99.5 -29t-99 20t-81 44.5t-69.5 44.5t-65.5 20q-21 0 -40 -9t-34 -24t-25 -34.5t-14 -40.5h-122z" />
<glyph unicode="&#xd6;" horiz-adv-x="1622" d="M129 545q0 98 24.5 206t73.5 212.5t122 199t169.5 166t217.5 114t265 42.5q113 0 215.5 -33t180.5 -102t124 -175t46 -253q0 -94 -23.5 -201t-71 -212t-119 -201t-168 -169.5t-218 -117.5t-267.5 -44q-121 0 -225.5 36.5t-181 108.5t-120.5 178t-44 245zM463 496 q0 -101 21.5 -173.5t59 -119t88.5 -68.5t109 -22q85 0 154.5 41t124.5 109.5t95.5 157t67 183.5t39.5 189.5t13 175.5q0 100 -21 172t-57.5 119t-87.5 69.5t-111 22.5q-85 0 -154.5 -41t-124.5 -109.5t-96 -157t-67.5 -184t-39.5 -190t-13 -174.5zM707 1724q0 66 33 105 t90 39q49 0 80.5 -28t31.5 -85q0 -40 -11 -67t-28 -44t-39 -24.5t-44 -7.5q-51 0 -82 27.5t-31 84.5zM1135 1724q0 66 33 105t90 39q49 0 80.5 -28t31.5 -85q0 -40 -11 -67t-28 -44t-39 -24.5t-44 -7.5q-51 0 -82 27.5t-31 84.5z" />
<glyph unicode="&#xdc;" horiz-adv-x="1530" d="M203 334q0 16 2 40t5 49.5t7 50t8 42.5l150 698q12 55 12 70q0 22 -11 36t-30.5 21.5t-46.5 10t-59 2.5h-27l23 108h708l-22 -108h-27q-34 0 -65.5 -4.5t-57.5 -17t-44.5 -36.5t-27.5 -63l-155 -721q-4 -18 -8.5 -40t-8 -45.5t-6 -47.5t-2.5 -45q0 -103 64 -156t188 -53 q93 0 157 27t107 74.5t69 113t42 143.5l158 740q3 17 5.5 35t2.5 26q0 22 -11 36t-30.5 21.5t-47 10t-59.5 2.5h-26l22 108h539l-23 -108h-26q-33 0 -64 -4.5t-57 -17.5t-44.5 -38t-27.5 -65l-164 -778q-24 -115 -71.5 -203t-121 -147.5t-173.5 -90t-230 -30.5 q-120 0 -212 23.5t-155 69t-95.5 111.5t-32.5 150zM721 1724q0 66 33 105t90 39q49 0 80.5 -28t31.5 -85q0 -40 -11 -67t-28 -44t-39 -24.5t-44 -7.5q-51 0 -82 27.5t-31 84.5zM1149 1724q0 66 33 105t90 39q49 0 80.5 -28t31.5 -85q0 -40 -11 -67t-28 -44t-39 -24.5 t-44 -7.5q-51 0 -82 27.5t-31 84.5z" />
<glyph unicode="&#xe4;" horiz-adv-x="1362" d="M82 354q0 80 18.5 167.5t55.5 172.5t91.5 162t126 135t159.5 92.5t192 34.5q40 0 81.5 -6.5t79.5 -16.5t71.5 -22.5t56.5 -25.5l108 49h109l-135 -639q-4 -17 -10 -45t-11.5 -59.5t-9.5 -61t-4 -49.5q0 -51 20 -76t52 -25q29 0 55.5 12.5t58.5 30.5l45 -82 q-26 -20 -59 -41.5t-73.5 -39.5t-88 -29.5t-102.5 -11.5q-91 0 -146 41.5t-55 121.5q0 32 3 62.5t11 70.5h-14q-38 -71 -75.5 -126.5t-83.5 -93t-102.5 -57t-131.5 -19.5q-73 0 -128 28.5t-91.5 78.5t-55 118.5t-18.5 148.5zM393 352q0 -59 8.5 -99t23 -64.5t35 -35 t44.5 -10.5q45 0 93 39t90 102.5t75.5 143.5t50.5 162l72 340q-20 29 -55.5 43t-75.5 14q-60 0 -109.5 -31t-89.5 -83t-70.5 -118t-51 -137t-30.5 -140t-10 -126zM424 1386q0 66 33 105t90 39q49 0 80.5 -28t31.5 -85q0 -40 -11 -67t-28 -44t-39 -24.5t-44 -7.5 q-51 0 -82 27.5t-31 84.5zM852 1386q0 66 33 105t90 39q49 0 80.5 -28t31.5 -85q0 -40 -11 -67t-28 -44t-39 -24.5t-44 -7.5q-51 0 -82 27.5t-31 84.5z" />
<glyph unicode="&#xf5;" horiz-adv-x="1266" d="M82 410q0 77 18 159t54.5 161t91.5 149.5t129.5 123.5t169 84t209.5 31q88 0 166 -24.5t136 -76.5t92 -133.5t34 -195.5q0 -74 -17 -155t-52.5 -159.5t-90 -150t-128.5 -125.5t-168 -86t-210 -32q-96 0 -176 26.5t-137 80t-89 134.5t-32 189zM395 360q0 -125 42 -179 t116 -54q55 0 99.5 31.5t80 83t61.5 117.5t42.5 136t25 137.5t8.5 121.5q0 121 -41.5 174t-113.5 53q-52 0 -96 -30t-79.5 -80t-62.5 -114.5t-45.5 -133.5t-27.5 -137.5t-9 -125.5zM398 1262q9 46 32.5 99.5t59.5 98.5t82.5 75t101.5 30q54 0 96.5 -20t78 -44.5t67 -44.5 t63.5 -20q26 0 45 9t32.5 24t22 34.5t13.5 40.5h123q-11 -49 -33.5 -102.5t-56 -98t-78 -73.5t-99.5 -29t-99 20t-81 44.5t-69.5 44.5t-65.5 20q-21 0 -40 -9t-34 -24t-25 -34.5t-14 -40.5h-122z" />
<glyph unicode="&#xf6;" horiz-adv-x="1266" d="M82 410q0 77 18 159t54.5 161t91.5 149.5t129.5 123.5t169 84t209.5 31q88 0 166 -24.5t136 -76.5t92 -133.5t34 -195.5q0 -74 -17 -155t-52.5 -159.5t-90 -150t-128.5 -125.5t-168 -86t-210 -32q-96 0 -176 26.5t-137 80t-89 134.5t-32 189zM395 360q0 -125 42 -179 t116 -54q55 0 99.5 31.5t80 83t61.5 117.5t42.5 136t25 137.5t8.5 121.5q0 121 -41.5 174t-113.5 53q-52 0 -96 -30t-79.5 -80t-62.5 -114.5t-45.5 -133.5t-27.5 -137.5t-9 -125.5zM455 1386q0 66 33 105t90 39q49 0 80.5 -28t31.5 -85q0 -40 -11 -67t-28 -44t-39 -24.5 t-44 -7.5q-51 0 -82 27.5t-31 84.5zM883 1386q0 66 33 105t90 39q49 0 80.5 -28t31.5 -85q0 -40 -11 -67t-28 -44t-39 -24.5t-44 -7.5q-51 0 -82 27.5t-31 84.5z" />
<glyph unicode="&#xfc;" horiz-adv-x="1378" d="M117 989l18 109h492l-135 -613q-6 -24 -12 -54t-11 -60t-8.5 -57t-3.5 -46q0 -45 19 -71.5t69 -26.5q45 0 92.5 40.5t91 105t77.5 144t52 156.5l109 482h305l-139 -666q-13 -56 -21 -104.5t-8 -91.5q0 -45 18.5 -69t53.5 -24q32 0 58.5 12t61.5 35l50 -69 q-25 -26 -56 -51.5t-69.5 -45.5t-85.5 -32t-103 -12q-68 0 -113.5 15.5t-73.5 42t-40 62t-12 76.5q0 9 1 21t2.5 25t3 24.5t3.5 19.5h-17q-45 -64 -88.5 -116t-92.5 -89.5t-106 -58t-130 -20.5q-66 0 -111 18.5t-72 49.5t-39 72.5t-12 86.5q0 51 12 112t23 113l74 361 q8 42 13 76t5 51q0 41 -25 54t-83 13h-37zM496 1386q0 66 33 105t90 39q49 0 80.5 -28t31.5 -85q0 -40 -11 -67t-28 -44t-39 -24.5t-44 -7.5q-51 0 -82 27.5t-31 84.5zM924 1386q0 66 33 105t90 39q49 0 80.5 -28t31.5 -85q0 -40 -11 -67t-28 -44t-39 -24.5t-44 -7.5 q-51 0 -82 27.5t-31 84.5z" />
<glyph unicode="&#x100;" horiz-adv-x="1542" d="M-100 0l22 109h43q28 0 49.5 6.5t41.5 24.5t41.5 49t49.5 79l695 1194h280l172 -1206q5 -32 13.5 -59t22.5 -46.5t35.5 -30.5t53.5 -11h37l-22 -109h-676l22 109h47q66 0 105 20.5t39 65.5q0 17 -1 33.5t-3 31.5l-31 221h-498l-100 -184q-20 -37 -29.5 -65t-9.5 -50 q0 -38 28 -55.5t87 -17.5h41l-23 -109h-532zM508 606h414l-37 344q-5 45 -9.5 84.5t-8 76.5t-6 72t-3.5 72q-15 -37 -30 -68.5t-32 -64t-37.5 -69t-47.5 -84.5zM691 1579l34 162h594l-34 -162h-594z" />
<glyph unicode="&#x101;" horiz-adv-x="1362" d="M82 354q0 80 18.5 167.5t55.5 172.5t91.5 162t126 135t159.5 92.5t192 34.5q40 0 81.5 -6.5t79.5 -16.5t71.5 -22.5t56.5 -25.5l108 49h109l-135 -639q-4 -17 -10 -45t-11.5 -59.5t-9.5 -61t-4 -49.5q0 -51 20 -76t52 -25q29 0 55.5 12.5t58.5 30.5l45 -82 q-26 -20 -59 -41.5t-73.5 -39.5t-88 -29.5t-102.5 -11.5q-91 0 -146 41.5t-55 121.5q0 32 3 62.5t11 70.5h-14q-38 -71 -75.5 -126.5t-83.5 -93t-102.5 -57t-131.5 -19.5q-73 0 -128 28.5t-91.5 78.5t-55 118.5t-18.5 148.5zM393 352q0 -59 8.5 -99t23 -64.5t35 -35 t44.5 -10.5q45 0 93 39t90 102.5t75.5 143.5t50.5 162l72 340q-20 29 -55.5 43t-75.5 14q-60 0 -109.5 -31t-89.5 -83t-70.5 -118t-51 -137t-30.5 -140t-10 -126zM461 1241l34 162h594l-34 -162h-594z" />
<glyph unicode="&#x104;" horiz-adv-x="1542" d="M-100 0l22 109h43q28 0 49.5 6.5t41.5 24.5t41.5 49t49.5 79l695 1194h280l172 -1206q5 -32 13.5 -59t22.5 -46.5t35.5 -30.5t53.5 -11h37l-22 -109h-676l22 109h47q66 0 105 20.5t39 65.5q0 17 -1 33.5t-3 31.5l-31 221h-498l-100 -184q-20 -37 -29.5 -65t-9.5 -50 q0 -38 28 -55.5t87 -17.5h41l-23 -109h-532zM508 606h414l-37 344q-5 45 -9.5 84.5t-8 76.5t-6 72t-3.5 72q-15 -37 -30 -68.5t-32 -64t-37.5 -69t-47.5 -84.5zM795 -283q0 55 22.5 100.5t62.5 81t95.5 61t122.5 40.5h158q-35 -10 -77.5 -30t-79.5 -50t-62 -70t-25 -90 q0 -48 32 -76t85 -28q28 0 61.5 4t71.5 12l-27 -131q-38 -15 -84 -24t-94 -9q-124 0 -193 53.5t-69 155.5z" />
<glyph unicode="&#x105;" horiz-adv-x="1362" d="M82 354q0 80 18.5 167.5t55.5 172.5t91.5 162t126 135t159.5 92.5t192 34.5q40 0 81.5 -6.5t79.5 -16.5t71.5 -22.5t56.5 -25.5l108 49h109l-135 -639q-4 -17 -10 -45t-11.5 -59.5t-9.5 -61t-4 -49.5q0 -51 20 -76t52 -25q29 0 55.5 12.5t58.5 30.5l45 -82 q-26 -20 -59 -41.5t-73.5 -39.5t-88 -29.5t-102.5 -11.5q-91 0 -146 41.5t-55 121.5q0 32 3 62.5t11 70.5h-14q-38 -71 -75.5 -126.5t-83.5 -93t-102.5 -57t-131.5 -19.5q-73 0 -128 28.5t-91.5 78.5t-55 118.5t-18.5 148.5zM393 352q0 -59 8.5 -99t23 -64.5t35 -35 t44.5 -10.5q45 0 93 39t90 102.5t75.5 143.5t50.5 162l72 340q-20 29 -55.5 43t-75.5 14q-60 0 -109.5 -31t-89.5 -83t-70.5 -118t-51 -137t-30.5 -140t-10 -126zM643 -283q0 55 22.5 100.5t62.5 81t95.5 61t122.5 40.5h158q-35 -10 -77.5 -30t-79.5 -50t-62 -70t-25 -90 q0 -48 32 -76t85 -28q28 0 61.5 4t71.5 12l-27 -131q-38 -15 -84 -24t-94 -9q-124 0 -193 53.5t-69 155.5z" />
<glyph unicode="&#x10c;" horiz-adv-x="1368" d="M129 530q0 123 29 242t84 226t134.5 197t180 156t220.5 103t257 37q102 0 178.5 -17.5t127 -49t75.5 -77t25 -100.5q0 -45 -22 -79t-60.5 -57.5t-91.5 -35.5t-115 -12q0 43 -6 95t-24.5 97t-52.5 75t-91 30q-81 0 -149.5 -37t-125 -100.5t-100 -147.5t-73 -177.5 t-45 -191t-15.5 -188.5q0 -175 89 -270.5t265 -95.5q71 0 128 16t102 42.5t79 59.5t60 68q12 -9 23.5 -28t11.5 -42q0 -51 -31 -102.5t-91.5 -93t-149.5 -67t-205 -25.5q-147 0 -262.5 36.5t-195 107t-121.5 173t-42 233.5zM731 1880l6 27h129q18 -17 41.5 -40t48.5 -48.5 t49.5 -50.5t42.5 -46q28 21 62 46t68.5 50.5t67.5 48.5t58 40h160l-6 -27q-30 -29 -68.5 -66.5t-78 -77.5t-77.5 -80.5t-67 -76.5h-276q-13 31 -33 71t-42.5 81.5t-44.5 80.5t-40 68z" />
<glyph unicode="&#x10d;" horiz-adv-x="1081" d="M82 403q0 76 19 158.5t57 162t94.5 151t131.5 125.5t168 86t204 32q85 0 146.5 -17.5t101 -47t58.5 -69t19 -83.5q0 -32 -13.5 -62.5t-43.5 -55t-77.5 -39.5t-115.5 -15q0 54 -9.5 102.5t-28.5 85t-46.5 57.5t-64.5 21q-44 0 -82.5 -29.5t-70.5 -78t-56.5 -111t-42 -129 t-26.5 -131t-9 -117.5q0 -125 57 -194.5t169 -69.5q54 0 97.5 14.5t78.5 38.5t62 54t48 61q13 -12 22 -35.5t9 -54.5q0 -40 -23.5 -81.5t-73 -75t-125.5 -55t-181 -21.5q-93 0 -175.5 26t-144 79t-97.5 132t-36 186zM436 1542l6 27h129q18 -17 41.5 -40t48.5 -48.5 t49.5 -50.5t42.5 -46q28 21 62 46t68.5 50.5t67.5 48.5t58 40h160l-6 -27q-30 -29 -68.5 -66.5t-78 -77.5t-77.5 -80.5t-67 -76.5h-276q-13 31 -33 71t-42.5 81.5t-44.5 80.5t-40 68z" />
<glyph unicode="&#x112;" horiz-adv-x="1296" d="M-47 0l22 109h27q32 0 62.5 4t55.5 17t43.5 37t26.5 64l213 1006q4 11 6.5 25t2.5 22q0 22 -11 36t-30.5 21.5t-47 10t-59.5 2.5h-26l22 108h1112l-72 -381h-145q1 7 2.5 25t3 37.5t3 36t1.5 20.5q0 28 -8 53t-25 44t-44.5 29.5t-67.5 10.5h-272l-109 -512h465l-27 -123 h-465l-123 -577h324q48 0 86 13.5t66 36.5t47.5 53.5t31.5 64.5l33 88h146l-95 -381h-1175zM588 1579l34 162h594l-34 -162h-594z" />
<glyph unicode="&#x113;" horiz-adv-x="1096" d="M82 403q0 76 20 159t59.5 162.5t98 151t135.5 125.5t172.5 85.5t208.5 31.5q147 0 228 -63.5t81 -177.5q0 -83 -46 -159t-127 -133.5t-193 -91.5t-244 -34h-37t-39 2q-3 -20 -3.5 -40.5t-0.5 -37.5q0 -119 55.5 -183.5t167.5 -64.5q50 0 95 14.5t83.5 38t69 53t52.5 60.5 q12 -15 19 -38.5t7 -49.5q0 -37 -24 -78t-73.5 -75.5t-126 -57t-181.5 -22.5q-94 0 -177 26t-145.5 78.5t-98.5 132t-36 186.5zM414 578h18q76 0 141.5 20t114 57.5t76 89.5t27.5 117q0 63 -26.5 98t-74.5 35q-50 0 -95 -37.5t-81 -97.5t-62 -134.5t-38 -147.5zM463 1241 l34 162h594l-34 -162h-594z" />
<glyph unicode="&#x116;" horiz-adv-x="1296" d="M-47 0l22 109h27q32 0 62.5 4t55.5 17t43.5 37t26.5 64l213 1006q4 11 6.5 25t2.5 22q0 22 -11 36t-30.5 21.5t-47 10t-59.5 2.5h-26l22 108h1112l-72 -381h-145q1 7 2.5 25t3 37.5t3 36t1.5 20.5q0 28 -8 53t-25 44t-44.5 29.5t-67.5 10.5h-272l-109 -512h465l-27 -123 h-465l-123 -577h324q48 0 86 13.5t66 36.5t47.5 53.5t31.5 64.5l33 88h146l-95 -381h-1175zM702 1718q0 45 15.5 76.5t41.5 52t61 30t73 9.5q33 0 62.5 -7t52 -23t36 -40.5t13.5 -58.5q0 -42 -16.5 -73.5t-44 -52t-62.5 -30.5t-72 -10q-34 0 -63 7.5t-50.5 23.5t-34 40 t-12.5 56z" />
<glyph unicode="&#x117;" horiz-adv-x="1096" d="M82 403q0 76 20 159t59.5 162.5t98 151t135.5 125.5t172.5 85.5t208.5 31.5q147 0 228 -63.5t81 -177.5q0 -83 -46 -159t-127 -133.5t-193 -91.5t-244 -34h-37t-39 2q-3 -20 -3.5 -40.5t-0.5 -37.5q0 -119 55.5 -183.5t167.5 -64.5q50 0 95 14.5t83.5 38t69 53t52.5 60.5 q12 -15 19 -38.5t7 -49.5q0 -37 -24 -78t-73.5 -75.5t-126 -57t-181.5 -22.5q-94 0 -177 26t-145.5 78.5t-98.5 132t-36 186.5zM414 578h18q76 0 141.5 20t114 57.5t76 89.5t27.5 117q0 63 -26.5 98t-74.5 35q-50 0 -95 -37.5t-81 -97.5t-62 -134.5t-38 -147.5zM583 1409 q0 45 15.5 76.5t41.5 52t61 30t73 9.5q33 0 62.5 -7t52 -23t36 -40.5t13.5 -58.5q0 -42 -16.5 -73.5t-44 -52t-62.5 -30.5t-72 -10q-34 0 -63 7.5t-50.5 23.5t-34 40t-12.5 56z" />
<glyph unicode="&#x118;" horiz-adv-x="1296" d="M-47 0l22 109h27q32 0 62.5 4t55.5 17t43.5 37t26.5 64l213 1006q4 11 6.5 25t2.5 22q0 22 -11 36t-30.5 21.5t-47 10t-59.5 2.5h-26l22 108h1112l-72 -381h-145q1 7 2.5 25t3 37.5t3 36t1.5 20.5q0 28 -8 53t-25 44t-44.5 29.5t-67.5 10.5h-272l-109 -512h465l-27 -123 h-465l-123 -577h324q48 0 86 13.5t66 36.5t47.5 53.5t31.5 64.5l33 88h146l-95 -381h-1175zM608 -283q0 55 22.5 100.5t62.5 81t95.5 61t122.5 40.5h158q-35 -10 -77.5 -30t-79.5 -50t-62 -70t-25 -90q0 -48 32 -76t85 -28q28 0 61.5 4t71.5 12l-27 -131q-38 -15 -84 -24 t-94 -9q-124 0 -193 53.5t-69 155.5z" />
<glyph unicode="&#x119;" horiz-adv-x="1096" d="M82 403q0 76 20 159t59.5 162.5t98 151t135.5 125.5t172.5 85.5t208.5 31.5q147 0 228 -63.5t81 -177.5q0 -83 -46 -159t-127 -133.5t-193 -91.5t-244 -34h-37t-39 2q-3 -20 -3.5 -40.5t-0.5 -37.5q0 -119 55.5 -183.5t167.5 -64.5q50 0 95 14.5t83.5 38t69 53t52.5 60.5 q12 -15 19 -38.5t7 -49.5q0 -37 -24 -78t-73.5 -75.5t-126 -57t-181.5 -22.5q-94 0 -177 26t-145.5 78.5t-98.5 132t-36 186.5zM336 -252q0 55 22.5 100.5t62.5 81t95.5 61t122.5 40.5h158q-35 -10 -77.5 -30t-79.5 -50t-62 -70t-25 -90q0 -48 32 -76t85 -28q28 0 61.5 4 t71.5 12l-27 -131q-38 -15 -84 -24t-94 -9q-124 0 -193 53.5t-69 155.5zM414 578h18q76 0 141.5 20t114 57.5t76 89.5t27.5 117q0 63 -26.5 98t-74.5 35q-50 0 -95 -37.5t-81 -97.5t-62 -134.5t-38 -147.5z" />
<glyph unicode="&#x122;" horiz-adv-x="1630" d="M129 528q0 132 31 254.5t89 228.5t142 193t189 149t230.5 96t266.5 34q118 0 205 -21t145 -55t86.5 -78t28.5 -90q0 -40 -23.5 -74.5t-63.5 -60t-94.5 -40.5t-115.5 -15q0 64 -13.5 119.5t-42 96.5t-72 64t-103.5 23q-78 0 -149 -32t-132 -89t-110.5 -136t-84.5 -173 t-54 -200.5t-19 -217.5q0 -86 17 -156.5t54.5 -121.5t96 -79t141.5 -28q47 0 96 8t86 20l68 304q12 54 12 69q0 22 -11 36t-30.5 21.5t-46.5 10t-59 2.5h-27l23 108h682l-23 -108h-2q-34 0 -65.5 -4.5t-57 -17.5t-44.5 -38t-27 -65l-78 -391q-62 -24 -121.5 -41.5 t-121 -29.5t-126.5 -17.5t-137 -5.5q-158 0 -276.5 38t-198.5 109t-120 172.5t-40 228.5zM492 -453l6 27q34 71 67 149t58 152h258l-6 -20q-21 -32 -50.5 -71t-64 -80t-72 -81.5t-73.5 -75.5h-123z" />
<glyph unicode="&#x123;" horiz-adv-x="1188" d="M-119 -231q0 54 27.5 98t73.5 76.5t105 54.5t122 33q-20 10 -39 27.5t-33.5 40t-23.5 48t-9 52.5q0 32 13 60t40 55t69 54.5t100 59.5q-68 32 -106 95t-38 151q0 71 31.5 149.5t95 144t159.5 108t226 42.5q68 0 127.5 -15.5t104.5 -49.5q23 29 49 54.5t55 44t62 29.5 t71 11q63 0 92 -30.5t29 -78.5q0 -25 -6.5 -51t-21.5 -47t-40.5 -34t-62.5 -13q0 42 -18.5 65t-53.5 23q-28 0 -51 -10t-43 -27q22 -29 36.5 -73t14.5 -91q0 -45 -13 -94.5t-39 -98t-66 -93t-95 -78.5t-125 -54t-155 -20q-9 0 -23.5 0.5t-29.5 1t-29 1.5t-23 3 q-48 -21 -80 -48.5t-32 -59.5q0 -17 8.5 -28t23 -17.5t34.5 -10.5t44 -6l230 -22q150 -14 233.5 -81.5t83.5 -197.5q0 -93 -42.5 -169.5t-124 -130.5t-200 -84t-270.5 -30q-125 0 -213.5 18.5t-144.5 52.5t-82.5 82.5t-26.5 107.5zM125 -217q0 -32 11.5 -59.5t40 -48 t78 -32.5t124.5 -12q90 0 154.5 16t106 43t61.5 62.5t20 73.5q0 58 -44.5 89t-150.5 40l-182 16q-45 -6 -84.5 -23t-69.5 -42t-47.5 -56.5t-17.5 -66.5zM440 653q0 -75 29 -108t82 -33q36 0 66 17t54 45t42 63.5t29.5 73.5t17.5 74.5t6 66.5q0 72 -28.5 105.5t-82.5 33.5 q-53 0 -93 -35t-67 -87t-41 -110.5t-14 -105.5zM594 1241l6 21q21 32 51 71t64.5 80t72 81t73.5 75h122l-6 -27q-34 -71 -67 -149t-58 -152h-258z" />
<glyph unicode="&#x12a;" horiz-adv-x="821" d="M-47 0l22 109h27q32 0 62.5 4t55.5 17t43.5 37t26.5 64l213 1006q4 11 6.5 25t2.5 22q0 22 -11 36t-30.5 21.5t-47 10t-59.5 2.5h-26l22 108h707l-23 -108h-26q-34 0 -65.5 -4.5t-57.5 -17.5t-45 -38t-27 -65l-211 -1004q-2 -11 -5 -25t-3 -22q0 -22 11 -35.5t31 -21 t47.5 -10t59.5 -2.5h27l-23 -109h-704zM325 1579l34 162h594l-34 -162h-594z" />
<glyph unicode="&#x12b;" horiz-adv-x="725" d="M117 989l18 109h486l-142 -666q-12 -56 -20 -104.5t-8 -91.5q0 -45 18.5 -69t52.5 -24q32 0 59 12t62 35l49 -69q-24 -26 -55 -51.5t-70 -45.5t-85.5 -32t-102.5 -12q-118 0 -181 55.5t-63 154.5q0 44 8 105t25 139l80 381q3 13 5.5 27t4.5 26.5t3 21.5t1 13q0 28 -6 45 t-19 26t-33.5 12t-49.5 3h-37zM137 1241l34 162h594l-34 -162h-594z" />
<glyph unicode="&#x12e;" horiz-adv-x="821" d="M-47 0l22 109h27q32 0 62.5 4t55.5 17t43.5 37t26.5 64l213 1006q4 11 6.5 25t2.5 22q0 22 -11 36t-30.5 21.5t-47 10t-59.5 2.5h-26l22 108h707l-23 -108h-26q-34 0 -65.5 -4.5t-57.5 -17.5t-45 -38t-27 -65l-211 -1004q-2 -11 -5 -25t-3 -22q0 -22 11 -35.5t31 -21 t47.5 -10t59.5 -2.5h27l-23 -109h-704zM32 -283q0 55 22.5 100.5t62.5 81t95.5 61t122.5 40.5h158q-35 -10 -77.5 -30t-79.5 -50t-62 -70t-25 -90q0 -48 32 -76t85 -28q28 0 61.5 4t71.5 12l-27 -131q-38 -15 -84 -24t-94 -9q-124 0 -193 53.5t-69 155.5z" />
<glyph unicode="&#x12f;" horiz-adv-x="725" d="M50 -283q0 55 22.5 100.5t62.5 81t95.5 61t122.5 40.5h158q-35 -10 -77.5 -30t-79.5 -50t-62 -70t-25 -90q0 -48 32 -76t85 -28q28 0 61.5 4t71.5 12l-27 -131q-38 -15 -84 -24t-94 -9q-124 0 -193 53.5t-69 155.5zM117 989l18 109h486l-142 -666q-12 -56 -20 -104.5 t-8 -91.5q0 -45 18.5 -69t52.5 -24q32 0 59 12t62 35l49 -69q-24 -26 -55 -51.5t-70 -45.5t-85.5 -32t-102.5 -12q-118 0 -181 55.5t-63 154.5q0 44 8 105t25 139l80 381q3 13 5.5 27t4.5 26.5t3 21.5t1 13q0 28 -6 45t-19 26t-33.5 12t-49.5 3h-37zM319 1409 q0 45 15.5 76.5t41.5 52t61 30t73 9.5q33 0 62.5 -7t52 -23t36 -40.5t13.5 -58.5q0 -42 -16.5 -73.5t-44 -52t-62.5 -30.5t-72 -10q-34 0 -63 7.5t-50.5 23.5t-34 40t-12.5 56z" />
<glyph unicode="&#x136;" horiz-adv-x="1518" d="M-47 0l22 109h27q32 0 62.5 4t55.5 17t43.5 37t26.5 64l209 983q13 53 13 70q0 22 -11 36t-30.5 21.5t-47 10t-59.5 2.5h-26l22 108h707l-23 -108h-26q-34 0 -65.5 -4.5t-57.5 -17.5t-45 -38t-27 -65l-102 -486l415 367q42 37 68.5 66.5t42 53t21.5 41.5t6 32 q0 26 -20 39.5t-71 13.5l23 106h553l-23 -106q-41 0 -79 -10t-77 -31t-81.5 -53t-91.5 -76l-332 -293l239 -576q25 -57 45.5 -97t42 -64.5t47 -35.5t60.5 -11h6l-20 -109h-107q-102 0 -169.5 12.5t-114 44.5t-79 86.5t-65.5 139.5l-151 391l-121 -86l-76 -363q-2 -11 -5 -25 t-3 -22q0 -22 11 -35.5t31 -21t47.5 -10t59.5 -2.5h27l-23 -109h-704zM469 -453l6 27q34 71 67 149t58 152h258l-6 -20q-21 -32 -50.5 -71t-64 -80t-72 -81.5t-73.5 -75.5h-123z" />
<glyph unicode="&#x137;" horiz-adv-x="1223" d="M43 0l270 1274q3 13 6 27t5 26.5t3 21.5t1 13q0 28 -6 45t-19 26t-34 12t-50 3h-43l19 108h495l-108 -499q-18 -81 -31.5 -144.5t-27 -120.5t-28 -114t-32.5 -125l319 289q25 22 40 39t23.5 29.5t11.5 22t3 17.5q0 22 -25 33.5t-71 11.5l20 103h516l-20 -103 q-71 0 -149 -41.5t-177 -132.5l-163 -151l153 -334q33 -72 64 -116t58 -69t50 -33.5t41 -8.5h8l-22 -109h-105q-75 0 -134 10.5t-104 34t-77 60t-53 88.5l-121 286l-111 -71l-88 -408h-307zM288 -453l6 27q34 71 67 149t58 152h258l-6 -20q-21 -32 -50.5 -71t-64 -80 t-72 -81.5t-73.5 -75.5h-123z" />
<glyph unicode="&#x13b;" horiz-adv-x="1339" d="M-47 0l22 109h27q32 0 62.5 4t55.5 17t43.5 37t26.5 64l209 983q13 53 13 70q0 22 -11 36t-30.5 21.5t-47 10t-59.5 2.5h-26l22 108h707l-23 -108h-26q-34 0 -65.5 -4.5t-57.5 -17.5t-45 -38t-27 -65l-231 -1104h342q56 0 97 14t71.5 41.5t53.5 69.5t42 98l37 109h131 l-113 -457h-1200zM358 -453l6 27q34 71 67 149t58 152h258l-6 -20q-21 -32 -50.5 -71t-64 -80t-72 -81.5t-73.5 -75.5h-123z" />
<glyph unicode="&#x13c;" horiz-adv-x="725" d="M3 -453l6 27q34 71 67 149t58 152h258l-6 -20q-21 -32 -50.5 -71t-64 -80t-72 -81.5t-73.5 -75.5h-123zM102 190q0 88 33 244l178 840q3 13 6 27t5 26.5t3 21.5t1 13q0 28 -6 45t-19 26t-34 12t-50 3h-43l19 108h495l-244 -1124q-12 -56 -20 -104.5t-8 -91.5 q0 -45 18.5 -69t52.5 -24q32 0 59 12t62 35l49 -69q-24 -26 -55 -51.5t-69.5 -45.5t-85.5 -32t-103 -12q-118 0 -181 55.5t-63 154.5z" />
<glyph unicode="&#x145;" horiz-adv-x="1614" d="M-47 0l22 109h27q32 0 62.5 4t55.5 17t43.5 37t26.5 64l209 983q13 53 13 70q0 22 -11 36t-30.5 21.5t-47 10t-59.5 2.5h-26l22 108h455l499 -1050l172 809q11 47 11 63q0 22 -11.5 36t-31.5 21.5t-47.5 10t-59.5 2.5h-6l23 108h516l-23 -108h-26q-32 0 -62.5 -4.5 t-55.5 -17.5t-43.5 -37t-27.5 -64l-260 -1231h-188l-555 1159l-193 -917q-5 -23 -7.5 -39.5t-2.5 -24.5q0 -22 11 -35.5t31 -21t47.5 -10t59.5 -2.5h7l-23 -109h-516zM430 -453l6 27q34 71 67 149t58 152h258l-6 -20q-21 -32 -50.5 -71t-64 -80t-72 -81.5t-73.5 -75.5h-123z " />
<glyph unicode="&#x146;" horiz-adv-x="1376" d="M76 0l172 815q3 13 5.5 27t4.5 26.5t3 21.5t1 13q0 28 -6 45t-19 26t-33.5 12t-49.5 3h-37l18 109h455l-23 -219h13q39 61 80.5 106t89.5 74.5t104.5 44t124.5 14.5q65 0 109.5 -19t72 -51.5t39.5 -75t12 -89.5q0 -26 -3.5 -55.5t-9 -59.5t-12 -60t-11.5 -57l-46 -219 q-12 -56 -20 -104.5t-8 -91.5q0 -45 18.5 -69t53.5 -24q32 0 58.5 12t61.5 35l49 -69q-24 -26 -55 -51.5t-69.5 -45.5t-85.5 -32t-103 -12q-118 0 -181 55.5t-63 154.5q0 88 33 244l33 162q4 20 10 49t12 60.5t10.5 63t4.5 56.5q0 19 -3.5 40t-13 38t-26 28t-43.5 11 q-35 0 -69.5 -23.5t-66.5 -62t-61 -88t-52.5 -101.5t-40.5 -102t-26 -90l-104 -475h-307zM358 -453l6 27q34 71 67 149t58 152h258l-6 -20q-21 -32 -50.5 -71t-64 -80t-72 -81.5t-73.5 -75.5h-123z" />
<glyph unicode="&#x14c;" horiz-adv-x="1622" d="M129 545q0 98 24.5 206t73.5 212.5t122 199t169.5 166t217.5 114t265 42.5q113 0 215.5 -33t180.5 -102t124 -175t46 -253q0 -94 -23.5 -201t-71 -212t-119 -201t-168 -169.5t-218 -117.5t-267.5 -44q-121 0 -225.5 36.5t-181 108.5t-120.5 178t-44 245zM463 496 q0 -101 21.5 -173.5t59 -119t88.5 -68.5t109 -22q85 0 154.5 41t124.5 109.5t95.5 157t67 183.5t39.5 189.5t13 175.5q0 100 -21 172t-57.5 119t-87.5 69.5t-111 22.5q-85 0 -154.5 -41t-124.5 -109.5t-96 -157t-67.5 -184t-39.5 -190t-13 -174.5zM701 1579l34 162h594 l-34 -162h-594z" />
<glyph unicode="&#x14d;" horiz-adv-x="1266" d="M82 410q0 77 18 159t54.5 161t91.5 149.5t129.5 123.5t169 84t209.5 31q88 0 166 -24.5t136 -76.5t92 -133.5t34 -195.5q0 -74 -17 -155t-52.5 -159.5t-90 -150t-128.5 -125.5t-168 -86t-210 -32q-96 0 -176 26.5t-137 80t-89 134.5t-32 189zM395 360q0 -125 42 -179 t116 -54q55 0 99.5 31.5t80 83t61.5 117.5t42.5 136t25 137.5t8.5 121.5q0 121 -41.5 174t-113.5 53q-52 0 -96 -30t-79.5 -80t-62.5 -114.5t-45.5 -133.5t-27.5 -137.5t-9 -125.5zM455 1241l34 162h594l-34 -162h-594z" />
<glyph unicode="&#x160;" horiz-adv-x="1200" d="M29 279q0 48 19.5 84t55 60t84 36t107.5 12q0 -94 20 -163t56 -114.5t86 -67.5t110 -22q58 0 103 16.5t76.5 45t48 67t16.5 82.5q0 43 -10.5 79t-38.5 70t-77 69t-126 77q-80 44 -140.5 90.5t-101 100.5t-61 118.5t-20.5 145.5q0 92 37 169t106 132.5t167 86t220 30.5 q114 0 199 -18t141.5 -49t84.5 -73t28 -90q0 -83 -63 -130.5t-206 -47.5q0 46 -9 96t-32 91.5t-62 68.5t-99 27q-41 0 -81.5 -13t-72.5 -39t-52 -65.5t-20 -93.5t17 -92t51 -70.5t85 -63t120 -67.5q155 -84 229 -185.5t74 -232.5q0 -109 -39.5 -194t-113 -143t-177.5 -88.5 t-233 -30.5q-127 0 -222 23t-158 63t-94.5 94.5t-31.5 118.5zM485 1880l6 27h129q18 -17 41.5 -40t48.5 -48.5t49.5 -50.5t42.5 -46q28 21 62 46t68.5 50.5t67.5 48.5t58 40h160l-6 -27q-30 -29 -68.5 -66.5t-78 -77.5t-77.5 -80.5t-67 -76.5h-276q-13 31 -33 71t-42.5 81.5 t-44.5 80.5t-40 68z" />
<glyph unicode="&#x161;" horiz-adv-x="1053" d="M35 205q0 48 19 81t49.5 53.5t70 30t80.5 9.5q0 -55 11 -105t35 -88.5t62.5 -61t94.5 -22.5q42 0 78 10.5t62 30t41 48t15 65.5q0 35 -13.5 62t-42 50.5t-72 46.5t-103.5 52q-60 28 -108.5 60t-82.5 71t-52.5 87t-18.5 108q0 75 32 135t92 102.5t145.5 65t193.5 22.5 q103 0 174.5 -16t116 -42.5t64 -61.5t19.5 -72q0 -82 -63 -119t-172 -37q0 41 -8 82.5t-27 75.5t-49 55t-74 21q-40 0 -71.5 -11.5t-54 -31t-34.5 -45.5t-12 -56q0 -34 13.5 -59t42 -47t72.5 -43.5t104 -48.5q66 -30 114 -63.5t79.5 -73t47 -86t15.5 -103.5 q0 -83 -31.5 -149t-94.5 -112t-156 -70.5t-216 -24.5q-88 0 -159.5 15t-122 44t-78 71t-27.5 95zM325 1542l6 27h129q18 -17 41.5 -40t48.5 -48.5t49.5 -50.5t42.5 -46q28 21 62 46t68.5 50.5t67.5 48.5t58 40h160l-6 -27q-30 -29 -68.5 -66.5t-78 -77.5t-77.5 -80.5 t-67 -76.5h-276q-13 31 -33 71t-42.5 81.5t-44.5 80.5t-40 68z" />
<glyph unicode="&#x16a;" horiz-adv-x="1530" d="M203 334q0 16 2 40t5 49.5t7 50t8 42.5l150 698q12 55 12 70q0 22 -11 36t-30.5 21.5t-46.5 10t-59 2.5h-27l23 108h708l-22 -108h-27q-34 0 -65.5 -4.5t-57.5 -17t-44.5 -36.5t-27.5 -63l-155 -721q-4 -18 -8.5 -40t-8 -45.5t-6 -47.5t-2.5 -45q0 -103 64 -156t188 -53 q93 0 157 27t107 74.5t69 113t42 143.5l158 740q3 17 5.5 35t2.5 26q0 22 -11 36t-30.5 21.5t-47 10t-59.5 2.5h-26l22 108h539l-23 -108h-26q-33 0 -64 -4.5t-57 -17.5t-44.5 -38t-27.5 -65l-164 -778q-24 -115 -71.5 -203t-121 -147.5t-173.5 -90t-230 -30.5 q-120 0 -212 23.5t-155 69t-95.5 111.5t-32.5 150zM693 1579l34 162h594l-34 -162h-594z" />
<glyph unicode="&#x16b;" horiz-adv-x="1378" d="M117 989l18 109h492l-135 -613q-6 -24 -12 -54t-11 -60t-8.5 -57t-3.5 -46q0 -45 19 -71.5t69 -26.5q45 0 92.5 40.5t91 105t77.5 144t52 156.5l109 482h305l-139 -666q-13 -56 -21 -104.5t-8 -91.5q0 -45 18.5 -69t53.5 -24q32 0 58.5 12t61.5 35l50 -69 q-25 -26 -56 -51.5t-69.5 -45.5t-85.5 -32t-103 -12q-68 0 -113.5 15.5t-73.5 42t-40 62t-12 76.5q0 9 1 21t2.5 25t3 24.5t3.5 19.5h-17q-45 -64 -88.5 -116t-92.5 -89.5t-106 -58t-130 -20.5q-66 0 -111 18.5t-72 49.5t-39 72.5t-12 86.5q0 51 12 112t23 113l74 361 q8 42 13 76t5 51q0 41 -25 54t-83 13h-37zM496 1241l34 162h594l-34 -162h-594z" />
<glyph unicode="&#x172;" horiz-adv-x="1530" d="M203 334q0 16 2 40t5 49.5t7 50t8 42.5l150 698q12 55 12 70q0 22 -11 36t-30.5 21.5t-46.5 10t-59 2.5h-27l23 108h708l-22 -108h-27q-34 0 -65.5 -4.5t-57.5 -17t-44.5 -36.5t-27.5 -63l-155 -721q-4 -18 -8.5 -40t-8 -45.5t-6 -47.5t-2.5 -45q0 -103 64 -156t188 -53 q93 0 157 27t107 74.5t69 113t42 143.5l158 740q3 17 5.5 35t2.5 26q0 22 -11 36t-30.5 21.5t-47 10t-59.5 2.5h-26l22 108h539l-23 -108h-26q-33 0 -64 -4.5t-57 -17.5t-44.5 -38t-27.5 -65l-164 -778q-24 -115 -71.5 -203t-121 -147.5t-173.5 -90t-230 -30.5 q-120 0 -212 23.5t-155 69t-95.5 111.5t-32.5 150zM422 -283q0 55 22.5 100.5t62.5 81t95.5 61t122.5 40.5h158q-35 -10 -77.5 -30t-79.5 -50t-62 -70t-25 -90q0 -48 32 -76t85 -28q28 0 61.5 4t71.5 12l-27 -131q-38 -15 -84 -24t-94 -9q-124 0 -193 53.5t-69 155.5z" />
<glyph unicode="&#x173;" horiz-adv-x="1378" d="M117 989l18 109h492l-135 -613q-6 -24 -12 -54t-11 -60t-8.5 -57t-3.5 -46q0 -45 19 -71.5t69 -26.5q45 0 92.5 40.5t91 105t77.5 144t52 156.5l109 482h305l-139 -666q-13 -56 -21 -104.5t-8 -91.5q0 -45 18.5 -69t53.5 -24q32 0 58.5 12t61.5 35l50 -69 q-25 -26 -56 -51.5t-69.5 -45.5t-85.5 -32t-103 -12q-68 0 -113.5 15.5t-73.5 42t-40 62t-12 76.5q0 9 1 21t2.5 25t3 24.5t3.5 19.5h-17q-45 -64 -88.5 -116t-92.5 -89.5t-106 -58t-130 -20.5q-66 0 -111 18.5t-72 49.5t-39 72.5t-12 86.5q0 51 12 112t23 113l74 361 q8 42 13 76t5 51q0 41 -25 54t-83 13h-37zM700 -283q0 55 22.5 100.5t62.5 81t95.5 61t122.5 40.5h158q-35 -10 -77.5 -30t-79.5 -50t-62 -70t-25 -90q0 -48 32 -76t85 -28q28 0 61.5 4t71.5 12l-27 -131q-38 -15 -84 -24t-94 -9q-124 0 -193 53.5t-69 155.5z" />
<glyph unicode="&#x17d;" horiz-adv-x="1364" d="M-4 0l18 102l1010 1235h-356q-93 0 -149.5 -42t-82.5 -136l-35 -119h-147l100 422h1090l-21 -104l-1011 -1233h422q46 0 87 12t75 38t61 68.5t45 104.5l22 74h148l-98 -422h-1178zM606 1880l6 27h129q18 -17 41.5 -40t48.5 -48.5t49.5 -50.5t42.5 -46q28 21 62 46 t68.5 50.5t67.5 48.5t58 40h160l-6 -27q-30 -29 -68.5 -66.5t-78 -77.5t-77.5 -80.5t-67 -76.5h-276q-13 31 -33 71t-42.5 81.5t-44.5 80.5t-40 68z" />
<glyph unicode="&#x17e;" horiz-adv-x="1143" d="M0 0l23 104l684 854h-261q-41 0 -69 -13.5t-49.5 -37.5t-39 -58t-36.5 -75l-4 -8h-125l90 332h879l-23 -107l-686 -852h332q35 0 62 16.5t47.5 43t36.5 59.5t30 66l20 47h119l-88 -371h-942zM370 1542l6 27h129q18 -17 41.5 -40t48.5 -48.5t49.5 -50.5t42.5 -46 q28 21 62 46t68.5 50.5t67.5 48.5t58 40h160l-6 -27q-30 -29 -68.5 -66.5t-78 -77.5t-77.5 -80.5t-67 -76.5h-276q-13 31 -33 71t-42.5 81.5t-44.5 80.5t-40 68z" />
<glyph unicode="&#x2c6;" horiz-adv-x="1182" d="M324 1241l6 27q30 29 68 66.5t78 77.5t78 80.5t67 76.5h276q13 -32 33 -72t42.5 -81t44.5 -80t40 -68l-6 -27h-129q-18 17 -42 40t-49 48t-49.5 50t-42.5 46q-27 -21 -61 -46t-69 -50t-68 -48t-58 -40h-159z" />
<glyph unicode="&#x2da;" horiz-adv-x="682" d="M258 1432q0 54 19 96t52.5 70t78.5 42.5t96 14.5t96 -14.5t78.5 -42.5t52.5 -70t19 -96q0 -55 -19 -96.5t-52.5 -70t-78.5 -43t-96 -14.5t-96 14.5t-78.5 43t-52.5 70t-19 96.5zM383 1432q0 -30 9.5 -51t26 -34.5t38.5 -19.5t47 -6q24 0 46 6t38.5 19.5t26.5 34.5t10 51 t-10 50.5t-26.5 34t-38.5 19.5t-46 6q-25 0 -47 -6t-38.5 -19.5t-26 -34t-9.5 -50.5z" />
<glyph unicode="&#x2dc;" horiz-adv-x="1182" d="M324 1262q9 46 32.5 99.5t59.5 98.5t82.5 75t101.5 30q54 0 96.5 -20t78 -44.5t67 -44.5t63.5 -20q26 0 45 9t32.5 24t22 34.5t13.5 40.5h123q-11 -49 -33.5 -102.5t-56 -98t-78 -73.5t-99.5 -29t-99 20t-81 44.5t-69.5 44.5t-65.5 20q-21 0 -40 -9t-34 -24t-25 -34.5 t-14 -40.5h-122z" />
<glyph unicode="&#x400;" horiz-adv-x="1296" d="M-47 0l22 109h27q32 0 62.5 4t55.5 17t43.5 37t26.5 64l213 1006q4 11 6.5 25t2.5 22q0 22 -11 36t-30.5 21.5t-47 10t-59.5 2.5h-26l22 108h1112l-72 -381h-145q1 7 2.5 25t3 37.5t3 36t1.5 20.5q0 28 -8 53t-25 44t-44.5 29.5t-67.5 10.5h-272l-109 -512h465l-27 -123 h-465l-123 -577h324q48 0 86 13.5t66 36.5t47.5 53.5t31.5 64.5l33 88h146l-95 -381h-1175zM537 1886l6 21h301q12 -37 31.5 -80t40.5 -84t42.5 -77t38.5 -60l-6 -27h-121q-44 26 -93.5 66t-95.5 83.5t-84.5 85.5t-59.5 72z" />
<glyph unicode="&#x401;" horiz-adv-x="1296" d="M-47 0l22 109h27q32 0 62.5 4t55.5 17t43.5 37t26.5 64l213 1006q4 11 6.5 25t2.5 22q0 22 -11 36t-30.5 21.5t-47 10t-59.5 2.5h-26l22 108h1112l-72 -381h-145q1 7 2.5 25t3 37.5t3 36t1.5 20.5q0 28 -8 53t-25 44t-44.5 29.5t-67.5 10.5h-272l-109 -512h465l-27 -123 h-465l-123 -577h324q48 0 86 13.5t66 36.5t47.5 53.5t31.5 64.5l33 88h146l-95 -381h-1175zM576 1724q0 66 33 105t90 39q49 0 80.5 -28t31.5 -85q0 -40 -11 -67t-28 -44t-39 -24.5t-44 -7.5q-51 0 -82 27.5t-31 84.5zM1004 1724q0 66 33 105t90 39q49 0 80.5 -28t31.5 -85 q0 -40 -11 -67t-28 -44t-39 -24.5t-44 -7.5q-51 0 -82 27.5t-31 84.5z" />
<glyph unicode="&#x402;" horiz-adv-x="1772" d="M139 1065l94 397h1233l-71 -397h-138q1 7 4 31.5t6 52.5t5 51.5t2 28.5q0 54 -32.5 81t-111.5 27h-163l-111 -522q29 12 69 26.5t87.5 27t99.5 20.5t105 8q103 0 183 -18.5t135.5 -57.5t84.5 -101t29 -149q0 -22 -3 -55.5t-8.5 -74.5t-14.5 -88t-21 -95q-17 -67 -47 -117 t-77 -83.5t-113 -50.5t-155 -17q-52 0 -102 5.5t-78 16.5l21 113q18 -6 38.5 -9t38.5 -3q24 0 45 8.5t39 28.5t33 52t27 79q20 78 32.5 148t12.5 114q0 50 -15.5 86t-43.5 59t-66.5 34t-83.5 11q-41 0 -82 -5t-77.5 -13t-67.5 -17t-52 -16l-2 2l-96 -459q-2 -11 -5 -25 t-3 -22q0 -22 11 -35.5t31 -21t47.5 -10t59.5 -2.5h27l-22 -109h-705l23 109h26q32 0 62.5 4t55.5 17t43.5 37t27.5 64l231 1106h-123q-48 0 -81.5 -12t-58 -35.5t-41.5 -57.5t-32 -79l-29 -88h-137z" />
<glyph unicode="&#x403;" horiz-adv-x="1210" d="M-47 0l22 109h27q32 0 62.5 4t55.5 17t43.5 37t26.5 64l213 1006q4 11 6.5 25t2.5 22q0 22 -11 36t-30.5 21.5t-47 10t-59.5 2.5h-26l20 108h1118l-69 -401h-136l-4 98q-2 45 -11 78t-27.5 55.5t-47 33.5t-69.5 11h-267l-223 -1056q-9 -42 -13.5 -68.5t-4.5 -34.5 q0 -22 11 -35.5t31 -21t47.5 -10t59.5 -2.5h68l-23 -109h-745zM707 1579l6 27q28 29 61 67t65.5 78.5t63 80.5t54.5 75h321l-6 -21q-16 -18 -44 -42.5t-63.5 -52.5t-76 -57.5t-82.5 -57.5t-83 -53.5t-77 -43.5h-139z" />
<glyph unicode="&#x404;" horiz-adv-x="1368" d="M129 530q0 123 29 242t84 226t134.5 197t180 156t220.5 103t257 37q102 0 178.5 -17.5t127 -49t75.5 -77t25 -100.5q0 -45 -22 -79t-60.5 -57.5t-91.5 -35.5t-115 -12q0 43 -6 95t-24.5 97t-52.5 75t-91 30q-92 0 -168.5 -47.5t-136.5 -126.5t-103.5 -180.5t-68.5 -210.5 h481l-27 -123h-475q-6 -41 -8 -79t-2 -75q0 -175 89 -270.5t265 -95.5q71 0 128 16t102 42.5t79 59.5t60 68q12 -9 23.5 -28t11.5 -42q0 -51 -31 -102.5t-91.5 -93t-149.5 -67t-205 -25.5q-147 0 -262.5 36.5t-195 107t-121.5 173t-42 233.5z" />
<glyph unicode="&#x405;" horiz-adv-x="1200" d="M29 279q0 48 19.5 84t55 60t84 36t107.5 12q0 -94 20 -163t56 -114.5t86 -67.5t110 -22q58 0 103 16.5t76.5 45t48 67t16.5 82.5q0 43 -10.5 79t-38.5 70t-77 69t-126 77q-80 44 -140.5 90.5t-101 100.5t-61 118.5t-20.5 145.5q0 92 37 169t106 132.5t167 86t220 30.5 q114 0 199 -18t141.5 -49t84.5 -73t28 -90q0 -83 -63 -130.5t-206 -47.5q0 46 -9 96t-32 91.5t-62 68.5t-99 27q-41 0 -81.5 -13t-72.5 -39t-52 -65.5t-20 -93.5t17 -92t51 -70.5t85 -63t120 -67.5q155 -84 229 -185.5t74 -232.5q0 -109 -39.5 -194t-113 -143t-177.5 -88.5 t-233 -30.5q-127 0 -222 23t-158 63t-94.5 94.5t-31.5 118.5z" />
<glyph unicode="&#x406;" horiz-adv-x="821" d="M-47 0l22 109h27q32 0 62.5 4t55.5 17t43.5 37t26.5 64l213 1006q4 11 6.5 25t2.5 22q0 22 -11 36t-30.5 21.5t-47 10t-59.5 2.5h-26l22 108h707l-23 -108h-26q-34 0 -65.5 -4.5t-57.5 -17.5t-45 -38t-27 -65l-211 -1004q-2 -11 -5 -25t-3 -22q0 -22 11 -35.5t31 -21 t47.5 -10t59.5 -2.5h27l-23 -109h-704z" />
<glyph unicode="&#x407;" horiz-adv-x="821" d="M-47 0l22 109h27q32 0 62.5 4t55.5 17t43.5 37t26.5 64l213 1006q4 11 6.5 25t2.5 22q0 22 -11 36t-30.5 21.5t-47 10t-59.5 2.5h-26l22 108h707l-23 -108h-26q-34 0 -65.5 -4.5t-57.5 -17.5t-45 -38t-27 -65l-211 -1004q-2 -11 -5 -25t-3 -22q0 -22 11 -35.5t31 -21 t47.5 -10t59.5 -2.5h27l-23 -109h-704zM321 1724q0 66 33 105t90 39q49 0 80.5 -28t31.5 -85q0 -40 -11 -67t-28 -44t-39 -24.5t-44 -7.5q-51 0 -82 27.5t-31 84.5zM749 1724q0 66 33 105t90 39q49 0 80.5 -28t31.5 -85q0 -40 -11 -67t-28 -44t-39 -24.5t-44 -7.5 q-51 0 -82 27.5t-31 84.5z" />
<glyph unicode="&#x408;" horiz-adv-x="821" d="M-324 -469l29 113q13 -5 29.5 -8.5t34.5 -6t36 -3.5t33 -1q53 0 98.5 19t83 62.5t67.5 114t52 173.5l264 1243q4 11 6.5 25t2.5 22q0 22 -11 36t-30.5 21.5t-47 10t-59.5 2.5h-26l22 108h707l-23 -108h-26q-34 0 -65.5 -4.5t-57.5 -17.5t-45 -38t-27 -65l-260 -1235 q-26 -125 -87 -216.5t-144 -151.5t-183 -89t-205 -29q-55 0 -92.5 6t-75.5 17z" />
<glyph unicode="&#x409;" horiz-adv-x="1974" d="M-96 129q0 36 11.5 63.5t30.5 46t44 28t53 9.5q0 -19 3 -36.5t11.5 -30.5t22.5 -21t37 -8q27 0 53 9.5t55.5 38.5t64.5 82.5t79 142.5q30 61 61.5 139.5t62.5 162.5t58.5 167.5t49.5 154t36.5 123t19.5 74.5q2 5 3.5 13t1.5 13q0 19 -12 29.5t-32.5 16t-47.5 7t-58 1.5 h-35l23 108h1142l-22 -108h-47q-33 0 -64 -4.5t-57 -17.5t-44.5 -38t-27.5 -65l-86 -400h72q241 0 363 -88t122 -274q0 -112 -37.5 -199t-112 -146.5t-184.5 -90.5t-255 -31h-654l23 109h26q32 0 62.5 4t55.5 17t43.5 37t27.5 64l237 1123h-266q-22 -85 -49 -178t-58 -189 t-65 -193t-70.5 -189t-75 -176.5t-77.5 -156.5q-49 -90 -92 -146t-84.5 -87t-85 -42t-94.5 -11q-81 0 -121.5 38.5t-40.5 104.5zM1145 125h59q87 0 146 25.5t95.5 70.5t52 105.5t15.5 130.5q0 129 -51 187t-157 58h-37z" />
<glyph unicode="&#x40a;" horiz-adv-x="2118" d="M-47 0l22 109h27q32 0 62.5 4t55.5 17t43.5 37t26.5 64l209 983q13 53 13 70q0 22 -11 36t-30.5 21.5t-47 10t-59.5 2.5h-26l22 108h686l-22 -108h-6q-34 0 -65.5 -4.5t-57.5 -17.5t-45 -38t-27 -65l-84 -404h473l86 398q5 21 7.5 37t2.5 24q0 22 -11 36t-31 21.5 t-47.5 10t-59.5 2.5h-6l22 108h686l-22 -108h-27q-33 0 -64 -4.5t-56.5 -17.5t-44.5 -38t-27 -65l-84 -400h73q241 0 363.5 -88t122.5 -274q0 -112 -38 -199t-112 -146.5t-184.5 -90.5t-255.5 -31h-639l22 109h7q33 0 64 4t56.5 17.5t44.5 37.5t27 65l98 467h-473l-100 -475 q-3 -11 -5.5 -25t-2.5 -22q0 -22 11 -35.5t31 -21t47.5 -10t59.5 -2.5h6l-22 -109h-684zM1288 125h60q87 0 146 25.5t95 70.5t52 105.5t16 130.5q0 129 -51.5 187t-157.5 58h-37z" />
<glyph unicode="&#x40b;" horiz-adv-x="1812" d="M139 1065l94 397h1233l-71 -397h-138q1 7 4 31.5t6 52.5t5 51.5t2 28.5q0 54 -32.5 81t-111.5 27h-163l-105 -503q28 9 67 20t87.5 20.5t104 16t116.5 6.5q105 0 185 -21.5t128 -72.5t61.5 -136t-14.5 -212l-49 -230q-2 -11 -5 -25t-3 -22q0 -22 11.5 -35.5t31.5 -21 t47.5 -10t59.5 -2.5h26l-22 -109h-705l23 109h26q32 0 62.5 4t56 17t44 37t26.5 64l41 209q15 79 14 134.5t-22 91t-63 51.5t-107 16q-39 0 -77 -4.5t-72 -12t-62.5 -16t-47.5 -16.5l-100 -459q-3 -11 -5.5 -25t-2.5 -22q0 -22 11 -35.5t31 -21t47.5 -10t59.5 -2.5h27 l-22 -109h-705l23 109h26q32 0 62.5 4t55.5 17t43.5 37t27.5 64l231 1106h-123q-48 0 -81.5 -12t-58 -35.5t-41.5 -57.5t-32 -79l-29 -88h-137z" />
<glyph unicode="&#x40c;" horiz-adv-x="1522" d="M-47 0l22 109h27q32 0 62.5 4t55.5 17t43.5 37t26.5 64l213 1006q4 11 6.5 25t2.5 22q0 22 -11 36t-30.5 21.5t-47 10t-59.5 2.5h-26l22 108h707l-23 -108h-26q-34 0 -65.5 -4.5t-57.5 -17.5t-45 -38t-27 -65l-92 -436q74 0 123.5 16.5t83.5 48.5q32 31 83 100t123 187 q54 87 104.5 149.5t102 102.5t107 59t119.5 19q83 0 122 -33t39 -88q0 -35 -11.5 -64.5t-32 -50.5t-48.5 -32.5t-61 -12.5q0 19 -4.5 38t-14.5 34t-27 24.5t-42 9.5q-54 0 -116 -53.5t-140 -173.5q-79 -120 -133.5 -191.5t-102.5 -99.5q71 -8 124.5 -67.5t98.5 -177.5 l107 -287q29 -77 86.5 -109t126.5 -32h6l-24 -109h-130q-82 0 -146 8.5t-112 31.5t-81 62t-54 101l-110 327q-15 44 -30 72t-36 44.5t-51 23t-74 6.5l-94 -451q-2 -11 -5 -25t-3 -22q0 -22 11 -35.5t31 -21t47.5 -10t59.5 -2.5h27l-23 -109h-704zM922 1579l6 27q28 29 61 67 t65.5 78.5t63 80.5t54.5 75h321l-6 -21q-16 -18 -44 -42.5t-63.5 -52.5t-76 -57.5t-82.5 -57.5t-83 -53.5t-77 -43.5h-139z" />
<glyph unicode="&#x40d;" horiz-adv-x="1677" d="M-47 0l22 109h27q32 0 62.5 4t55.5 17t43.5 37t26.5 64l209 983q13 53 13 70q0 22 -11 36t-30.5 21.5t-47 10t-59.5 2.5h-26l22 108h707l-23 -108h-26q-34 0 -65.5 -4.5t-57.5 -17.5t-45 -38t-27 -65l-154 -727l680 678l6 22q3 9 5.5 22t4.5 25t3.5 21.5t1.5 13.5 q0 22 -11.5 36t-31.5 21.5t-47.5 10t-59.5 2.5h-26l22 108h707l-23 -108h-26q-33 0 -64 -4.5t-57 -17.5t-44.5 -38t-27.5 -65l-211 -1004q-3 -11 -5.5 -25t-2.5 -22q0 -22 11 -35.5t30.5 -21t46.5 -10t59 -2.5h27l-23 -109h-706l22 109h27q33 0 64 4t57 17.5t44.5 37.5 t27.5 65l153 730l-678 -674l-8 -41q-12 -56 -12 -70q0 -22 11 -35.5t31 -21t47.5 -10t59.5 -2.5h27l-23 -109h-704zM656 1886l6 21h301q12 -37 31.5 -80t40.5 -84t42.5 -77t38.5 -60l-6 -27h-121q-44 26 -93.5 66t-95.5 83.5t-84.5 85.5t-59.5 72z" />
<glyph unicode="&#x40e;" horiz-adv-x="1421" d="M125 -10l27 129h108q49 0 99 11.5t96 34.5t84.5 57.5t64.5 80.5l-272 944q-9 30 -18.5 50.5t-23.5 33t-33.5 18t-47.5 5.5h-25l23 108h682l-23 -108h-43q-69 0 -110 -24t-41 -75q0 -26 5 -55.5t11 -54.5l109 -414q5 -21 13 -50t15 -60.5t12 -63t5 -55.5q10 29 19 49.5 t19.5 41.5t25 46t36.5 63l272 467q22 38 30.5 64.5t8.5 48.5q0 37 -28 54.5t-88 17.5h-47l20 108h518l-22 -108h-37q-29 0 -50.5 -7t-41.5 -24.5t-41.5 -47.5t-49.5 -77l-503 -825q-51 -83 -91 -143.5t-77 -103t-76.5 -69.5t-89.5 -41.5t-114.5 -20t-151.5 -5.5h-158z M578 1806q0 47 18 86l238 27q-6 -19 -10.5 -45t-4.5 -49q0 -53 34.5 -88t107.5 -35q77 0 140.5 22.5t114.5 57.5t90.5 78t69.5 84l72 -56q-38 -54 -86.5 -109.5t-113.5 -99.5t-149.5 -72t-193.5 -28q-94 0 -157 19t-100.5 50.5t-53.5 72.5t-16 85z" />
<glyph unicode="&#x40f;" horiz-adv-x="1657" d="M-47 0l22 109h27q32 0 62.5 4t55.5 17t43.5 37t26.5 64l209 983q13 53 13 70q0 22 -11 36t-30.5 21.5t-47 10t-59.5 2.5h-26l22 108h707l-23 -108h-26q-34 0 -65.5 -4.5t-57.5 -17.5t-45 -38t-27 -65l-231 -1104h514l233 1098q5 21 7.5 37t2.5 24q0 22 -11 36t-31 21.5 t-47.5 10t-59.5 2.5h-27l23 108h706l-22 -108h-27q-33 0 -64 -4.5t-56.5 -17.5t-44.5 -38t-27 -65l-211 -1004q-3 -11 -6 -25t-3 -22q0 -22 11 -35.5t30.5 -21t47 -10t59.5 -2.5h27l-23 -109h-483q-56 0 -102 -24.5t-84.5 -77t-69.5 -133.5t-56 -195h-135q14 60 20.5 111.5 t6.5 93.5q0 115 -43.5 170t-120.5 55h-473z" />
<glyph unicode="&#x410;" horiz-adv-x="1542" d="M-100 0l22 109h43q28 0 49.5 6.5t41.5 24.5t41.5 49t49.5 79l695 1194h280l172 -1206q5 -32 13.5 -59t22.5 -46.5t35.5 -30.5t53.5 -11h37l-22 -109h-676l22 109h47q66 0 105 20.5t39 65.5q0 17 -1 33.5t-3 31.5l-31 221h-498l-100 -184q-20 -37 -29.5 -65t-9.5 -50 q0 -38 28 -55.5t87 -17.5h41l-23 -109h-532zM508 606h414l-37 344q-5 45 -9.5 84.5t-8 76.5t-6 72t-3.5 72q-15 -37 -30 -68.5t-32 -64t-37.5 -69t-47.5 -84.5z" />
<glyph unicode="&#x411;" horiz-adv-x="1360" d="M-47 0l22 109h27q32 0 62.5 4t55.5 17t43.5 37t26.5 64l207 973q7 29 11 50.5t4 29.5q0 22 -11 36t-30.5 21.5t-47 10t-59.5 2.5h-26l22 108h1096l-72 -397h-145q1 7 2.5 25t3 40t3 44.5t1.5 37.5q0 57 -33 91t-112 34h-259l-106 -508h113q241 0 363 -88t122 -274 q0 -112 -38 -199t-112 -146.5t-184.5 -90.5t-255.5 -31h-694zM489 125h101q87 0 146 25.5t95 70.5t52 105.5t16 130.5q0 129 -51.5 187t-157.5 58h-78z" />
<glyph unicode="&#x412;" horiz-adv-x="1376" d="M-47 0l22 109h27q32 0 62.5 4t55.5 17t43.5 37t26.5 64l209 986q5 20 9 39.5t4 27.5q0 22 -11 36t-30.5 21.5t-47 10t-59.5 2.5h-26l22 108h635q238 0 358.5 -77.5t120.5 -229.5q0 -84 -25.5 -148t-70.5 -110.5t-106 -76.5t-132 -46l-2 -8q55 -10 101 -34t79 -61.5 t51.5 -88.5t18.5 -115q0 -112 -38 -199t-112 -146.5t-184.5 -90.5t-255.5 -31h-745zM489 125h142q87 0 147.5 23t98.5 68t55.5 111.5t17.5 153.5q0 112 -51 166.5t-158 54.5h-129zM639 829h115q145 0 209.5 75.5t64.5 215.5q0 109 -49 163t-143 54h-91z" />
<glyph unicode="&#x413;" horiz-adv-x="1210" d="M-47 0l22 109h27q32 0 62.5 4t55.5 17t43.5 37t26.5 64l213 1006q4 11 6.5 25t2.5 22q0 22 -11 36t-30.5 21.5t-47 10t-59.5 2.5h-26l20 108h1118l-69 -401h-136l-4 98q-2 45 -11 78t-27.5 55.5t-47 33.5t-69.5 11h-267l-223 -1056q-9 -42 -13.5 -68.5t-4.5 -34.5 q0 -22 11 -35.5t31 -21t47.5 -10t59.5 -2.5h68l-23 -109h-745z" />
<glyph unicode="&#x414;" horiz-adv-x="1415" d="M-186 -430l120 555h121q72 101 142 203t134 202.5t120.5 199t102 192t78.5 181t50 167.5q2 5 3 12t1 12q0 22 -14 34.5t-37 18t-52.5 6.5t-60.5 1h-6l23 108h1022l-23 -108h-12q-34 0 -64 -4.5t-54.5 -17.5t-42 -38t-26.5 -65l-200 -946q-7 -29 -11 -54.5t-4 -33.5 q0 -23 11.5 -36.5t31.5 -21t47.5 -10t59.5 -2.5h41l-119 -555h-135q11 51 16.5 94.5t5.5 81.5q0 132 -61.5 193t-171.5 61h-508q-70 0 -130.5 -24.5t-110.5 -77t-88 -133.5t-62 -195h-137zM209 125h573l258 1212h-206q-22 -101 -61 -207.5t-89.5 -214t-110 -213.5 t-121.5 -207t-124.5 -194.5t-118.5 -175.5z" />
<glyph unicode="&#x415;" horiz-adv-x="1296" d="M-47 0l22 109h27q32 0 62.5 4t55.5 17t43.5 37t26.5 64l213 1006q4 11 6.5 25t2.5 22q0 22 -11 36t-30.5 21.5t-47 10t-59.5 2.5h-26l22 108h1112l-72 -381h-145q1 7 2.5 25t3 37.5t3 36t1.5 20.5q0 28 -8 53t-25 44t-44.5 29.5t-67.5 10.5h-272l-109 -512h465l-27 -123 h-465l-123 -577h324q48 0 86 13.5t66 36.5t47.5 53.5t31.5 64.5l33 88h146l-95 -381h-1175z" />
<glyph unicode="&#x416;" horiz-adv-x="2138" d="M-119 0l23 113h6q64 0 126 36.5t122 120.5l235 332q31 46 67 78t78 52t91 30t108 12q-35 26 -74 97t-79 196q-20 59 -36.5 102.5t-34.5 72t-41 42.5t-54 14q-27 0 -48 -9t-37.5 -25t-28.5 -36.5t-21 -43.5q-35 14 -54.5 44.5t-19.5 84.5q0 74 49.5 118t140.5 44 q67 0 113.5 -23t80 -66t58 -104t47.5 -137q20 -65 37.5 -113t33.5 -82t29.5 -56.5t26.5 -37.5t26.5 -27t30.5 -20t39 -12t52 -4l96 444q3 11 5.5 25t2.5 22q0 22 -11 36t-30.5 21.5t-46.5 10t-59 2.5h-27l23 108h665l-22 -108h-27q-34 0 -65.5 -4.5t-57 -17.5t-44.5 -38 t-27 -65l-93 -436q75 0 124 16.5t83 48.5q32 31 82.5 101t124.5 186q56 88 106.5 150.5t101.5 102.5t105.5 58.5t118.5 18.5q84 0 123 -33t39 -88q0 -35 -11.5 -64.5t-32 -50.5t-49 -32.5t-61.5 -12.5q0 19 -4 38t-14.5 34t-27.5 24.5t-42 9.5q-53 0 -115 -53.5t-141 -173.5 q-39 -60 -70.5 -107t-59 -82.5t-52.5 -60.5t-51 -41q38 -7 69 -24t57.5 -46.5t49.5 -72.5t45 -102l107 -287q14 -39 36 -65.5t50 -43.5t60 -24.5t67 -7.5h6l-25 -109h-129q-82 0 -144.5 8.5t-108.5 31.5t-77.5 62t-52.5 101l-110 327q-15 44 -31.5 72t-39.5 44.5t-54.5 23 t-75.5 6.5l-94 -451q-2 -11 -5.5 -25t-3.5 -22q0 -22 11.5 -35.5t31.5 -21t47.5 -10t59.5 -2.5h27l-23 -109h-664l23 109h27q32 0 62.5 4t55.5 17t43.5 37t26.5 64l94 445q-63 -2 -103.5 -11t-68 -26t-48 -42t-42.5 -58l-237 -351q-43 -63 -84 -100.5t-95 -57t-128 -25 t-183 -5.5h-80z" />
<glyph unicode="&#x417;" horiz-adv-x="1255" d="M10 266q0 39 15 70.5t43 54t66.5 35t86.5 12.5q0 -60 21 -118.5t61 -105t99 -75t135 -28.5q62 0 115.5 20t92.5 60t61.5 100t22.5 139q0 56 -18.5 104t-57 83t-97 55t-138.5 20h-160l23 127h174q81 0 151.5 22.5t123.5 65t83.5 104.5t30.5 140q0 45 -11 83.5t-35.5 66.5 t-63 43.5t-93.5 15.5q-68 0 -114.5 -24.5t-77 -67.5t-48.5 -100t-28 -121q-48 0 -90 8t-73.5 26.5t-49.5 48.5t-18 74q0 62 43.5 113.5t116 88t167.5 57t199 20.5q106 0 194 -21.5t151 -62.5t97.5 -100.5t34.5 -135.5q0 -89 -32.5 -159.5t-88.5 -121.5t-132 -82.5 t-163 -41.5q49 -6 104.5 -27t102 -59t77 -95t30.5 -135q0 -118 -45 -205.5t-127.5 -145t-199.5 -86t-261 -28.5q-121 0 -214 21t-156.5 59.5t-96.5 91.5t-33 117z" />
<glyph unicode="&#x418;" horiz-adv-x="1677" d="M-47 0l22 109h27q32 0 62.5 4t55.5 17t43.5 37t26.5 64l209 983q13 53 13 70q0 22 -11 36t-30.5 21.5t-47 10t-59.5 2.5h-26l22 108h707l-23 -108h-26q-34 0 -65.5 -4.5t-57.5 -17.5t-45 -38t-27 -65l-154 -727l680 678l6 22q3 9 5.5 22t4.5 25t3.5 21.5t1.5 13.5 q0 22 -11.5 36t-31.5 21.5t-47.5 10t-59.5 2.5h-26l22 108h707l-23 -108h-26q-33 0 -64 -4.5t-57 -17.5t-44.5 -38t-27.5 -65l-211 -1004q-3 -11 -5.5 -25t-2.5 -22q0 -22 11 -35.5t30.5 -21t46.5 -10t59 -2.5h27l-23 -109h-706l22 109h27q33 0 64 4t57 17.5t44.5 37.5 t27.5 65l153 730l-678 -674l-8 -41q-12 -56 -12 -70q0 -22 11 -35.5t31 -21t47.5 -10t59.5 -2.5h27l-23 -109h-704z" />
<glyph unicode="&#x419;" horiz-adv-x="1677" d="M-47 0l22 109h27q32 0 62.5 4t55.5 17t43.5 37t26.5 64l209 983q13 53 13 70q0 22 -11 36t-30.5 21.5t-47 10t-59.5 2.5h-26l22 108h707l-23 -108h-26q-34 0 -65.5 -4.5t-57.5 -17.5t-45 -38t-27 -65l-154 -727l680 678l6 22q3 9 5.5 22t4.5 25t3.5 21.5t1.5 13.5 q0 22 -11.5 36t-31.5 21.5t-47.5 10t-59.5 2.5h-26l22 108h707l-23 -108h-26q-33 0 -64 -4.5t-57 -17.5t-44.5 -38t-27.5 -65l-211 -1004q-3 -11 -5.5 -25t-2.5 -22q0 -22 11 -35.5t30.5 -21t46.5 -10t59 -2.5h27l-23 -109h-706l22 109h27q33 0 64 4t57 17.5t44.5 37.5 t27.5 65l153 730l-678 -674l-8 -41q-12 -56 -12 -70q0 -22 11 -35.5t31 -21t47.5 -10t59.5 -2.5h27l-23 -109h-704zM697 1806q0 47 18 86l238 27q-6 -19 -10.5 -45t-4.5 -49q0 -53 34.5 -88t107.5 -35q77 0 140.5 22.5t114.5 57.5t90.5 78t69.5 84l72 -56 q-38 -54 -86.5 -109.5t-113.5 -99.5t-149.5 -72t-193.5 -28q-94 0 -157 19t-100.5 50.5t-53.5 72.5t-16 85z" />
<glyph unicode="&#x41a;" horiz-adv-x="1522" d="M-47 0l22 109h27q32 0 62.5 4t55.5 17t43.5 37t26.5 64l213 1006q4 11 6.5 25t2.5 22q0 22 -11 36t-30.5 21.5t-47 10t-59.5 2.5h-26l22 108h707l-23 -108h-26q-34 0 -65.5 -4.5t-57.5 -17.5t-45 -38t-27 -65l-92 -436q74 0 123.5 16.5t83.5 48.5q32 31 83 100t123 187 q54 87 104.5 149.5t102 102.5t107 59t119.5 19q83 0 122 -33t39 -88q0 -35 -11.5 -64.5t-32 -50.5t-48.5 -32.5t-61 -12.5q0 19 -4.5 38t-14.5 34t-27 24.5t-42 9.5q-54 0 -116 -53.5t-140 -173.5q-79 -120 -133.5 -191.5t-102.5 -99.5q71 -8 124.5 -67.5t98.5 -177.5 l107 -287q29 -77 86.5 -109t126.5 -32h6l-24 -109h-130q-82 0 -146 8.5t-112 31.5t-81 62t-54 101l-110 327q-15 44 -30 72t-36 44.5t-51 23t-74 6.5l-94 -451q-2 -11 -5 -25t-3 -22q0 -22 11 -35.5t31 -21t47.5 -10t59.5 -2.5h27l-23 -109h-704z" />
<glyph unicode="&#x41b;" horiz-adv-x="1477" d="M-96 129q0 36 11.5 63.5t30.5 46t44 28t53 9.5q0 -19 3 -36.5t11.5 -30.5t22.5 -21t37 -8q27 0 53 9.5t55.5 38.5t64.5 82.5t79 142.5q30 61 61.5 139.5t62.5 162t58.5 166.5t49.5 153.5t36.5 122t19.5 73.5q2 6 3.5 15.5t1.5 14.5q0 19 -12 29.5t-32.5 16t-47.5 7 t-58 1.5h-35l23 108h1122l-23 -108h-26q-34 0 -65.5 -4.5t-57.5 -17.5t-44.5 -38t-27.5 -65l-211 -1004q-2 -11 -5 -25t-3 -22q0 -22 11.5 -35.5t31.5 -21t47.5 -10t59.5 -2.5h26l-22 -109h-705l23 109h26q32 0 62.5 4t55.5 17t43.5 37t27.5 64l239 1123h-268 q-33 -127 -76 -268t-93 -283t-107.5 -278t-118.5 -253q-39 -75 -77.5 -129t-81 -89t-90.5 -51.5t-107 -16.5q-81 0 -121.5 38.5t-40.5 104.5z" />
<glyph unicode="&#x41c;" horiz-adv-x="1950" d="M-47 0l22 109h27q32 0 62.5 4t55.5 17t43.5 37t26.5 64l209 983q13 53 13 70q0 22 -11 36t-30.5 21.5t-47 10t-59.5 2.5h-26l22 108h571l138 -995l536 995h592l-22 -108h-27q-33 0 -64 -4.5t-57 -17.5t-44.5 -38t-27.5 -65l-210 -1004q-4 -11 -6.5 -25t-2.5 -22 q0 -22 11 -35.5t30.5 -21t47 -10t59.5 -2.5h26l-22 -109h-698l22 109h27q33 0 64 4t56.5 17.5t44.5 37.5t27 65l217 1027l-678 -1260h-141l-166 1260l-217 -1018q-5 -23 -7.5 -39.5t-2.5 -24.5q0 -22 11 -35.5t31 -21t47.5 -10t59.5 -2.5h7l-23 -109h-516z" />
<glyph unicode="&#x41d;" horiz-adv-x="1677" d="M-47 0l22 109h27q32 0 62.5 4t55.5 17t43.5 37t26.5 64l209 983q13 53 13 70q0 22 -11 36t-30.5 21.5t-47 10t-59.5 2.5h-26l22 108h707l-23 -108h-26q-34 0 -65.5 -4.5t-57.5 -17.5t-45 -38t-27 -65l-84 -404h535l86 398q5 21 7.5 37t2.5 24q0 22 -11.5 36t-31.5 21.5 t-47.5 10t-59.5 2.5h-26l22 108h707l-23 -108h-26q-33 0 -64 -4.5t-57 -17.5t-44.5 -38t-27.5 -65l-211 -1004q-3 -11 -5.5 -25t-2.5 -22q0 -22 11 -35.5t30.5 -21t46.5 -10t59 -2.5h27l-23 -109h-706l22 109h27q33 0 64 4t57 17.5t44.5 37.5t27.5 65l98 467h-535l-100 -475 q-3 -11 -5.5 -25t-2.5 -22q0 -22 11 -35.5t31 -21t47.5 -10t59.5 -2.5h27l-23 -109h-704z" />
<glyph unicode="&#x41e;" horiz-adv-x="1622" d="M129 545q0 98 24.5 206t73.5 212.5t122 199t169.5 166t217.5 114t265 42.5q113 0 215.5 -33t180.5 -102t124 -175t46 -253q0 -94 -23.5 -201t-71 -212t-119 -201t-168 -169.5t-218 -117.5t-267.5 -44q-121 0 -225.5 36.5t-181 108.5t-120.5 178t-44 245zM463 496 q0 -101 21.5 -173.5t59 -119t88.5 -68.5t109 -22q85 0 154.5 41t124.5 109.5t95.5 157t67 183.5t39.5 189.5t13 175.5q0 100 -21 172t-57.5 119t-87.5 69.5t-111 22.5q-85 0 -154.5 -41t-124.5 -109.5t-96 -157t-67.5 -184t-39.5 -190t-13 -174.5z" />
<glyph unicode="&#x41f;" horiz-adv-x="1655" d="M-47 0l22 109h27q32 0 62.5 4t55.5 17t43.5 37t26.5 64l209 983q13 53 13 70q0 22 -11 36t-30.5 21.5t-47 10t-59.5 2.5h-26l22 108h1542l-22 -108h-27q-33 0 -64 -4.5t-56.5 -17.5t-44.5 -38t-27 -65l-211 -1004q-3 -11 -6 -25t-3 -22q0 -22 11 -35.5t30.5 -21t47 -10 t59.5 -2.5h27l-23 -109h-707l23 109h27q33 0 64 4t56.5 17.5t44.5 37.5t27 65l236 1104h-514l-238 -1112q-3 -11 -5.5 -25t-2.5 -22q0 -22 11 -35.5t31 -21t47.5 -10t59.5 -2.5h27l-23 -109h-704z" />
<glyph unicode="&#x420;" horiz-adv-x="1358" d="M-47 0l22 109h27q32 0 62.5 4t55.5 17t43.5 37t26.5 64l209 983q13 53 13 70q0 22 -11 36t-30.5 21.5t-47 10t-59.5 2.5h-26l22 108h586q120 0 217 -25.5t164.5 -76t104 -125t36.5 -172.5q0 -52 -10 -110t-35.5 -114t-70.5 -106.5t-114.5 -89t-167 -61.5t-229.5 -23h-155 l-74 -334q-3 -11 -5.5 -25t-2.5 -22q0 -22 11 -35.5t31 -21t47.5 -10t59.5 -2.5h68l-23 -109h-745zM610 678h86q93 0 157.5 28t104.5 78.5t58 120t18 152.5q0 77 -17.5 131t-48.5 88t-74.5 49.5t-94.5 15.5h-45z" />
<glyph unicode="&#x421;" horiz-adv-x="1368" d="M129 530q0 123 29 242t84 226t134.5 197t180 156t220.5 103t257 37q102 0 178.5 -17.5t127 -49t75.5 -77t25 -100.5q0 -45 -22 -79t-60.5 -57.5t-91.5 -35.5t-115 -12q0 43 -6 95t-24.5 97t-52.5 75t-91 30q-81 0 -149.5 -37t-125 -100.5t-100 -147.5t-73 -177.5 t-45 -191t-15.5 -188.5q0 -175 89 -270.5t265 -95.5q71 0 128 16t102 42.5t79 59.5t60 68q12 -9 23.5 -28t11.5 -42q0 -51 -31 -102.5t-91.5 -93t-149.5 -67t-205 -25.5q-147 0 -262.5 36.5t-195 107t-121.5 173t-42 233.5z" />
<glyph unicode="&#x422;" horiz-adv-x="1337" d="M139 1065l94 397h1274l-71 -397h-138q1 7 3.5 31.5t5.5 52.5t5.5 51.5t2.5 28.5q0 54 -32.5 81t-111.5 27h-163l-236 -1112q-2 -11 -5 -25t-3 -22q0 -22 11 -35.5t31 -21t47.5 -10t59.5 -2.5h27l-22 -109h-705l23 109h26q32 0 62.5 4t55.5 17t43.5 37t27.5 64l231 1106 h-164q-48 0 -81.5 -12t-58 -35.5t-41.5 -57.5t-32 -79l-29 -88h-137z" />
<glyph unicode="&#x423;" horiz-adv-x="1421" d="M125 -10l27 129h108q49 0 99 11.5t96 34.5t84.5 57.5t64.5 80.5l-272 944q-9 30 -18.5 50.5t-23.5 33t-33.5 18t-47.5 5.5h-25l23 108h682l-23 -108h-43q-69 0 -110 -24t-41 -75q0 -26 5 -55.5t11 -54.5l109 -414q5 -21 13 -50t15 -60.5t12 -63t5 -55.5q10 29 19 49.5 t19.5 41.5t25 46t36.5 63l272 467q22 38 30.5 64.5t8.5 48.5q0 37 -28 54.5t-88 17.5h-47l20 108h518l-22 -108h-37q-29 0 -50.5 -7t-41.5 -24.5t-41.5 -47.5t-49.5 -77l-503 -825q-51 -83 -91 -143.5t-77 -103t-76.5 -69.5t-89.5 -41.5t-114.5 -20t-151.5 -5.5h-158z" />
<glyph unicode="&#x424;" horiz-adv-x="1741" d="M94 694q0 52 11.5 110t39.5 114t75.5 106.5t119 89t170.5 61.5t231 23h113l8 33q3 11 5.5 28t2.5 25q0 22 -11 36t-30.5 21.5t-46.5 10t-59 2.5h-27l23 108h682l-23 -108h-26q-34 0 -65.5 -4.5t-57.5 -17.5t-44.5 -38t-27.5 -65l-6 -31h47q121 0 217.5 -25.5t164 -76 t104 -125t36.5 -172.5q0 -52 -11.5 -110t-39.5 -114t-75.5 -106.5t-119 -89t-171 -61.5t-230.5 -23h-112l-15 -70q-2 -11 -5 -25t-3 -22q0 -22 11 -35.5t31 -21t47.5 -10t59.5 -2.5h27l-22 -109h-684l22 109h27q32 0 63 3t57 15t45 35t27 63l15 70h-48q-120 0 -217 25.5 t-164.5 75.5t-104 125t-36.5 173zM418 700q0 -77 19 -130.5t52 -88t78 -50t97 -15.5h24l141 663h-43q-93 0 -162 -28t-114.5 -78.5t-68.5 -120t-23 -152.5zM985 414h43q93 0 162.5 28t115 78t68.5 120t23 153q0 76 -19 130t-52.5 88.5t-78.5 50t-96 15.5h-25z" />
<glyph unicode="&#x425;" horiz-adv-x="1499" d="M-86 0l23 109h20q31 0 57.5 7.5t54 24.5t59 45t71.5 70l452 467l-229 526q-15 34 -30.5 55t-34.5 32t-42.5 14.5t-52.5 3.5h-18l22 108h678l-22 -108h-48q-51 0 -73.5 -15t-22.5 -43q0 -20 9.5 -49.5t27.5 -72.5l109 -254l241 258q28 29 50 63t22 62q0 26 -25 38.5 t-73 12.5h-6l22 108h477l-22 -108h-19q-30 0 -55 -7t-51.5 -24t-56 -45t-68.5 -70l-385 -405l252 -586q28 -63 65.5 -85.5t75.5 -22.5h27l-23 -109h-676l23 109h31q61 0 88.5 18.5t27.5 52.5q0 29 -10 64.5t-29 77.5l-125 282l-286 -297q-37 -38 -59.5 -73t-22.5 -64 q0 -15 5 -26t17.5 -19t34 -12t55.5 -4h7l-23 -109h-516z" />
<glyph unicode="&#x426;" horiz-adv-x="1657" d="M-47 0l22 109h27q32 0 62.5 4t55.5 17t43.5 37t26.5 64l209 983q13 53 13 70q0 22 -11 36t-30.5 21.5t-47 10t-59.5 2.5h-26l22 108h707l-23 -108h-26q-34 0 -65.5 -4.5t-57.5 -17.5t-45 -38t-27 -65l-231 -1104h514l233 1098q5 21 7.5 37t2.5 24q0 22 -11 36t-31 21.5 t-47.5 10t-59.5 2.5h-27l23 108h706l-22 -108h-27q-33 0 -64 -4.5t-56.5 -17.5t-44.5 -38t-27 -65l-232 -1104h193l-119 -555h-135q11 51 16.5 94.5t5.5 81.5q0 132 -61.5 193t-171.5 61h-1104z" />
<glyph unicode="&#x427;" horiz-adv-x="1546" d="M170 1354l23 108h657l-23 -108h-22q-29 0 -55 -5t-47.5 -19.5t-38.5 -41.5t-27 -71l-37 -170q-3 -13 -8 -36t-10.5 -49t-9 -51t-3.5 -43q0 -48 13 -82t36.5 -56.5t56 -33t70.5 -10.5q36 0 74.5 7t76 17.5t72 23t60.5 24.5l100 465q11 44 11 61q0 22 -11.5 36t-31.5 21.5 t-47.5 10t-59.5 2.5h-26l22 108h707l-23 -108h-27q-33 0 -64 -4.5t-56.5 -17.5t-44 -38t-27.5 -65l-211 -1004q-3 -11 -5.5 -25t-2.5 -22q0 -22 11 -35.5t30.5 -21t46.5 -10t59 -2.5h27l-23 -109h-706l22 109h27q33 0 64 4t57 17.5t44.5 37.5t27.5 65l79 375 q-25 -9 -69.5 -23.5t-97 -28.5t-107 -24t-100.5 -10q-92 0 -164 17.5t-121.5 54.5t-75.5 94t-26 135q0 27 4 59t10 62.5t12 57t10 42.5l37 170q3 13 5.5 31t2.5 27q0 26 -9.5 42t-26 25t-39 12t-49.5 3h-23z" />
<glyph unicode="&#x428;" horiz-adv-x="2312" d="M-47 0l22 109h27q32 0 62.5 4t55.5 17t43.5 37t26.5 64l209 983q13 53 13 70q0 22 -11 36t-30.5 21.5t-47 10t-59.5 2.5h-26l22 108h678l-23 -108h-8q-34 0 -65.5 -4.5t-57 -17.5t-44.5 -38t-27 -65l-232 -1104h449l233 1098q5 21 8 37t3 24q0 22 -11.5 36t-31.5 21.5 t-47.5 10t-59.5 2.5h-6l22 108h656l-23 -108h-6q-33 0 -64 -4.5t-56.5 -17.5t-44.5 -38t-27 -65l-232 -1104h449l233 1098q5 21 7.5 37t2.5 24q0 22 -11 36t-31 21.5t-47.5 10t-59.5 2.5h-6l22 108h656l-23 -108h-6q-33 0 -64 -4.5t-57 -17.5t-44.5 -38t-27.5 -65 l-211 -1004q-3 -11 -5.5 -25t-2.5 -22q0 -22 11 -35.5t30.5 -21t47 -10t59.5 -2.5h26l-22 -109h-2216z" />
<glyph unicode="&#x429;" horiz-adv-x="2312" d="M-47 0l22 109h27q32 0 62.5 4t55.5 17t43.5 37t26.5 64l209 983q13 53 13 70q0 22 -11 36t-30.5 21.5t-47 10t-59.5 2.5h-26l22 108h678l-23 -108h-8q-34 0 -65.5 -4.5t-57 -17.5t-44.5 -38t-27 -65l-232 -1104h449l233 1098q5 21 8 37t3 24q0 22 -11.5 36t-31.5 21.5 t-47.5 10t-59.5 2.5h-6l22 108h656l-23 -108h-6q-33 0 -64 -4.5t-56.5 -17.5t-44.5 -38t-27 -65l-232 -1104h449l233 1098q5 21 7.5 37t2.5 24q0 22 -11 36t-31 21.5t-47.5 10t-59.5 2.5h-6l22 108h656l-23 -108h-6q-33 0 -64 -4.5t-57 -17.5t-44.5 -38t-27.5 -65 l-233 -1104h192l-118 -555h-135q11 51 16.5 94.5t5.5 81.5q0 132 -61.5 193t-171.5 61h-1778z" />
<glyph unicode="&#x42a;" horiz-adv-x="1579" d="M139 1065l94 397h994l-23 -108h-67q-33 0 -64 -4.5t-57 -17.5t-44.5 -38t-27.5 -65l-86 -400h113q241 0 363 -88t122 -274q0 -112 -38 -199t-112 -146.5t-184.5 -90.5t-255.5 -31h-694l23 109h26q32 0 62.5 4t55.5 17t43.5 37t27.5 64l233 1106h-125q-48 0 -81.5 -12 t-58 -35.5t-41.5 -57.5t-32 -79l-29 -88h-137zM709 125h100q87 0 146 25.5t95 70.5t52 105.5t16 130.5q0 129 -51.5 187t-157.5 58h-78z" />
<glyph unicode="&#x42b;" horiz-adv-x="2021" d="M-47 0l22 109h27q32 0 62.5 4t55.5 17t43.5 37t26.5 64l207 973q7 29 11 50.5t4 29.5q0 22 -11 36t-30.5 21.5t-47 10t-59.5 2.5h-26l22 108h727l-22 -108h-47q-33 0 -64.5 -4.5t-57 -17.5t-44 -38t-27.5 -65l-86 -400h72q241 0 363 -88t122 -274q0 -112 -38 -199 t-112 -146.5t-184.5 -90.5t-255.5 -31h-653zM489 125h60q87 0 146 25.5t95 70.5t52 105.5t16 130.5q0 129 -51.5 187t-157.5 58h-37zM1153 0l22 109h27q32 0 62.5 4t55.5 17t43.5 37t26.5 64l213 1006q4 11 6.5 25t2.5 22q0 22 -11 36t-30.5 21.5t-47 10t-59.5 2.5h-26 l22 108h707l-23 -108h-26q-34 0 -65.5 -4.5t-57.5 -17.5t-45 -38t-27 -65l-211 -1004q-2 -11 -5 -25t-3 -22q0 -22 11 -35.5t31 -21t47.5 -10t59.5 -2.5h27l-23 -109h-704z" />
<glyph unicode="&#x42c;" horiz-adv-x="1360" d="M-47 0l22 109h27q32 0 62.5 4t55.5 17t43.5 37t26.5 64l207 973q7 29 11 50.5t4 29.5q0 22 -11 36t-30.5 21.5t-47 10t-59.5 2.5h-26l22 108h727l-22 -108h-47q-33 0 -64.5 -4.5t-57 -17.5t-44 -38t-27.5 -65l-86 -400h113q241 0 363 -88t122 -274q0 -112 -38 -199 t-112 -146.5t-184.5 -90.5t-255.5 -31h-694zM489 125h101q87 0 146 25.5t95 70.5t52 105.5t16 130.5q0 129 -51.5 187t-157.5 58h-78z" />
<glyph unicode="&#x42d;" horiz-adv-x="1378" d="M10 268q0 40 15 71.5t43 53.5t66.5 33.5t86.5 11.5q0 -62 21.5 -120.5t60.5 -103.5t93.5 -72t119.5 -27q77 0 143 40.5t120 114t95 176t68 226.5h-487l26 123h486q5 21 9.5 47.5t7.5 55.5t5 59t2 57q0 70 -12 132t-40.5 108.5t-75.5 74t-118 27.5q-67 0 -117 -30.5 t-84.5 -76.5t-55.5 -100t-29 -102q-55 0 -96.5 13.5t-69 35.5t-41.5 51t-14 61q0 58 33 108t97.5 87t159 58.5t217.5 21.5q140 0 247.5 -39t181 -112.5t111.5 -179t38 -237.5q0 -122 -24 -238.5t-71 -221t-117 -192t-161.5 -151.5t-205.5 -99.5t-248 -35.5q-119 0 -209.5 22 t-152 61t-93 92.5t-31.5 115.5z" />
<glyph unicode="&#x42e;" horiz-adv-x="2294" d="M-47 0l22 109h27q32 0 62.5 4t55.5 17t43.5 37t26.5 64l209 983q13 53 13 70q0 22 -11 36t-30.5 21.5t-47 10t-59.5 2.5h-26l22 108h707l-23 -108h-26q-34 0 -65.5 -4.5t-57.5 -17.5t-45 -38t-27 -65l-84 -404h285q24 82 62 163t89.5 154.5t117 136t144.5 108.5t171 72 t198 26t202.5 -33t169.5 -102t116.5 -175t43.5 -253q0 -94 -22 -201t-67 -212t-112.5 -201t-158 -169.5t-205 -117.5t-252.5 -44q-114 0 -212.5 36.5t-171 108.5t-113.5 178t-41 245q0 75 12 155h-283l-100 -475q-3 -11 -5.5 -25t-2.5 -22q0 -22 11 -35.5t31 -21t47.5 -10 t59.5 -2.5h27l-23 -109h-704zM1217 496q0 -101 19.5 -173.5t53 -119t79 -68.5t97.5 -22q76 0 138 41t111 109.5t85 157t60 183.5t35.5 189.5t11.5 175.5q0 100 -18.5 172t-51.5 119t-78.5 69.5t-99.5 22.5q-76 0 -138 -41t-111 -109.5t-85.5 -157t-60.5 -184t-35.5 -190 t-11.5 -174.5z" />
<glyph unicode="&#x42f;" horiz-adv-x="1446" d="M-96 0l22 109h6q59 0 114.5 34t105.5 105l301 448q-33 18 -63.5 46t-53.5 68t-37 92.5t-14 117.5q0 123 47.5 207.5t141 136.5t232.5 75t322 23h565l-20 -108h-27q-33 0 -64 -4.5t-56.5 -17.5t-44.5 -38t-27 -65l-211 -1004q-3 -11 -5.5 -25t-2.5 -22q0 -22 11 -35.5 t30.5 -21t46.5 -10t59 -2.5h27l-23 -109h-706l22 109h27q33 0 64 4t56.5 17.5t44.5 37.5t27 65l84 398h-168l-284 -453q-39 -61 -90 -96.5t-117 -53.5t-147.5 -23t-180.5 -5h-14zM614 1010q0 -128 62.5 -192t195.5 -64h58l125 587h-111q-81 0 -142.5 -23t-103 -66 t-63 -104.5t-21.5 -137.5z" />
<glyph unicode="&#x430;" horiz-adv-x="1362" d="M82 354q0 80 18.5 167.5t55.5 172.5t91.5 162t126 135t159.5 92.5t192 34.5q40 0 81.5 -6.5t79.5 -16.5t71.5 -22.5t56.5 -25.5l108 49h109l-135 -639q-4 -17 -10 -45t-11.5 -59.5t-9.5 -61t-4 -49.5q0 -51 20 -76t52 -25q29 0 55.5 12.5t58.5 30.5l45 -82 q-26 -20 -59 -41.5t-73.5 -39.5t-88 -29.5t-102.5 -11.5q-91 0 -146 41.5t-55 121.5q0 32 3 62.5t11 70.5h-14q-38 -71 -75.5 -126.5t-83.5 -93t-102.5 -57t-131.5 -19.5q-73 0 -128 28.5t-91.5 78.5t-55 118.5t-18.5 148.5zM393 352q0 -59 8.5 -99t23 -64.5t35 -35 t44.5 -10.5q45 0 93 39t90 102.5t75.5 143.5t50.5 162l72 340q-20 29 -55.5 43t-75.5 14q-60 0 -109.5 -31t-89.5 -83t-70.5 -118t-51 -137t-30.5 -140t-10 -126z" />
<glyph unicode="&#x431;" horiz-adv-x="1243" d="M92 537q0 117 15.5 229.5t49.5 214.5t88.5 189.5t132.5 155t181 111.5t234 58q117 11 193.5 19.5t123.5 17t70 19.5t34 26l113 4q-13 -64 -27.5 -110t-37 -79t-57 -55.5t-88.5 -39t-130 -29t-182 -25.5q-99 -8 -172.5 -23t-127.5 -38t-90.5 -54.5t-62 -74t-42.5 -96.5 t-31 -121l14 -2q31 50 78.5 91.5t106 71.5t124 47t133.5 17q93 0 172 -28.5t136 -83t89.5 -135t32.5 -183.5q0 -86 -20 -168t-57.5 -154.5t-92 -133t-123 -104t-150 -67.5t-173.5 -24q-112 0 -197.5 37.5t-143 108.5t-87 175t-29.5 236zM379 383q0 -137 47 -204.5t131 -67.5 q58 0 112.5 40.5t95.5 113.5t66 174t25 223q0 141 -45.5 205.5t-130.5 64.5q-59 0 -113 -39t-96 -111t-67 -173.5t-25 -225.5z" />
<glyph unicode="&#x432;" horiz-adv-x="1143" d="M84 369q0 86 20 175t58.5 172t95.5 156.5t130.5 128t163.5 86t196 31.5q79 0 141.5 -16t106 -46.5t66.5 -74t23 -98.5q0 -64 -24.5 -117.5t-71 -96t-113.5 -73t-151 -47.5q58 -7 109.5 -27.5t90 -53t61 -75.5t22.5 -96q0 -72 -35 -130.5t-97.5 -100t-148.5 -64 t-188 -22.5q-109 0 -194 27.5t-143 78.5t-88 122.5t-30 160.5zM389 346q0 -64 16 -107t42.5 -69.5t59.5 -37.5t68 -11q38 0 66.5 13t48 36.5t29.5 55t10 69.5q0 34 -13.5 68t-37.5 62.5t-55.5 49.5t-67.5 29q-11 -2 -30.5 -3t-41.5 -2.5t-44.5 -2t-39.5 -0.5q-3 -17 -5 -37 t-3 -40.5t-1.5 -39t-0.5 -33.5zM418 621h16q72 0 136.5 10.5t113.5 37t78 71.5t29 114q0 40 -10 67.5t-26.5 45t-37.5 25t-43 7.5q-45 0 -86.5 -36.5t-76 -92t-59 -122.5t-34.5 -127z" />
<glyph unicode="&#x433;" horiz-adv-x="1057" d="M41 268q0 65 19.5 110.5t64.5 81.5t117.5 67t177.5 67q102 34 163.5 62.5t94 56.5t43 59t10.5 70q0 28 -8.5 52.5t-27.5 41.5t-50.5 27t-77.5 10q-52 0 -100.5 -10.5t-90 -28t-74.5 -40t-54 -46.5q-9 6 -15 24t-6 39q0 36 16.5 72.5t60.5 66.5t121 49t198 19 q116 0 195 -19t127.5 -51t69.5 -74t21 -87q0 -53 -13 -94t-53 -78t-114.5 -74t-196.5 -82q-82 -30 -140 -55t-94.5 -54t-53.5 -67t-17 -94q0 -72 43.5 -113t147.5 -41q55 0 108 14t99 36t81 49.5t54 54.5q8 -6 15 -27.5t7 -44.5q0 -40 -21.5 -82t-72.5 -76.5t-134 -56.5 t-206 -22q-215 0 -324.5 76.5t-109.5 211.5z" />
<glyph unicode="&#x434;" horiz-adv-x="1282" d="M82 403q0 83 18 163.5t52 152.5t83 132.5t112 104.5t137.5 68.5t160.5 24.5q36 0 71 -7.5t66 -20.5t54.5 -31t37.5 -40q0 94 -14 183.5t-47.5 159t-88.5 111.5t-136 42q-30 0 -60.5 -4t-58.5 -9.5t-51.5 -12t-38.5 -11.5l-29 121q17 7 45.5 15.5t64.5 15.5t76 11.5 t80 4.5q119 0 225.5 -43.5t186 -128t126 -209t46.5 -287.5q0 -211 -44 -382.5t-128.5 -293t-208 -187.5t-282.5 -66q-116 0 -201.5 30.5t-141.5 86t-84 133.5t-28 173zM393 406q0 -73 14 -125.5t38.5 -86t59 -49.5t75.5 -16q48 0 87.5 26.5t71 72.5t55 108t39.5 132t25 145 t12 147q-12 34 -32.5 61.5t-46 46.5t-55 29t-60.5 10q-58 0 -109.5 -35t-90 -100t-61 -157.5t-22.5 -208.5z" />
<glyph unicode="&#x435;" horiz-adv-x="1096" d="M82 403q0 76 20 159t59.5 162.5t98 151t135.5 125.5t172.5 85.5t208.5 31.5q147 0 228 -63.5t81 -177.5q0 -83 -46 -159t-127 -133.5t-193 -91.5t-244 -34h-37t-39 2q-3 -20 -3.5 -40.5t-0.5 -37.5q0 -119 55.5 -183.5t167.5 -64.5q50 0 95 14.5t83.5 38t69 53t52.5 60.5 q12 -15 19 -38.5t7 -49.5q0 -37 -24 -78t-73.5 -75.5t-126 -57t-181.5 -22.5q-94 0 -177 26t-145.5 78.5t-98.5 132t-36 186.5zM414 578h18q76 0 141.5 20t114 57.5t76 89.5t27.5 117q0 63 -26.5 98t-74.5 35q-50 0 -95 -37.5t-81 -97.5t-62 -134.5t-38 -147.5z" />
<glyph unicode="&#x436;" horiz-adv-x="2410" d="M0 203q0 34 15 64.5t44.5 53.5t72.5 36.5t99 13.5q0 -56 6.5 -104t21 -84t36.5 -56.5t53 -20.5q40 0 78 25t71 67.5t60.5 99.5t47 121.5t30 132.5t10.5 134q0 60 -10 110t-32.5 86t-59 56t-88.5 20q-48 0 -86 -11.5t-70 -31.5t-58.5 -48t-50.5 -62q-8 11 -13 31t-5 49 q0 37 21.5 78t67 75.5t115.5 57t167 22.5q98 0 172.5 -29t125 -81t76 -124t25.5 -159q0 -34 -3 -59t-9 -62h151l105 500h260l-107 -500h160q31 101 87.5 194t134.5 164t177 113.5t216 42.5q76 0 131.5 -18t92 -48t54.5 -70t18 -85q0 -34 -15 -64.5t-44.5 -53.5t-72.5 -36.5 t-99 -13.5q0 55 -7 103.5t-21 84t-36 56t-53 20.5q-40 0 -78 -25.5t-71 -69.5t-60 -102.5t-46.5 -124t-30.5 -135t-11 -135.5q0 -60 10.5 -108t33 -82.5t59 -53t88.5 -18.5q48 0 86 11.5t70 32t58 48.5t50 62q8 -11 13 -31t5 -49q0 -37 -21.5 -78t-66.5 -75.5t-115 -57 t-167 -22.5q-98 0 -173 27.5t-125.5 78t-76 121.5t-25.5 158q0 34 3.5 69t9.5 72h-162l-109 -506h-254l105 506h-150q-32 -101 -88 -195.5t-134 -167.5t-176.5 -117t-215.5 -44q-76 0 -132 18t-92.5 48t-54.5 70t-18 85z" />
<glyph unicode="&#x437;" horiz-adv-x="1065" d="M0 215q0 32 9.5 61.5t33.5 52t65 35.5t103 13q0 -73 20 -125.5t52.5 -86t72 -49.5t78.5 -16q106 0 168 56t62 176q0 35 -13.5 67.5t-39.5 57t-64 39t-86 14.5h-191l23 127h203q54 0 99 15t77 42.5t49.5 66.5t17.5 87q0 31 -8 59t-25.5 49.5t-44.5 34.5t-65 13 q-42 0 -75.5 -18t-58.5 -49.5t-41.5 -75.5t-25.5 -95q-111 0 -165 31.5t-54 87.5q0 41 25 83.5t79.5 76.5t140.5 55.5t208 21.5q100 0 175.5 -19.5t126.5 -53.5t77 -80t26 -99q0 -63 -24.5 -109.5t-64 -80.5t-90.5 -57t-105 -39l-2 -11q43 -11 80 -31.5t64.5 -50t43.5 -67 t16 -82.5q0 -86 -35 -153t-103 -113.5t-167.5 -71t-228.5 -24.5q-111 0 -190 21t-129.5 54.5t-74.5 75.5t-24 84z" />
<glyph unicode="&#x438;" horiz-adv-x="1378" d="M117 989l18 109h492l-135 -613q-6 -24 -12 -54t-11 -60t-8.5 -57t-3.5 -46q0 -45 19 -71.5t69 -26.5q45 0 92.5 40.5t91 105t77.5 144t52 156.5l109 482h305l-139 -666q-13 -56 -21 -104.5t-8 -91.5q0 -45 18.5 -69t53.5 -24q32 0 58.5 12t61.5 35l50 -69 q-25 -26 -56 -51.5t-69.5 -45.5t-85.5 -32t-103 -12q-68 0 -113.5 15.5t-73.5 42t-40 62t-12 76.5q0 9 1 21t2.5 25t3 24.5t3.5 19.5h-17q-45 -64 -88.5 -116t-92.5 -89.5t-106 -58t-130 -20.5q-66 0 -111 18.5t-72 49.5t-39 72.5t-12 86.5q0 51 12 112t23 113l74 361 q8 42 13 76t5 51q0 41 -25 54t-83 13h-37z" />
<glyph unicode="&#x439;" horiz-adv-x="1378" d="M117 989l18 109h492l-135 -613q-6 -24 -12 -54t-11 -60t-8.5 -57t-3.5 -46q0 -45 19 -71.5t69 -26.5q45 0 92.5 40.5t91 105t77.5 144t52 156.5l109 482h305l-139 -666q-13 -56 -21 -104.5t-8 -91.5q0 -45 18.5 -69t53.5 -24q32 0 58.5 12t61.5 35l50 -69 q-25 -26 -56 -51.5t-69.5 -45.5t-85.5 -32t-103 -12q-68 0 -113.5 15.5t-73.5 42t-40 62t-12 76.5q0 9 1 21t2.5 25t3 24.5t3.5 19.5h-17q-45 -64 -88.5 -116t-92.5 -89.5t-106 -58t-130 -20.5q-66 0 -111 18.5t-72 49.5t-39 72.5t-12 86.5q0 51 12 112t23 113l74 361 q8 42 13 76t5 51q0 41 -25 54t-83 13h-37zM451 1468q0 47 18 86l238 27q-6 -19 -10.5 -45t-4.5 -49q0 -53 34.5 -88t107.5 -35q77 0 140.5 22.5t114.5 57.5t90.5 78t69.5 84l72 -56q-38 -54 -86.5 -109.5t-113.5 -99.5t-149.5 -72t-193.5 -28q-94 0 -157 19t-100.5 50.5 t-53.5 72.5t-16 85z" />
<glyph unicode="&#x43a;" horiz-adv-x="1239" d="M43 0l168 795q9 42 13.5 76t4.5 51q0 41 -25 54t-83 13h-37l22 109h484l-109 -475q28 0 65.5 25t88.5 85l100 119q55 67 97.5 116.5t83 82.5t84.5 49t102 16q42 0 72 -11.5t49.5 -30t29 -43t9.5 -50.5q0 -74 -37.5 -118t-112.5 -44q0 65 -19.5 91t-62.5 26 q-27 0 -53.5 -13.5t-53 -37t-53.5 -54.5t-55 -65q-31 -38 -55.5 -65t-46 -46.5t-41.5 -32.5t-41 -22q100 0 169.5 -52.5t112.5 -148.5l58 -125q21 -46 40 -79.5t41 -56t49 -33.5t62 -11h13l-25 -108h-27q-106 0 -179.5 8.5t-124.5 32t-84.5 65t-59.5 107.5l-70 178 q-12 31 -25.5 53t-31 36t-40.5 21t-54 7l-105 -494h-307z" />
<glyph unicode="&#x43b;" horiz-adv-x="1401" d="M0 127q0 39 12.5 67t31.5 45.5t41.5 26t43.5 8.5q0 -16 5 -33t15 -31t25 -23t35 -9q29 0 53.5 14t51 56t59 118t78.5 199q37 98 67 177.5t59 140.5t60 105.5t70 73.5t88.5 42.5t115.5 13.5q46 0 95.5 -2.5t99 -7.5t97 -12.5t89.5 -16.5l-137 -647q-12 -56 -20.5 -104.5 t-8.5 -91.5q0 -45 19 -69t53 -24q32 0 59 12t62 35l49 -69q-24 -26 -55 -51.5t-70 -45.5t-85.5 -32t-102.5 -12q-118 0 -181 55.5t-63 154.5q0 44 7 105t26 139l86 375q2 11 6.5 31t10 43t10.5 46.5t8 41.5q-8 2 -29.5 5t-38.5 3q-52 0 -91.5 -15.5t-75.5 -63.5t-74 -136.5 t-87 -233.5q-51 -152 -94.5 -256t-88.5 -168t-97 -92t-119 -28q-81 0 -125.5 34.5t-44.5 106.5z" />
<glyph unicode="&#x43c;" horiz-adv-x="1939" d="M0 123q0 33 10 60.5t26.5 48t38 31.5t44.5 11q0 -16 5 -33t15 -31t25 -23t35 -9q29 0 53 14t50.5 56t59 118t78.5 199q28 75 48 132.5t36 101t30.5 76.5t31.5 59q-29 34 -71.5 44.5t-90.5 10.5h-27l27 109h487l99 -699l473 699h352l-141 -666q-13 -56 -21 -104.5 t-8 -91.5q0 -45 19 -69t53 -24q32 0 58.5 12t62.5 35l49 -69q-25 -26 -56 -51.5t-69.5 -45.5t-85.5 -32t-103 -12q-117 0 -180 55.5t-63 154.5q0 44 7 105t25 139l97 414h-13l-585 -848h-95l-124 817q-17 -43 -41 -111.5t-62 -175.5q-57 -162 -107 -267.5t-99.5 -167 t-102.5 -85.5t-117 -24q-35 0 -60.5 12t-41.5 31t-23.5 43.5t-7.5 50.5z" />
<glyph unicode="&#x43d;" horiz-adv-x="1399" d="M78 0l168 795q9 42 13.5 76t4.5 51q0 41 -25 54t-83 13h-37l22 109h484l-109 -475h365l106 475h305l-139 -666q-12 -56 -20.5 -104.5t-8.5 -91.5q0 -45 19 -69t53 -24q32 0 59 12t62 35l49 -69q-25 -26 -56 -51.5t-69.5 -45.5t-85 -32t-102.5 -12q-68 0 -115 17t-76 45.5 t-42 65.5t-13 78q0 31 5.5 71.5t14.5 88.5l29 148h-367l-104 -494h-307z" />
<glyph unicode="&#x43e;" horiz-adv-x="1266" d="M82 410q0 77 18 159t54.5 161t91.5 149.5t129.5 123.5t169 84t209.5 31q88 0 166 -24.5t136 -76.5t92 -133.5t34 -195.5q0 -74 -17 -155t-52.5 -159.5t-90 -150t-128.5 -125.5t-168 -86t-210 -32q-96 0 -176 26.5t-137 80t-89 134.5t-32 189zM395 360q0 -125 42 -179 t116 -54q55 0 99.5 31.5t80 83t61.5 117.5t42.5 136t25 137.5t8.5 121.5q0 121 -41.5 174t-113.5 53q-52 0 -96 -30t-79.5 -80t-62.5 -114.5t-45.5 -133.5t-27.5 -137.5t-9 -125.5z" />
<glyph unicode="&#x43f;" horiz-adv-x="1376" d="M76 0l172 815q3 13 5.5 27t4.5 26.5t3 21.5t1 13q0 28 -6 45t-19 26t-33.5 12t-49.5 3h-37l18 109h455l-23 -219h13q39 61 80.5 106t89.5 74.5t104.5 44t124.5 14.5q65 0 109.5 -19t72 -51.5t39.5 -75t12 -89.5q0 -26 -3.5 -55.5t-9 -59.5t-12 -60t-11.5 -57l-46 -219 q-12 -56 -20 -104.5t-8 -91.5q0 -45 18.5 -69t53.5 -24q32 0 58.5 12t61.5 35l49 -69q-24 -26 -55 -51.5t-69.5 -45.5t-85.5 -32t-103 -12q-118 0 -181 55.5t-63 154.5q0 88 33 244l33 162q4 20 10 49t12 60.5t10.5 63t4.5 56.5q0 19 -3.5 40t-13 38t-26 28t-43.5 11 q-35 0 -69.5 -23.5t-66.5 -62t-61 -88t-52.5 -101.5t-40.5 -102t-26 -90l-104 -475h-307z" />
<glyph unicode="&#x440;" horiz-adv-x="1276" d="M-61 -492l278 1307q3 13 5.5 27t4.5 26.5t3 21.5t1 13q0 28 -6 45t-19 26t-33.5 12t-49.5 3h-37l18 109h441l-53 -273h14q35 64 72 118t82 93t102 60.5t133 21.5q67 0 122.5 -24t94.5 -71t60.5 -116t21.5 -159q0 -74 -17.5 -159.5t-52.5 -171t-87.5 -164.5t-123.5 -139.5 t-159.5 -97t-194.5 -36.5q-62 0 -115.5 12.5t-93.5 34.5q-1 -16 -4 -33q-2 -14 -5 -31.5t-7 -34.5l-29 -137q-3 -13 -5.5 -27t-4.5 -26.5t-3 -21.5t-1 -13q0 -28 6 -45t19 -26t33.5 -12t49.5 -3h78l-18 -109h-520zM391 168q9 -9 24 -19.5t34 -18.5t41.5 -13.5t46.5 -5.5 q55 0 102.5 30t86 80t68.5 114.5t50 133.5t30.5 137.5t10.5 126.5q0 42 -5.5 81.5t-18 70.5t-34 50t-53.5 19q-34 0 -67.5 -19.5t-65 -52.5t-59 -76t-50 -89.5t-39 -93.5t-24.5 -88z" />
<glyph unicode="&#x441;" horiz-adv-x="1081" d="M82 403q0 76 19 158.5t57 162t94.5 151t131.5 125.5t168 86t204 32q85 0 146.5 -17.5t101 -47t58.5 -69t19 -83.5q0 -32 -13.5 -62.5t-43.5 -55t-77.5 -39.5t-115.5 -15q0 54 -9.5 102.5t-28.5 85t-46.5 57.5t-64.5 21q-44 0 -82.5 -29.5t-70.5 -78t-56.5 -111t-42 -129 t-26.5 -131t-9 -117.5q0 -125 57 -194.5t169 -69.5q54 0 97.5 14.5t78.5 38.5t62 54t48 61q13 -12 22 -35.5t9 -54.5q0 -40 -23.5 -81.5t-73 -75t-125.5 -55t-181 -21.5q-93 0 -175.5 26t-144 79t-97.5 132t-36 186z" />
<glyph unicode="&#x442;" horiz-adv-x="1985" d="M76 0l172 815q3 13 5.5 27t4.5 26.5t3 21.5t1 13q0 28 -6 45t-19 26t-33.5 12t-49.5 3h-37l18 109h475l-39 -209h15q40 62 82.5 105.5t89.5 71t99.5 40t113.5 12.5q64 0 107 -18t69 -49t37.5 -71t11.5 -85v-16h12q38 61 78.5 107t87.5 76.5t102 46t121 15.5q63 0 106 -19 t70 -51.5t38.5 -75t11.5 -89.5q0 -26 -4 -55.5t-9.5 -59.5t-12 -60t-11.5 -57l-47 -219q-13 -55 -21 -104t-8 -92q0 -45 19 -68.5t53 -23.5q32 0 58.5 12t62.5 35l49 -70q-25 -26 -56 -51.5t-69.5 -45.5t-85.5 -32t-103 -12q-117 0 -180 56t-63 155q0 43 7.5 104t24.5 139 l35 162q5 20 11.5 49t12 60.5t9.5 63t4 56.5q0 19 -3.5 40t-12.5 38t-25 28t-41 11q-33 0 -65.5 -23t-63.5 -60.5t-58.5 -86t-50 -99.5t-38.5 -100.5t-23 -89.5l-16 -86q-4 -21 -9.5 -57.5t-11.5 -78.5t-12 -86t-10.5 -81.5t-7 -64.5t-2.5 -35h-318q0 12 3.5 42t9.5 70.5 t14 87.5l16 94t16 89.5t15 73.5l31 143q4 19 9.5 48t11 60.5t9.5 63.5t4 57q0 19 -2 39t-8.5 36.5t-20 27t-36.5 10.5q-34 0 -67.5 -21t-64.5 -56t-59 -80t-50.5 -92.5t-39 -94t-24.5 -84.5l-115 -514h-307z" />
<glyph unicode="&#x443;" horiz-adv-x="1200" d="M-344 -455l31 115q24 -8 67.5 -17.5t106.5 -9.5q94 0 172 25t144.5 67.5t125 99.5t113.5 122l-256 934q-17 61 -49.5 84.5t-92.5 23.5h-20l25 109h401l135 -531q10 -40 21 -93.5t21 -107t17 -100t9 -71.5h6q61 82 115 165t94.5 161.5t64 149.5t23.5 130q0 69 -33.5 105 t-93.5 36q0 40 12.5 72.5t34.5 55.5t52 35.5t65 12.5q83 0 125.5 -46t42.5 -128q0 -80 -27 -169t-77 -189t-121.5 -212t-161.5 -237q-74 -104 -139 -191t-127.5 -157t-127 -122.5t-137 -88t-158 -53t-190.5 -17.5q-59 0 -114.5 10t-98.5 27z" />
<glyph unicode="&#x444;" horiz-adv-x="1763" d="M82 387q0 74 15 156.5t46.5 164t79 155.5t113 131t148.5 90.5t186 33.5q51 0 98 -12t82 -31l16 72q25 114 69 195.5t107 133.5t145 76.5t185 24.5q75 0 129.5 -13.5t89.5 -36t51.5 -52t16.5 -62.5q0 -30 -15 -53.5t-41 -39t-61 -24t-76 -8.5q0 31 -4 62t-15.5 56 t-32 40.5t-52.5 15.5q-75 0 -121.5 -62t-71.5 -183l-36 -177q21 16 46 30.5t55 25t67 16.5t83 6q61 0 115.5 -24.5t94.5 -75t63.5 -127t23.5 -180.5q0 -74 -15 -156.5t-46 -164t-78.5 -155.5t-112.5 -131t-148 -90.5t-185 -33.5q-51 0 -98 12t-83 31l-24 -95 q-29 -110 -78.5 -189.5t-115.5 -130.5t-147 -75.5t-175 -24.5q-72 0 -121 12.5t-79.5 34t-44 50.5t-13.5 61q0 66 45.5 103.5t126.5 37.5q0 -30 5 -62.5t17.5 -59.5t34 -44.5t53.5 -17.5q76 0 120.5 62t72.5 184l41 188q-22 -16 -46.5 -30t-54.5 -24.5t-66.5 -16.5t-82.5 -6 q-62 0 -117 24.5t-96 74.5t-64.5 127t-23.5 181zM381 373q0 -68 9.5 -112t26.5 -70.5t40.5 -37t52.5 -10.5q45 0 84.5 24.5t67.5 55.5l159 713q-11 14 -26.5 23.5t-32 15.5t-33 9t-31.5 3q-55 0 -100 -30.5t-80.5 -80t-61 -114t-42.5 -133t-25 -135t-8 -121.5zM942 162 q6 -9 19.5 -18t31 -16.5t37.5 -12t39 -4.5q54 0 98.5 30.5t79 80t60 114t42.5 133t25 135t8 121.5q0 71 -10 118t-27 74.5t-41.5 38.5t-52.5 11q-46 0 -81.5 -17t-63.5 -45z" />
<glyph unicode="&#x445;" horiz-adv-x="1237" d="M-41 0l21 109h26q29 0 52.5 4.5t47 18.5t51.5 40t66 68l258 284l-141 340q-16 39 -31.5 63t-33.5 38t-40 19t-51 5h-24l20 109h385l144 -389l284 389h250l-20 -109h-37q-30 0 -53.5 -6t-47 -22.5t-50 -45t-62.5 -73.5l-211 -244l149 -344q19 -43 35.5 -71t34.5 -44.5 t40 -23t52 -6.5h27l-21 -109h-397l-154 414l-319 -414h-250z" />
<glyph unicode="&#x446;" horiz-adv-x="1399" d="M117 989l18 109h492l-135 -613q-6 -24 -12 -54t-11 -60t-8.5 -57t-3.5 -46q0 -45 19 -71.5t69 -26.5q45 0 92.5 40.5t91 105t77.5 144t52 156.5l109 482h305l-139 -666q-13 -56 -21 -104.5t-8 -91.5q0 -45 18.5 -69t53.5 -24q31 0 58.5 12t61.5 35l50 -69 q-29 -153 -56 -264t-63.5 -183t-87 -106.5t-125.5 -34.5q-53 0 -96 6t-79 16.5t-67 25t-61 30.5l43 110q31 -9 68 -17.5t83 -8.5q84 0 152.5 71.5t116.5 202.5l16 45q-18 -8 -35.5 -14.5t-38 -11t-45.5 -6.5t-59 -2q-60 0 -101.5 15.5t-68 42t-38 62t-11.5 76.5q0 9 1 21 t2.5 25t3 24.5t3.5 19.5h-17q-45 -64 -88.5 -116t-92.5 -89.5t-106 -58t-130 -20.5q-66 0 -111 18.5t-72 49.5t-39 72.5t-12 86.5q0 51 12 112t23 113l74 361q8 42 13 76t5 51q0 41 -25 54t-83 13h-37z" />
<glyph unicode="&#x447;" horiz-adv-x="1337" d="M57 989l23 109h483l-55 -246q-5 -25 -11.5 -54.5t-11.5 -59.5t-8.5 -57t-3.5 -46q0 -45 19.5 -71.5t68.5 -26.5q51 0 117.5 21t146.5 65l101 475h305l-139 -666q-13 -56 -21 -104.5t-8 -91.5q0 -45 19 -69t53 -24q32 0 58.5 12t61.5 35l50 -69q-25 -26 -56 -51.5 t-69.5 -45.5t-85.5 -32t-103 -12q-68 0 -114.5 17t-76 45.5t-42.5 65.5t-13 78q0 31 6 71.5t15 88.5l33 154q-42 -24 -86.5 -46.5t-93.5 -40t-103 -28t-113 -10.5q-71 0 -118 18.5t-75 49.5t-40 72.5t-12 86.5q0 51 7.5 95.5t18.5 97.5q19 80 19 127q0 41 -25.5 54t-83.5 13 h-37z" />
<glyph unicode="&#x448;" horiz-adv-x="1991" d="M117 989l18 109h492l-135 -613q-6 -24 -12 -54t-11 -60t-8.5 -57t-3.5 -46q0 -45 19 -71.5t69 -26.5q45 0 89.5 40.5t84 105t70.5 144t49 156.5l108 482h314l-136 -613q-5 -24 -11 -54t-11 -60t-8.5 -57t-3.5 -46q0 -45 22 -71.5t66 -26.5q40 0 84.5 40.5t84.5 105 t72.5 144t50.5 156.5l109 482h305l-139 -666q-12 -56 -20.5 -104.5t-8.5 -91.5q0 -45 19 -69t53 -24q32 0 59 12t62 35l49 -69q-25 -26 -56 -51.5t-69.5 -45.5t-85 -32t-102.5 -12q-68 0 -114 15.5t-74 42t-40 62t-12 76.5q0 17 1.5 35.5t4.5 34.5h-16q-42 -67 -80.5 -116.5 t-83 -82.5t-100 -49t-132.5 -16q-60 0 -101.5 17.5t-67 51t-37 82.5t-11.5 113h-10q-45 -67 -86 -116.5t-87.5 -82.5t-101.5 -49t-128 -16q-66 0 -111 18.5t-72 49.5t-39 72.5t-12 86.5q0 51 12 112t23 113l74 361q8 42 13 76t5 51q0 41 -25 54t-83 13h-37z" />
<glyph unicode="&#x449;" horiz-adv-x="2011" d="M117 989l18 109h492l-135 -613q-6 -24 -12 -54t-11 -60t-8.5 -57t-3.5 -46q0 -45 19 -71.5t69 -26.5q45 0 89.5 40.5t84 105t70.5 144t49 156.5l108 482h314l-136 -613q-5 -24 -11 -54t-11 -60t-8.5 -57t-3.5 -46q0 -45 22 -71.5t66 -26.5q40 0 84.5 40.5t84.5 105 t72.5 144t50.5 156.5l109 482h305l-139 -666q-12 -56 -20.5 -104.5t-8.5 -91.5q0 -45 19 -69t53 -24q31 0 59 12t62 35l49 -69q-29 -153 -56 -264t-63 -183t-87 -106.5t-126 -34.5q-53 0 -95.5 6t-78.5 16.5t-67.5 25t-61.5 30.5l43 110q31 -9 68 -17.5t84 -8.5 q83 0 151.5 71.5t116.5 202.5l16 45q-37 -17 -78 -25.5t-100 -8.5q-64 0 -106 15.5t-67 42t-35.5 62t-10.5 76.5q0 17 1.5 35.5t4.5 34.5h-16q-42 -67 -80.5 -116.5t-83 -82.5t-100 -49t-132.5 -16q-60 0 -101.5 17.5t-67 51t-37 82.5t-11.5 113h-10q-45 -67 -86 -116.5 t-87.5 -82.5t-101.5 -49t-128 -16q-66 0 -111 18.5t-72 49.5t-39 72.5t-12 86.5q0 51 12 112t23 113l74 361q8 42 13 76t5 51q0 41 -25 54t-83 13h-37z" />
<glyph unicode="&#x44a;" horiz-adv-x="1341" d="M45 770l84 328h717l61 -111q-36 -33 -77 -78.5t-78 -95.5t-66.5 -100t-42.5 -92q30 4 55.5 8t49.5 7t48.5 5t53.5 2q113 0 191 -21.5t127 -61t70.5 -94.5t21.5 -122q0 -90 -39 -158t-108 -114t-163 -69t-205 -23q-235 0 -349.5 91t-114.5 267q0 78 27.5 160.5t82 165.5 t136.5 165.5t190 161.5q-45 -8 -93 -14q-42 -5 -94 -9.5t-104 -4.5q-51 0 -86.5 -2t-62 -14t-46.5 -37.5t-38 -71.5l-27 -68h-121zM586 307q0 -99 44 -143.5t126 -44.5q47 0 81.5 16.5t57.5 45.5t34 68.5t11 86.5q0 93 -43.5 136.5t-130.5 43.5q-51 0 -89 -3t-61 -5 q-5 -20 -10.5 -45.5t-10 -53t-7 -54t-2.5 -48.5z" />
<glyph unicode="&#x44b;" horiz-adv-x="1806" d="M117 989l22 109h477l-100 -465q59 5 109.5 7.5t79.5 2.5q204 0 297.5 -75t93.5 -224q0 -90 -38 -158t-103.5 -114t-153.5 -69t-187 -23q-230 0 -346 76.5t-116 234.5q0 42 6.5 91t15.5 89l70 324q9 42 13.5 76t4.5 51q0 41 -25 54t-83 13h-37zM461 293q0 -84 33.5 -129 t113.5 -45q43 0 74.5 16.5t52.5 45.5t31 68.5t10 86.5q0 93 -38.5 136.5t-112.5 43.5q-51 0 -82.5 -3t-53.5 -5q-5 -24 -9.5 -52.5t-9 -57.5t-7 -56.5t-2.5 -48.5zM1198 989l18 109h486l-142 -666q-12 -56 -20 -104.5t-8 -91.5q0 -45 18.5 -69t52.5 -24q32 0 59 12t62 35 l49 -69q-24 -26 -55 -51.5t-70 -45.5t-85.5 -32t-102.5 -12q-118 0 -181 55.5t-63 154.5q0 44 8 105t25 139l80 381q3 13 5.5 27t4.5 26.5t3 21.5t1 13q0 28 -6 45t-19 26t-33.5 12t-49.5 3h-37z" />
<glyph unicode="&#x44c;" horiz-adv-x="1219" d="M117 989l22 109h477l-100 -465q63 5 117 7.5t86 2.5q218 0 318 -75t100 -224q0 -90 -41.5 -158t-112.5 -114t-166 -69t-203 -23q-230 0 -346 76.5t-116 234.5q0 49 6.5 94.5t15.5 85.5l70 324q9 42 13.5 76t4.5 51q0 41 -25 54t-83 13h-37zM461 293q0 -83 38.5 -128.5 t127.5 -45.5q49 0 85 16.5t59 45.5t34.5 68.5t11.5 86.5q0 93 -44.5 136.5t-129.5 43.5q-57 0 -93 -3t-61 -5q-5 -24 -9.5 -52.5t-9 -57.5t-7 -56.5t-2.5 -48.5z" />
<glyph unicode="&#x44d;" horiz-adv-x="1098" d="M0 203q0 32 13 62.5t40.5 54t71.5 37.5t106 14q0 -130 42 -201.5t114 -71.5q56 0 103.5 34.5t85 90.5t64.5 128.5t42 148.5h-434l28 131h420q2 9 3 22t1 25q0 142 -54 214.5t-163 72.5q-53 0 -97 -16.5t-79 -43t-60 -58t-40 -61.5q-19 8 -31 32t-12 56q0 42 24.5 85 t76 78.5t130.5 58t187 22.5q102 0 182.5 -30t136.5 -86.5t85.5 -137.5t29.5 -182q0 -73 -19.5 -153t-57 -158t-93 -149t-128 -124.5t-162 -85.5t-194.5 -32q-103 0 -172.5 19t-111.5 50t-60 71.5t-18 82.5z" />
<glyph unicode="&#x44e;" horiz-adv-x="1862" d="M78 0l168 795q9 42 13.5 76t4.5 51q0 41 -25 54t-83 13h-37l22 109h484l-109 -475h234q27 93 78 182t128 158.5t179.5 112t232.5 42.5q84 0 159 -24t131.5 -75t89 -131.5t32.5 -193.5q0 -73 -16.5 -154t-51 -160.5t-87 -151.5t-124 -127.5t-162.5 -88t-202 -32.5 q-92 0 -169 26.5t-132.5 80t-86 134.5t-30.5 189q0 20 1 41t3 43h-234l-104 -494h-307zM1032 356q0 -62 10 -105.5t28.5 -71t45.5 -40t60 -12.5q50 0 91 32t73.5 84.5t56.5 119.5t40 137t23.5 137.5t7.5 120.5q0 60 -10 102.5t-28.5 69t-44.5 39t-58 12.5q-48 0 -88.5 -30.5 t-73.5 -81t-57.5 -116t-41.5 -135t-25.5 -138t-8.5 -124.5z" />
<glyph unicode="&#x44f;" horiz-adv-x="1319" d="M0 133q0 33 10 59t27 44.5t39 28t47 9.5q0 -16 5.5 -33t16 -31t27 -23t37.5 -9t41.5 5.5t40 21t39 42t39.5 68.5q23 48 43 81t39.5 55t38.5 35.5t40 23.5q-69 9 -131 30t-108.5 56t-73.5 85t-27 118q0 75 28 134t93 99.5t172.5 62t266.5 21.5q141 0 258.5 -19.5 t195.5 -43.5l-131 -621q-9 -46 -19 -99.5t-10 -96.5q0 -45 19 -69t53 -24q32 0 59 12t62 35l49 -69q-24 -26 -55 -51.5t-70 -45.5t-85.5 -32t-102.5 -12q-68 0 -114.5 17t-76 45.5t-42.5 65.5t-13 78q0 31 5 71.5t16 88.5l30 139h-49q-47 0 -78.5 -9.5t-57 -34.5t-48 -67 t-51.5 -106q-37 -82 -72 -136.5t-73 -86.5t-83 -45.5t-102 -13.5q-82 0 -123 41t-41 106zM518 791q0 -50 17 -85t46 -58t66.5 -33.5t79.5 -10.5h74l80 379q-59 18 -150 18q-102 0 -157.5 -55t-55.5 -155z" />
<glyph unicode="&#x450;" horiz-adv-x="1096" d="M82 403q0 76 20 159t59.5 162.5t98 151t135.5 125.5t172.5 85.5t208.5 31.5q147 0 228 -63.5t81 -177.5q0 -83 -46 -159t-127 -133.5t-193 -91.5t-244 -34h-37t-39 2q-3 -20 -3.5 -40.5t-0.5 -37.5q0 -119 55.5 -183.5t167.5 -64.5q50 0 95 14.5t83.5 38t69 53t52.5 60.5 q12 -15 19 -38.5t7 -49.5q0 -37 -24 -78t-73.5 -75.5t-126 -57t-181.5 -22.5q-94 0 -177 26t-145.5 78.5t-98.5 132t-36 186.5zM414 578h18q76 0 141.5 20t114 57.5t76 89.5t27.5 117q0 63 -26.5 98t-74.5 35q-50 0 -95 -37.5t-81 -97.5t-62 -134.5t-38 -147.5zM429 1548 l6 21h301q12 -37 31.5 -80t40.5 -84t42.5 -77t38.5 -60l-6 -27h-121q-44 26 -93.5 66t-95.5 83.5t-84.5 85.5t-59.5 72z" />
<glyph unicode="&#x451;" horiz-adv-x="1096" d="M82 403q0 76 20 159t59.5 162.5t98 151t135.5 125.5t172.5 85.5t208.5 31.5q147 0 228 -63.5t81 -177.5q0 -83 -46 -159t-127 -133.5t-193 -91.5t-244 -34h-37t-39 2q-3 -20 -3.5 -40.5t-0.5 -37.5q0 -119 55.5 -183.5t167.5 -64.5q50 0 95 14.5t83.5 38t69 53t52.5 60.5 q12 -15 19 -38.5t7 -49.5q0 -37 -24 -78t-73.5 -75.5t-126 -57t-181.5 -22.5q-94 0 -177 26t-145.5 78.5t-98.5 132t-36 186.5zM399 1386q0 66 33 105t90 39q49 0 80.5 -28t31.5 -85q0 -40 -11 -67t-28 -44t-39 -24.5t-44 -7.5q-51 0 -82 27.5t-31 84.5zM414 578h18 q76 0 141.5 20t114 57.5t76 89.5t27.5 117q0 63 -26.5 98t-74.5 35q-50 0 -95 -37.5t-81 -97.5t-62 -134.5t-38 -147.5zM827 1386q0 66 33 105t90 39q49 0 80.5 -28t31.5 -85q0 -40 -11 -67t-28 -44t-39 -24.5t-44 -7.5q-51 0 -82 27.5t-31 84.5z" />
<glyph unicode="&#x452;" horiz-adv-x="1290" d="M43 0l250 1184h-174l24 108h174q5 22 8 43t3 27q0 28 -6 45t-19 26t-34 12t-50 3h-43l19 108h495l-57 -264h317l-24 -108h-316l-26 -121q-8 -31 -17.5 -70t-18.5 -74q-11 -41 -22 -83h13q39 61 80.5 106t89.5 74.5t104.5 44t124.5 14.5q65 0 109.5 -19t72 -51.5t39.5 -75 t12 -89.5q0 -26 -3.5 -55.5t-9 -59.5t-12 -60t-11.5 -57l-123 -620q-27 -137 -76 -229t-112.5 -148t-137.5 -79.5t-151 -23.5q-65 0 -112.5 7t-90.5 18l24 107q16 -5 43.5 -10t49.5 -5q47 0 82.5 17.5t63.5 59.5t51 111t44 171l121 569q4 20 10 49t12 60.5t10.5 63t4.5 56.5 q0 19 -3.5 40t-12.5 38t-26 28t-44 11q-35 0 -69.5 -23.5t-66.5 -62t-61 -88t-52.5 -101.5t-40.5 -102t-26 -90l-96 -432h-307z" />
<glyph unicode="&#x453;" horiz-adv-x="1057" d="M41 268q0 65 19.5 110.5t64.5 81.5t117.5 67t177.5 67q102 34 163.5 62.5t94 56.5t43 59t10.5 70q0 28 -8.5 52.5t-27.5 41.5t-50.5 27t-77.5 10q-52 0 -100.5 -10.5t-90 -28t-74.5 -40t-54 -46.5q-9 6 -15 24t-6 39q0 36 16.5 72.5t60.5 66.5t121 49t198 19 q116 0 195 -19t127.5 -51t69.5 -74t21 -87q0 -53 -13 -94t-53 -78t-114.5 -74t-196.5 -82q-82 -30 -140 -55t-94.5 -54t-53.5 -67t-17 -94q0 -72 43.5 -113t147.5 -41q55 0 108 14t99 36t81 49.5t54 54.5q8 -6 15 -27.5t7 -44.5q0 -40 -21.5 -82t-72.5 -76.5t-134 -56.5 t-206 -22q-215 0 -324.5 76.5t-109.5 211.5zM594 1241l6 27q28 29 61 67t65.5 78.5t63 80.5t54.5 75h321l-6 -21q-16 -18 -44 -42.5t-63.5 -52.5t-76 -57.5t-82.5 -57.5t-83 -53.5t-77 -43.5h-139z" />
<glyph unicode="&#x454;" horiz-adv-x="1081" d="M82 403q0 76 19 158.5t57 162t94.5 151t131.5 125.5t168 86t204 32q85 0 146.5 -16.5t101 -45t58.5 -67t19 -82.5q0 -32 -13.5 -62.5t-43.5 -55t-77.5 -39.5t-115.5 -15q0 55 -9.5 102.5t-28.5 82.5t-46.5 55t-64.5 20q-48 0 -90.5 -34t-76.5 -89t-57.5 -123t-35.5 -137 h379l-19 -131h-385q-2 -6 -3 -17t-2.5 -23t-2 -24t-0.5 -20q0 -125 60 -193.5t172 -68.5q54 0 97.5 14.5t78.5 38.5t62 54t48 61q13 -12 22 -35.5t9 -54.5q0 -40 -23.5 -81.5t-73 -75t-125.5 -55t-181 -21.5q-93 0 -175.5 26t-144 79t-97.5 132t-36 186z" />
<glyph unicode="&#x455;" horiz-adv-x="1053" d="M35 205q0 48 19 81t49.5 53.5t70 30t80.5 9.5q0 -55 11 -105t35 -88.5t62.5 -61t94.5 -22.5q42 0 78 10.5t62 30t41 48t15 65.5q0 35 -13.5 62t-42 50.5t-72 46.5t-103.5 52q-60 28 -108.5 60t-82.5 71t-52.5 87t-18.5 108q0 75 32 135t92 102.5t145.5 65t193.5 22.5 q103 0 174.5 -16t116 -42.5t64 -61.5t19.5 -72q0 -82 -63 -119t-172 -37q0 41 -8 82.5t-27 75.5t-49 55t-74 21q-40 0 -71.5 -11.5t-54 -31t-34.5 -45.5t-12 -56q0 -34 13.5 -59t42 -47t72.5 -43.5t104 -48.5q66 -30 114 -63.5t79.5 -73t47 -86t15.5 -103.5 q0 -83 -31.5 -149t-94.5 -112t-156 -70.5t-216 -24.5q-88 0 -159.5 15t-122 44t-78 71t-27.5 95z" />
<glyph unicode="&#x456;" horiz-adv-x="725" d="M117 989l18 109h486l-142 -666q-12 -56 -20 -104.5t-8 -91.5q0 -45 18.5 -69t52.5 -24q32 0 59 12t62 35l49 -69q-24 -26 -55 -51.5t-70 -45.5t-85.5 -32t-102.5 -12q-118 0 -181 55.5t-63 154.5q0 44 8 105t25 139l80 381q3 13 5.5 27t4.5 26.5t3 21.5t1 13q0 28 -6 45 t-19 26t-33.5 12t-49.5 3h-37zM319 1409q0 45 15.5 76.5t41.5 52t61 30t73 9.5q33 0 62.5 -7t52 -23t36 -40.5t13.5 -58.5q0 -42 -16.5 -73.5t-44 -52t-62.5 -30.5t-72 -10q-34 0 -63 7.5t-50.5 23.5t-34 40t-12.5 56z" />
<glyph unicode="&#x457;" horiz-adv-x="725" d="M117 989l18 109h486l-142 -666q-12 -56 -20 -104.5t-8 -91.5q0 -45 18.5 -69t52.5 -24q32 0 59 12t62 35l49 -69q-24 -26 -55 -51.5t-70 -45.5t-85.5 -32t-102.5 -12q-118 0 -181 55.5t-63 154.5q0 44 8 105t25 139l80 381q3 13 5.5 27t4.5 26.5t3 21.5t1 13q0 28 -6 45 t-19 26t-33.5 12t-49.5 3h-37zM120 1386q0 66 33 105t90 39q49 0 80.5 -28t31.5 -85q0 -40 -11 -67t-28 -44t-39 -24.5t-44 -7.5q-51 0 -82 27.5t-31 84.5zM548 1386q0 66 33 105t90 39q49 0 80.5 -28t31.5 -85q0 -40 -11 -67t-28 -44t-39 -24.5t-44 -7.5q-51 0 -82 27.5 t-31 84.5z" />
<glyph unicode="&#x458;" horiz-adv-x="692" d="M-287 -467l25 107q15 -5 42.5 -10t49.5 -5q48 0 83.5 17.5t63.5 59.5t50.5 111t44.5 171l176 831q3 13 5.5 27t4.5 26.5t3 21.5t1 13q0 28 -6 45t-19 26t-33.5 12t-49.5 3h-37l18 109h486l-238 -1114q-28 -137 -75 -228.5t-108.5 -146.5t-133.5 -78t-150 -23 q-65 0 -112 7t-91 18zM319 1409q0 45 15.5 76.5t41.5 52t61 30t73 9.5q33 0 62.5 -7t52 -23t36 -40.5t13.5 -58.5q0 -42 -16.5 -73.5t-44 -52t-62.5 -30.5t-72 -10q-34 0 -63 7.5t-50.5 23.5t-34 40t-12.5 56z" />
<glyph unicode="&#x459;" horiz-adv-x="1851" d="M0 127q0 39 12.5 67t31.5 45.5t41.5 26t43.5 8.5q0 -16 5 -33t15 -31t25 -23t35 -9q29 0 54 14.5t52 56.5t59 117.5t77 198.5q36 99 65.5 178.5t59 141t62 105.5t73.5 72.5t94 42t123 13.5q96 0 183.5 -10t172.5 -29l-94 -446q59 5 109 7.5t79 2.5q205 0 298 -75t93 -224 q0 -90 -38 -158t-103.5 -114t-153 -69t-186.5 -23q-230 0 -346.5 77.5t-116.5 235.5q0 17 2 39.5t5 46.5t7 48t9 44l70 324q4 21 9 45.5t9.5 49t8 46t5.5 35.5q-9 3 -22.5 5.5t-30.5 2.5q-32 0 -59.5 -5t-53 -21.5t-50 -46.5t-50.5 -80t-54 -122.5t-61 -173.5 q-53 -164 -99.5 -269t-93 -166.5t-96.5 -85t-110 -23.5q-87 0 -128.5 36.5t-41.5 104.5zM1135 293q0 -84 35.5 -129t113.5 -45q43 0 74.5 16.5t51.5 45.5t30 68.5t10 86.5q0 93 -38.5 136.5t-113.5 43.5q-51 0 -82 -3t-53 -5q-5 -24 -9.5 -52.5t-9 -57.5t-7 -56.5 t-2.5 -48.5z" />
<glyph unicode="&#x45a;" horiz-adv-x="1812" d="M78 0l168 795q9 42 13.5 76t4.5 51q0 41 -25 54t-83 13h-37l22 109h484l-109 -475h328l102 475h305l-100 -465q59 5 109 7.5t79 2.5q205 0 298.5 -75t93.5 -224q0 -90 -38 -158t-104 -114t-153.5 -69t-186.5 -23q-230 0 -346.5 76.5t-116.5 234.5q0 49 9 99.5t20 103.5 h-326l-104 -494h-307zM1096 293q0 -84 33.5 -129t113.5 -45q43 0 74.5 16.5t52.5 45.5t31 68.5t10 86.5q0 93 -38.5 136.5t-112.5 43.5q-51 0 -82.5 -3t-53.5 -5q-5 -24 -9.5 -52.5t-9 -57.5t-7 -56.5t-2.5 -48.5z" />
<glyph unicode="&#x45b;" horiz-adv-x="1343" d="M43 0l250 1184h-174l24 108h174q5 22 8 43t3 27q0 28 -6 45t-19 26t-34 12t-50 3h-43l19 108h495l-57 -264h317l-24 -108h-316l-26 -121q-8 -31 -17.5 -70t-18.5 -74q-11 -41 -22 -83h13q39 61 80.5 106t89.5 74.5t104.5 44t124.5 14.5q65 0 109.5 -19t72 -51.5t39.5 -75 t12 -89.5q0 -26 -3.5 -55.5t-9 -59.5t-12 -60t-11.5 -57l-37 -176q-13 -56 -21 -104.5t-8 -91.5q0 -45 19 -69t53 -24q32 0 58.5 12t62.5 35l49 -69q-25 -26 -56 -51.5t-69.5 -45.5t-85.5 -32t-103 -12q-117 0 -180 55.5t-63 154.5q0 44 7.5 105t24.5 139l25 119q4 20 10 49 t12 60.5t10.5 63t4.5 56.5q0 19 -3.5 40t-12.5 38t-26 28t-44 11q-35 0 -69.5 -23.5t-66.5 -62t-61 -88t-52.5 -101.5t-40.5 -102t-26 -90l-96 -432h-307z" />
<glyph unicode="&#x45c;" horiz-adv-x="1239" d="M43 0l168 795q9 42 13.5 76t4.5 51q0 41 -25 54t-83 13h-37l22 109h484l-109 -475q28 0 65.5 25t88.5 85l100 119q55 67 97.5 116.5t83 82.5t84.5 49t102 16q42 0 72 -11.5t49.5 -30t29 -43t9.5 -50.5q0 -74 -37.5 -118t-112.5 -44q0 65 -19.5 91t-62.5 26 q-27 0 -53.5 -13.5t-53 -37t-53.5 -54.5t-55 -65q-31 -38 -55.5 -65t-46 -46.5t-41.5 -32.5t-41 -22q100 0 169.5 -52.5t112.5 -148.5l58 -125q21 -46 40 -79.5t41 -56t49 -33.5t62 -11h13l-25 -108h-27q-106 0 -179.5 8.5t-124.5 32t-84.5 65t-59.5 107.5l-70 178 q-12 31 -25.5 53t-31 36t-40.5 21t-54 7l-105 -494h-307zM615 1241l6 27q28 29 61 67t65.5 78.5t63 80.5t54.5 75h321l-6 -21q-16 -18 -44 -42.5t-63.5 -52.5t-76 -57.5t-82.5 -57.5t-83 -53.5t-77 -43.5h-139z" />
<glyph unicode="&#x45d;" horiz-adv-x="1378" d="M117 989l18 109h492l-135 -613q-6 -24 -12 -54t-11 -60t-8.5 -57t-3.5 -46q0 -45 19 -71.5t69 -26.5q45 0 92.5 40.5t91 105t77.5 144t52 156.5l109 482h305l-139 -666q-13 -56 -21 -104.5t-8 -91.5q0 -45 18.5 -69t53.5 -24q32 0 58.5 12t61.5 35l50 -69 q-25 -26 -56 -51.5t-69.5 -45.5t-85.5 -32t-103 -12q-68 0 -113.5 15.5t-73.5 42t-40 62t-12 76.5q0 9 1 21t2.5 25t3 24.5t3.5 19.5h-17q-45 -64 -88.5 -116t-92.5 -89.5t-106 -58t-130 -20.5q-66 0 -111 18.5t-72 49.5t-39 72.5t-12 86.5q0 51 12 112t23 113l74 361 q8 42 13 76t5 51q0 41 -25 54t-83 13h-37zM419 1548l6 21h301q12 -37 31.5 -80t40.5 -84t42.5 -77t38.5 -60l-6 -27h-121q-44 26 -93.5 66t-95.5 83.5t-84.5 85.5t-59.5 72z" />
<glyph unicode="&#x45e;" horiz-adv-x="1200" d="M-344 -455l31 115q24 -8 67.5 -17.5t106.5 -9.5q94 0 172 25t144.5 67.5t125 99.5t113.5 122l-256 934q-17 61 -49.5 84.5t-92.5 23.5h-20l25 109h401l135 -531q10 -40 21 -93.5t21 -107t17 -100t9 -71.5h6q61 82 115 165t94.5 161.5t64 149.5t23.5 130q0 69 -33.5 105 t-93.5 36q0 40 12.5 72.5t34.5 55.5t52 35.5t65 12.5q83 0 125.5 -46t42.5 -128q0 -80 -27 -169t-77 -189t-121.5 -212t-161.5 -237q-74 -104 -139 -191t-127.5 -157t-127 -122.5t-137 -88t-158 -53t-190.5 -17.5q-59 0 -114.5 10t-98.5 27zM327 1468q0 47 18 86l238 27 q-6 -19 -10.5 -45t-4.5 -49q0 -53 34.5 -88t107.5 -35q77 0 140.5 22.5t114.5 57.5t90.5 78t69.5 84l72 -56q-38 -54 -86.5 -109.5t-113.5 -99.5t-149.5 -72t-193.5 -28q-94 0 -157 19t-100.5 50.5t-53.5 72.5t-16 85z" />
<glyph unicode="&#x45f;" horiz-adv-x="1378" d="M117 989l18 109h492l-135 -613q-6 -24 -12 -54t-11 -60t-8.5 -57t-3.5 -46q0 -45 19 -71.5t69 -26.5q45 0 92.5 40.5t91 105t77.5 144t52 156.5l109 482h305l-139 -666q-13 -56 -21 -104.5t-8 -91.5q0 -45 18.5 -69t53.5 -24q32 0 58.5 12t61.5 35l50 -69 q-25 -26 -56 -51.5t-69.5 -45.5t-85.5 -32t-103 -12q-68 0 -113.5 15.5t-73.5 42t-40 62t-12 76.5q0 9 1 21t2.5 25t3 24.5t3.5 19.5h-17q-45 -64 -88.5 -116t-92.5 -89.5t-106 -58t-130 -20.5q-66 0 -111 18.5t-72 49.5t-39 72.5t-12 86.5q0 51 12 112t23 113l74 361 q8 42 13 76t5 51q0 41 -25 54t-83 13h-37zM164 -389l39 110q28 -9 61.5 -17.5t75.5 -8.5q74 0 137.5 70.5t104.5 203.5l145 111q-24 -141 -48 -244.5t-56.5 -170.5t-77 -99.5t-109.5 -32.5q-48 0 -86 6t-70.5 16.5t-60.5 25t-55 30.5z" />
<glyph unicode="&#x460;" horiz-adv-x="2343" d="M127 530q0 382 224 667.5t575 285.5q127 0 210 -58t83 -153q0 -192 -234 -203q0 193 -31 238t-92 45q-156 0 -279.5 -271.5t-123.5 -609.5q0 -332 248 -332q222 0 270 234l61 289h299l-61 -287q-8 -38 -8 -70q0 -166 186 -166q222 0 367 300.5t145 656.5q0 256 -162 256 q-167 0 -215 -283q-93 0 -149 43t-56 111q0 119 115.5 189.5t278.5 70.5q233 0 368 -147t135 -406q0 -394 -225 -672t-592 -278q-266 0 -370 192q-160 -192 -453 -192q-241 0 -377.5 144t-136.5 406z" />
<glyph unicode="&#x461;" horiz-adv-x="1681" d="M10 1016q137 102 273 102q126 0 179 -192t68 -701l293 328q-32 359 -88 545h279q50 -224 94 -903q133 123 241.5 336.5t108.5 336.5q0 89 -80 107q0 68 43 105.5t107 37.5t98.5 -41t34.5 -106q0 -173 -159.5 -452.5t-440.5 -518.5h-205q-5 233 -20 406l-369 -406h-180 q-23 548 -60 753t-106 205q-37 0 -74 -22z" />
<glyph unicode="&#x462;" horiz-adv-x="1458" d="M51 0l23 109h26q162 0 189 122l178 834h-51q-62 0 -108.5 -15.5t-69.5 -76.5l-21 -58h-131l61 275h347q16 80 16 94q0 70 -148 70h-26l22 108h727l-22 -108h-47q-166 0 -193 -125l-8 -39h359l-48 -275h-131v56q0 57 -36.5 75.5t-108.5 18.5h-64l-49 -236h113 q485 0 485 -362q0 -227 -152 -347t-438 -120h-694zM588 125h100q309 0 309 332q0 245 -209 245h-77z" />
<glyph unicode="&#x463;" horiz-adv-x="1219" d="M98 944l23 109h176l43 200q18 84 18 127q0 42 -24.5 55t-83.5 13h-45l18 108h490l-107 -503h318l-23 -109h-319l-66 -311q126 10 203 10q418 0 418 -299q0 -166 -144 -265t-379 -99q-462 0 -462 311q0 82 22 180l100 473h-176zM461 293q0 -174 166 -174q92 0 141 58.5 t49 158.5q0 180 -174 180q-63 0 -154 -8q-28 -159 -28 -215z" />
<glyph unicode="&#x464;" horiz-adv-x="2114" d="M-47 0l22 109h27q164 0 188 122l209 983q13 61 13 70q0 70 -148 70h-26l22 108h707l-23 -108h-26q-171 0 -195 -125l-84 -404h301q94 307 323 486.5t525 179.5q189 0 293 -63t104 -181q0 -85 -72.5 -134.5t-193.5 -49.5q0 297 -174 297q-156 0 -280.5 -144t-188.5 -391 h481l-26 -125h-480q-14 -73 -14 -182q0 -366 344 -366q223 0 356 186q35 -27 35 -70q0 -112 -127.5 -200t-339.5 -88q-290 0 -449 145t-159 405q0 97 14 170h-299l-100 -475q-8 -38 -8 -47q0 -69 149 -69h27l-23 -109h-704z" />
<glyph unicode="&#x465;" horiz-adv-x="1716" d="M78 0l168 795q18 85 18 127q0 41 -25 54t-83 13h-37l22 109h484l-109 -475h236q79 230 249 362.5t390 132.5q157 0 241 -57t84 -154q0 -75 -65 -123.5t-185 -48.5q0 117 -39.5 188.5t-109.5 71.5q-82 0 -154.5 -103.5t-103.5 -268.5h379l-19 -129h-387q-8 -38 -8 -97 q0 -125 60 -193.5t171 -68.5q174 0 287 168q31 -31 31 -90q0 -95 -109 -164t-295 -69q-204 0 -328 114t-124 309q0 45 6 91h-234l-104 -494h-307z" />
<glyph unicode="&#x466;" horiz-adv-x="1624" d="M-100 0l22 109h37q61 0 102.5 31.5t94.5 117.5l733 1204h268l219 -1206q15 -83 45 -115t90 -32h27l-22 -109h-609l23 109q76 0 102.5 24t26.5 78q0 29 -6 65l-68 424h-82l-149 -700h-250l155 700h-71l-236 -395q-57 -95 -57 -137q0 -59 86 -59l-23 -109h-458zM664 825 h301l-21 142q-19 131 -26 303q-54 -112 -162 -291z" />
<glyph unicode="&#x467;" horiz-adv-x="1325" d="M-127 0l23 109h20q41 0 75 27t95 122l541 840h274l219 -879q13 -53 40.5 -81.5t99.5 -28.5l-23 -109h-561l22 109q65 0 87 15.5t22 59.5q0 31 -14 95l-52 227h-55l-106 -506h-240l115 506h-60l-145 -225q-51 -79 -51 -123q0 -49 67 -49l-22 -109h-371zM467 623h246 l-19 90q-19 90 -37 223q-2 -8 -112 -188z" />
<glyph unicode="&#x468;" horiz-adv-x="2382" d="M-47 0l22 109h27q164 0 188 122l209 983q13 61 13 70q0 70 -148 70h-26l22 108h694l-22 -108h-27q-170 0 -194 -125l-84 -404h643l389 637h268l219 -1206q15 -83 45 -115t90 -32h15l-23 -109h-596l23 109q76 0 102.5 24t26.5 78q0 29 -6 65l-68 424h-82l-149 -700h-250 l156 700h-72l-236 -395q-57 -95 -57 -137q0 -59 86 -59l-23 -109h-432l23 109h10q62 0 103 32.5t94 116.5l268 442h-594l-100 -475q-8 -38 -8 -47q0 -44 37 -56.5t116 -12.5l-22 -109h-670zM1434 825h301l-21 142q-19 131 -26 303q-54 -112 -162 -291z" />
<glyph unicode="&#x469;" horiz-adv-x="1954" d="M78 0l168 795q18 85 18 127q0 41 -25 54t-83 13h-37l22 109h484l-109 -475h434l305 475h275l219 -879q14 -57 41.5 -83.5t97.5 -26.5l-22 -109h-561l22 109q65 0 87 15.5t22 59.5q0 26 -15 95l-51 227h-55l-107 -506h-239l114 506h-59l-145 -225q-52 -81 -52 -123 q0 -49 68 -49l-23 -109h-370l22 109h21q41 0 75 27t95 122l159 248h-382l-107 -506h-307zM1096 623h245l-18 90q-21 106 -37 223q-18 -34 -112 -188z" />
<glyph unicode="&#x46a;" horiz-adv-x="1841" d="M-100 0l20 109h10q79 0 129.5 46.5t100.5 137.5l176 311q64 113 172.5 162t286.5 55q-27 54 -145 246l-173 287l23 108h1247l-21 -108l-514 -533q274 -12 310 -243l47 -285q17 -102 47.5 -143t93.5 -41h41l-22 -109h-150q-124 0 -188.5 43t-79.5 152l-51 354 q-12 84 -44.5 117.5t-105.5 33.5l-102 -485q-7 -33 -7 -45q0 -61 91 -61h51l-23 -109h-598l23 109h51q70 0 95.5 32t37.5 90l98 469q-91 0 -140.5 -37t-88.5 -108l-197 -360q-61 -112 -140 -153.5t-202 -41.5h-159zM774 1325l283 -481l452 481h-735z" />
<glyph unicode="&#x46b;" horiz-adv-x="1604" d="M-123 0l23 109h4q61 0 100 29.5t84 107.5l111 192q101 175 331 183l78 2l-243 374l20 101h1085l-18 -101l-420 -374l29 -2q219 -15 254 -197l35 -178q16 -79 43 -108t88 -29h22l-22 -109h-80q-177 0 -239.5 46.5t-76.5 148.5l-26 194q-8 58 -32.5 93.5t-92.5 35.5 l-55 -276q-7 -35 -7 -62q0 -44 25 -57.5t74 -13.5h8l-23 -109h-534l22 109h9q70 0 96 34.5t39 98.5l57 276q-77 0 -115 -29.5t-71 -93.5l-105 -200q-53 -101 -133.5 -148t-261.5 -47h-82zM680 958l194 -305h11l334 305h-539z" />
<glyph unicode="&#x46c;" horiz-adv-x="2630" d="M-47 0l22 109h27q164 0 188 122l209 983q13 61 13 70q0 70 -148 70h-26l22 108h694l-22 -108h-27q-170 0 -194 -125l-84 -404h954q-34 63 -145 245q-113 183 -170 284l22 108h1247l-20 -108l-514 -533q272 -12 309 -243l47 -285q16 -98 46.5 -141t95.5 -43h41l-23 -109 h-150q-130 0 -192 46.5t-76 148.5l-51 354q-13 88 -45.5 119.5t-104.5 31.5l-102 -485q-6 -29 -6 -45q0 -61 90 -61h51l-22 -109h-598l22 109h51q69 0 94.5 31t39.5 91l98 469q-90 0 -140 -36t-90 -109l-196 -360q-58 -106 -136 -150.5t-206 -44.5h-160l21 109h10 q80 0 130.5 48.5t98.5 135.5l154 274q47 83 112 133h-614l-100 -475q-8 -38 -8 -47q0 -44 37 -56.5t116 -12.5l-22 -109h-670zM1563 1325l282 -481l453 481h-735z" />
<glyph unicode="&#x46d;" horiz-adv-x="2220" d="M78 0l168 795q18 85 18 127q0 41 -25 54t-83 13h-37l22 109h484l-109 -475h709l-244 374l20 101h1086l-19 -101l-419 -374l28 -2q221 -16 254 -197l35 -178q16 -79 43 -108t88 -29h23l-23 -109h-80q-181 0 -242 48t-73 147l-27 194q-10 72 -37 100.5t-88 28.5l-55 -276 q-6 -30 -6 -62q0 -44 24.5 -57.5t73.5 -13.5h8l-22 -109h-535l23 109h8q70 0 96 34.5t39 98.5l58 276q-79 0 -117.5 -31t-69.5 -92l-104 -200q-51 -98 -131 -146.5t-265 -48.5h-81l22 109h4q61 0 100.5 29t84.5 108l88 155q39 69 86 105h-387l-107 -506h-307zM1296 958 l195 -305h10l334 305h-539z" />
<glyph unicode="&#x46e;" horiz-adv-x="1243" d="M-20 -172q0 124 95 194t353 93q213 19 297 92t84 223q0 123 -82 192.5t-229 69.5h-160l22 127h175q169 0 279 91.5t110 240.5q0 209 -203 209q-223 0 -268 -313q-232 0 -232 157q0 94 101.5 167.5t285.5 101.5q-75 142 -155 239l6 27h129q114 -106 180 -195 q169 197 309 197q111 0 111 -90q0 -51 -41 -84q-31 22 -70 22q-108 0 -196 -116q167 -26 255.5 -108t88.5 -202q0 -162 -111 -270.5t-305 -134.5q137 -19 225 -103.5t88 -212.5q0 -201 -150.5 -311.5t-422.5 -126.5q-226 -14 -292.5 -54t-66.5 -118q0 -104 129 -104 q99 0 243 67q144 66 243 66q176 0 176 -154q0 -68 -55 -114t-138 -46q0 109 -102 109q-51 0 -193 -26q-142 -27 -221 -27q-132 0 -212 58.5t-80 166.5z" />
<glyph unicode="&#x46f;" horiz-adv-x="1055" d="M-82 -184q0 245 383 282q161 16 236 71.5t75 162.5q0 75 -55 126.5t-147 51.5h-191l23 127h202q110 0 177 58t67 153q0 71 -37.5 113.5t-105.5 42.5q-158 0 -201 -238q-219 0 -219 119q0 82 82.5 144t222.5 83q-67 121 -141 213l6 27h129q114 -106 180 -195 q169 197 309 197q111 0 111 -90q0 -51 -41 -84q-30 22 -70 22q-96 0 -180 -96q123 -26 186.5 -89.5t63.5 -146.5q0 -204 -285 -286l-2 -11q205 -56 205 -231q0 -170 -141 -256.5t-428 -105.5q-207 -19 -207 -154q0 -109 127 -109q79 0 215 66q136 65 217 65 q71 0 113.5 -35.5t42.5 -88.5q0 -70 -53 -118t-136 -48q0 90 -88 90q-50 0 -165 -25q-115 -26 -189 -26q-132 0 -211.5 57t-79.5 162z" />
<glyph unicode="&#x470;" horiz-adv-x="1999" d="M223 1354l23 108h467l-99 -467q-11 -52 -18.5 -104.5t-7.5 -89.5q0 -50 12.5 -86.5t40.5 -60.5t72.5 -36t109.5 -12h45l133 625q4 11 6.5 28t2.5 25q0 22 -11 36t-30.5 21.5t-47 10t-59.5 2.5h-26l22 108h682l-22 -108h-27q-34 0 -65.5 -4.5t-57.5 -17.5t-44.5 -38 t-27.5 -65l-129 -623h45q88 0 149 21.5t103 67.5t69 116t48 168l102 483h467l-22 -108q-35 0 -66 -5t-57 -20.5t-45.5 -45t-30.5 -77.5l-55 -254q-13 -61 -34.5 -119t-56 -109.5t-83.5 -95t-117.5 -75t-158.5 -49t-205 -17.5h-78l-51 -237q-13 -56 -13 -72q0 -22 11.5 -35.5 t31.5 -21t47.5 -10t59.5 -2.5h26l-22 -109h-684l22 109h27q32 0 63.5 3t57.5 15t44.5 35t26.5 63l54 262h-78q-138 0 -229 25t-145 68.5t-75.5 103t-21.5 127.5q0 24 2.5 51.5t6.5 56t9 55.5t11 50l47 209q3 11 5.5 28t2.5 25q0 45 -31.5 56.5t-95.5 11.5h-27z" />
<glyph unicode="&#x471;" horiz-adv-x="1477" d="M106 989l23 109h461l-111 -539q-14 -66 -21 -121t-7 -104q0 -84 50.5 -135t149.5 -64l303 1421h123l-303 -1419q75 10 137.5 41.5t112 77.5t86 104.5t61 124t36.5 134t12 135.5q0 45 -11.5 79.5t-32.5 59t-50 39.5t-64 20q4 38 16.5 68.5t31.5 52.5t43.5 33.5t53.5 11.5 q45 0 79.5 -18.5t57.5 -53t34.5 -83t11.5 -109.5q0 -92 -18 -189.5t-54.5 -191.5t-90.5 -179t-126 -151t-162 -108.5t-197 -50.5l-100 -476h-123l100 474q-118 7 -204 36.5t-142 79.5t-83 118t-27 151q0 27 3.5 62t8.5 72t11 71t12 59l34 162q10 42 14.5 77t4.5 52 q0 41 -25 54t-82 13h-37z" />
<glyph unicode="&#x472;" horiz-adv-x="1622" d="M129 545q0 351 244.5 645.5t627.5 294.5q254 0 410 -148.5t156 -414.5q0 -349 -242 -647t-625 -298q-258 0 -414.5 153.5t-156.5 414.5zM463 496q0 -186 74.5 -284.5t203.5 -98.5q149 0 268 138t185 394q-106 -49 -184 -49q-66 0 -190 66q-125 65 -185 65q-84 0 -158 -39 q-14 -96 -14 -192zM508 831q115 60 205 60q63 0 188 -65q124 -66 184 -66q75 0 136 24q14 117 14 185q0 183 -72.5 283t-204.5 100q-151 0 -268.5 -137.5t-181.5 -383.5z" />
<glyph unicode="&#x473;" horiz-adv-x="1266" d="M82 410q0 274 183.5 491t488.5 217q199 0 313.5 -112t114.5 -318q0 -275 -182.5 -491.5t-483.5 -216.5q-205 0 -319.5 113.5t-114.5 316.5zM395 360q0 -233 158 -233q93 0 168 98.5t119 278.5q-67 -47 -131 -47q-38 0 -100 35q-63 34 -101 34q-47 0 -102 -32 q-11 -80 -11 -134zM430 618q63 54 137 54q41 0 103 -35t100 -35q50 0 92 33q8 65 8 119q0 227 -155 227q-188 0 -285 -363z" />
<glyph unicode="&#x474;" horiz-adv-x="1522" d="M174 1354l23 108h675l-22 -108h-53q-138 0 -138 -86q0 -35 5 -68l65 -532q16 -131 16 -349q68 169 254.5 536.5t292 493.5t256.5 126q160 0 160 -136q0 -106 -131 -139q0 82 -74 82q-123 0 -276 -295l-514 -987h-211l-172 1255q-14 99 -121 99h-35z" />
<glyph unicode="&#x475;" horiz-adv-x="1290" d="M33 989l24 109h402l94 -606q20 -131 29 -275h6q292 614 395 753.5t254 139.5q133 0 133 -111q0 -79 -88 -112q-21 49 -76 49q-54 0 -106.5 -52.5t-138.5 -213.5l-353 -670l-268 -18l-145 899q-17 108 -140 108h-22z" />
<glyph unicode="&#x476;" horiz-adv-x="1522" d="M174 1354l23 108h675l-22 -108h-53q-138 0 -138 -86q0 -35 5 -68l65 -532q16 -131 16 -349q68 169 254.5 536.5t292 493.5t256.5 126q160 0 160 -136q0 -106 -131 -139q0 82 -74 82q-123 0 -276 -295l-514 -987h-211l-172 1255q-14 99 -121 99h-35zM426 1886v21h260 q53 -113 174 -301v-27h-141q-203 171 -293 307zM815 1886v21h260q53 -113 174 -301v-27h-141q-203 171 -293 307z" />
<glyph unicode="&#x477;" horiz-adv-x="1290" d="M33 989l24 109h402l94 -606q20 -131 29 -275h6q292 614 395 753.5t254 139.5q133 0 133 -111q0 -79 -88 -112q-21 49 -76 49q-54 0 -106.5 -52.5t-138.5 -213.5l-353 -670l-268 -18l-145 899q-17 108 -140 108h-22zM219 1548v21h260q53 -113 174 -301v-27h-141 q-203 171 -293 307zM608 1548v21h260q53 -113 174 -301v-27h-141q-203 171 -293 307z" />
<glyph unicode="&#x478;" horiz-adv-x="2671" d="M129 555q0 369 226.5 649.5t598.5 280.5q234 0 382.5 -153t148.5 -421q0 -369 -224 -651.5t-597 -282.5q-246 0 -390.5 153t-144.5 425zM463 496q0 -383 237 -383q200 0 326.5 271.5t126.5 584.5q0 383 -235 383q-200 0 -327.5 -272t-127.5 -584zM1161 -455l31 115 q84 -27 174 -27q156 0 280.5 66t260.5 233l-199 947q-14 69 -41 89.5t-86 20.5l25 109h364l105 -531q39 -196 57 -372h6q297 400 297 606q0 141 -127 141q0 79 47.5 127.5t116.5 48.5q168 0 168 -174q0 -235 -296.5 -678t-485 -600.5t-484.5 -157.5q-115 0 -213 37z" />
<glyph unicode="&#x479;" horiz-adv-x="2290" d="M82 424q0 276 172 485t465 209q190 0 306 -116t116 -324q0 -275 -170 -486.5t-461 -211.5q-197 0 -312.5 119t-115.5 325zM395 360q0 -233 144 -233q126 0 208 203t82 424q0 227 -141 227q-125 0 -209 -203t-84 -418zM780 -455l31 115q84 -27 174 -27q156 0 280.5 66 t260.5 233l-199 947q-14 69 -41 89.5t-86 20.5l25 109h364l105 -531q39 -196 57 -372h6q297 400 297 606q0 141 -127 141q0 79 47.5 127.5t116.5 48.5q168 0 168 -174q0 -235 -296.5 -678t-485 -600.5t-484.5 -157.5q-115 0 -213 37z" />
<glyph unicode="&#x47a;" horiz-adv-x="1704" d="M129 545q0 314 205.5 597.5t544.5 334.5q34 114 161 114q121 0 134 -112q227 -30 351 -177t124 -380q0 -314 -206 -601t-548 -335q-32 -113 -160 -113q-122 0 -133 111q-220 29 -346.5 178.5t-126.5 382.5zM463 496q0 -277 164 -359q38 86 151 86t135 -98 q184 59 294 316.5t110 527.5q0 282 -168 360q-37 -88 -152 -88q-112 0 -135 94q-181 -61 -290 -319t-109 -520z" />
<glyph unicode="&#x47b;" horiz-adv-x="1327" d="M82 410q0 244 151.5 451.5t413.5 248.5q12 104 127 104q106 0 119 -102q350 -48 350 -424q0 -243 -151.5 -453t-415.5 -247q-17 -99 -125 -99q-104 0 -119 97q-350 50 -350 424zM395 360q0 -172 78 -219q34 35 100 35q69 0 99 -39q119 45 189.5 239.5t70.5 377.5 q0 158 -80 209q-32 -35 -100 -35q-71 0 -101 41q-115 -51 -185.5 -240t-70.5 -369z" />
<glyph unicode="&#x47c;" horiz-adv-x="2343" d="M127 530q0 382 224 667.5t575 285.5q127 0 210 -58t83 -153q0 -192 -234 -203q0 167 -25.5 225t-97.5 58q-156 0 -279.5 -271.5t-123.5 -609.5q0 -332 248 -332q217 0 399 277h53q65 -277 295 -277q222 0 367 300.5t145 656.5q0 256 -162 256q-167 0 -215 -283 q-93 0 -149 43t-56 111q0 119 115.5 189.5t278.5 70.5q233 0 368 -147t135 -406q0 -394 -225 -672t-592 -278q-251 0 -377 192q-178 -192 -446 -192q-241 0 -377.5 144t-136.5 406zM997 1864q42 140 134.5 221.5t205.5 81.5q72 0 217 -56q145 -57 258 -57h15l-41 -190h-41 q-125 0 -273 56t-206 56q-86 0 -127 -92l-9 -20h-133zM1196 1546l14 64q138 37 138 90q0 13 -38 37q-38 23 -38 59q0 45 34 72.5t83 27.5q102 0 102 -92q0 -89 -78.5 -159t-216.5 -99z" />
<glyph unicode="&#x47d;" horiz-adv-x="1974" d="M82 403q0 310 170.5 514.5t441.5 204.5q122 0 202.5 -50t80.5 -136q0 -163 -209 -170q0 144 -21.5 188.5t-80.5 44.5q-120 0 -202.5 -202.5t-82.5 -425.5q0 -238 207 -238q203 0 327 211h54q37 -211 248 -211q183 0 286 209.5t103 478.5q0 178 -117 178q-125 0 -174 -233 q-187 0 -187 129q0 108 104 167.5t255 59.5q189 0 295 -112t106 -312q0 -316 -175 -517t-474 -201q-225 0 -334 147q-159 -147 -373 -147q-450 0 -450 423zM748 1559q38 134 130.5 218.5t208.5 84.5q72 0 218 -56q145 -57 258 -57h14l-41 -190h-41q-125 0 -273 56t-206 56 q-86 0 -127 -92l-8 -20h-133zM946 1241l15 64q138 39 138 92q0 11 -11 18q-67 39 -67 73q0 103 118 103q102 0 102 -91q0 -78 -70.5 -151t-224.5 -108z" />
<glyph unicode="&#x47e;" horiz-adv-x="2343" d="M127 530q0 382 224 667.5t575 285.5q127 0 210 -58t83 -153q0 -192 -234 -203q0 193 -31 238t-92 45q-156 0 -279.5 -271.5t-123.5 -609.5q0 -332 248 -332q222 0 270 234l61 289h299l-61 -287q-8 -38 -8 -70q0 -166 186 -166q222 0 367 300.5t145 656.5q0 256 -162 256 q-167 0 -215 -283q-93 0 -149 43t-56 111q0 119 115.5 189.5t278.5 70.5q233 0 368 -147t135 -406q0 -394 -225 -672t-592 -278q-266 0 -377 192q-87 -101 -188 -146.5t-258 -45.5q-241 0 -377.5 144t-136.5 406zM954 1769l7 27h829l-4 -27l-115 -172h-35l-30 103h-185 l-67 -103h-35l-31 103h-184l-68 -103h-35z" />
<glyph unicode="&#x47f;" horiz-adv-x="1681" d="M10 1016q137 102 273 102q126 0 179 -192t68 -701l293 328q-32 359 -88 545h279q50 -224 94 -903q133 123 241.5 336.5t108.5 336.5q0 89 -80 107q0 68 43 105.5t107 37.5t98.5 -41t34.5 -106q0 -173 -159.5 -452.5t-440.5 -518.5h-205q-5 233 -20 406l-369 -406h-180 q-23 548 -60 753t-106 205q-37 0 -74 -22zM516 1417l6 27h830l-4 -27l-115 -172h-35l-31 103h-184l-68 -103h-34l-31 103h-184l-68 -103h-35z" />
<glyph unicode="&#x480;" horiz-adv-x="1368" d="M129 530q0 391 259 676t646 285q193 0 299.5 -63t106.5 -181q0 -84 -79 -134t-210 -50q0 297 -174 297q-216 0 -362 -264.5t-146 -577.5q0 -366 354 -366q83 0 158 32h10l-92 -428q-8 -37 -8 -61q0 -45 29 -60.5t94 -15.5h55l-22 -108h-695l23 108h67q64 0 92 34.5 t41 98.5l50 236q-241 29 -368.5 170t-127.5 372z" />
<glyph unicode="&#x481;" horiz-adv-x="1081" d="M82 403q0 270 189.5 492.5t484.5 222.5q155 0 240 -59.5t85 -157.5q0 -75 -65 -123.5t-185 -48.5q0 117 -39.5 191.5t-109.5 74.5q-116 0 -201.5 -201t-85.5 -395q0 -264 226 -264q84 0 161 45h11l-142 -669h-307l100 475q-173 27 -267.5 137.5t-94.5 279.5z" />
<glyph unicode="&#x482;" horiz-adv-x="1247" d="M104 547l70 123l287 -164l198 346l-284 164l71 125l285 -164l182 313l127 -73l-182 -316l287 -164l-74 -123l-283 164l-200 -346l284 -166l-71 -123l-285 164l-180 -313l-129 74l180 315z" />
<glyph unicode="&#x483;" horiz-adv-x="1141" d="M291 1247v12q0 48 34 90t103 42h440q28 98 115 98q94 0 94 -82v-13q0 -39 -32.5 -85.5t-106.5 -46.5h-440q-32 -99 -115 -99q-92 0 -92 84z" />
<glyph unicode="&#x484;" horiz-adv-x="1182" d="M190 1253l41 191h15q112 0 282 56q169 56 240 56q100 0 157.5 -65t57.5 -174q0 -32 -4 -64h-133v21q0 92 -88 92q-60 0 -229 -56q-170 -57 -298 -57h-41z" />
<glyph unicode="&#x485;" horiz-adv-x="1182" d="M485 1425q0 72 46.5 118t113.5 46q82 0 82 -57t-62 -80q-63 -23 -63 -55q0 -46 98 -82l-16 -76q-199 52 -199 186z" />
<glyph unicode="&#x486;" horiz-adv-x="1182" d="M442 1239l17 76q137 43 137 98q0 18 -39 38q-39 19 -39 48q0 90 115 90q102 0 102 -94q0 -184 -293 -256z" />
<glyph unicode="&#x487;" horiz-adv-x="0" d="M-268 1556q41 144 123.5 207.5t222.5 63.5q85 0 237 -59.5t279 -59.5h16l-32 -152h-43q-142 0 -284.5 59.5t-217.5 59.5q-51 0 -82.5 -21.5t-48.5 -68.5l-11 -29h-159z" />
<glyph unicode="&#x488;" horiz-adv-x="2025" d="M41 459q13 194 209 194t213 -194h-80q-6 88 -133 88q-71 0 -99.5 -17t-33.5 -71h-76zM219 -41q14 195 209 195q196 0 213 -195h-80q-7 88 -133 88q-71 0 -99.5 -17t-33.5 -71h-76zM219 946q14 195 209 195q196 0 213 -195h-80q-6 88 -133 88q-71 0 -99.5 -17t-33.5 -71 h-76zM793 -319q14 194 208 194q196 0 213 -194h-79q-8 88 -134 88q-70 0 -99 -17t-34 -71h-75zM793 1231q13 194 208 194q196 0 213 -194h-79q-7 88 -134 88q-70 0 -99 -17t-34 -71h-75zM1372 -41q14 195 209 195q196 0 213 -195h-80q-7 88 -133 88q-71 0 -99.5 -17 t-33.5 -71h-76zM1372 946q14 195 209 195q196 0 213 -195h-80q-6 88 -133 88q-71 0 -99.5 -17t-33.5 -71h-76zM1563 459q13 194 209 194q91 0 148.5 -51.5t64.5 -142.5h-80q-7 88 -133 88q-71 0 -100 -17t-34 -71h-75z" />
<glyph unicode="&#x489;" horiz-adv-x="1958" d="M41 565v97q210 -50 350 -70v-139l-14 -11q-156 41 -336 123zM238 -55q175 109 297 198l98 -98l-2 -16q-140 -81 -324 -152zM324 1202l67 70q107 -171 199 -297l-98 -98l-17 2q-84 149 -151 323zM870 -385q50 210 70 350h139l11 -14q-41 -156 -123 -336h-97zM870 1155 q43 160 123 336h97q-50 -210 -70 -350h-139zM1325 1018l2 16q150 85 324 152l69 -68q-175 -109 -297 -198zM1366 86l98 98l17 -2q81 -140 151 -323l-67 -70q-110 175 -199 297zM1567 512v139l14 11q160 -43 336 -123v-97q-210 50 -350 70z" />
<glyph unicode="&#x48a;" horiz-adv-x="1716" d="M-47 0l22 109h27q164 0 188 122l209 983q13 61 13 70q0 70 -148 70h-26l22 108h707l-23 -108h-26q-171 0 -195 -125l-154 -727l680 678l6 22q15 55 15 82q0 70 -150 70h-26l22 108h707l-23 -108h-26q-166 0 -193 -125l-211 -1004q-8 -38 -8 -47q0 -69 147 -69h127l-4 -35 l-229 -504h-219l264 430h-641l22 109h27q165 0 193 124l153 730l-678 -674l-8 -41q-12 -61 -12 -70q0 -69 149 -69h27l-23 -109h-704zM696 1806q0 48 19 86l237 27q-14 -46 -14 -94q0 -123 141 -123q239 0 416 242l72 -56q-209 -309 -543 -309q-328 0 -328 227z" />
<glyph unicode="&#x48b;" horiz-adv-x="1378" d="M117 989l18 109h492l-135 -613q-35 -159 -35 -217q0 -98 88 -98q83 0 178 138.5t135 307.5l109 482h305l-139 -666q-29 -139 -29 -196q0 -93 72 -93q49 0 120 47l50 -69l-252 -551h-220l263 422q-49 -12 -105 -12q-239 0 -239 196q0 29 10 90h-17q-114 -164 -206 -224 t-211 -60q-234 0 -234 227q0 60 35 225l74 361q18 88 18 127q0 41 -25 54t-83 13h-37zM451 1468q0 47 18 86l238 27q-15 -42 -15 -94q0 -123 142 -123q238 0 415 242l72 -56q-207 -309 -543 -309q-327 0 -327 227z" />
<glyph unicode="&#x48c;" horiz-adv-x="1360" d="M-47 0l22 109h27q164 0 188 122l203 953h-180l23 108h180l55 264h324l-58 -264h303l-22 -108h-303l-76 -355h113q485 0 485 -362q0 -225 -151 -346t-439 -121h-694zM489 125h101q309 0 309 332q0 245 -209 245h-78z" />
<glyph unicode="&#x48d;" horiz-adv-x="1219" d="M0 1098zM84 944l22 109h183l55 266h309l-57 -266h317l-22 -109h-318l-65 -311q126 10 203 10q417 0 417 -299q0 -167 -144 -265.5t-378 -98.5q-463 0 -463 311q0 78 23 180l100 473h-182zM453 293q0 -174 165 -174q93 0 142 58.5t49 158.5q0 180 -174 180q-63 0 -154 -8 q-28 -159 -28 -215z" />
<glyph unicode="&#x48e;" horiz-adv-x="1358" d="M-47 0l22 109h27q164 0 188 122l209 983q13 61 13 70q0 70 -148 70h-26l22 108h586q249 0 385.5 -104.5t136.5 -294.5q0 -370 -364 -471l106 -152l-90 -61l-133 190q-61 -10 -166 -10h-135l-74 -334q-8 -36 -8 -47q0 -69 149 -69h68l-23 -109h-745zM610 678h88 q55 0 105 10l-103 148l91 61l114 -164q129 93 129 324q0 284 -235 284h-45z" />
<glyph unicode="&#x48f;" horiz-adv-x="1276" d="M-61 -492l278 1307q14 66 14 88q0 47 -18.5 66.5t-89.5 19.5h-37l18 109h441l-53 -273h14q87 163 175 228t214 65q140 0 219.5 -98.5t79.5 -271.5q0 -199 -106 -406t-279 -301l92 -131l-90 -62l-106 152q-72 -20 -146 -20q-122 0 -209 47q-3 -45 -16 -99l-29 -137 q-14 -66 -14 -88q0 -47 18.5 -66.5t89.5 -19.5h78l-18 -109h-520zM391 168q60 -57 146 -57q44 0 79 16l-96 137l90 62l92 -133q81 85 132 243t51 297q0 221 -111 221q-90 0 -181 -134.5t-124 -284.5z" />
<glyph unicode="&#x490;" horiz-adv-x="1110" d="M-47 0l22 109h27q32 0 62.5 4t55.5 17t43.5 37t26.5 64l213 1006q4 11 6.5 25t2.5 22q0 22 -11 36t-30.5 21.5t-47 10t-59.5 2.5h-26l22 108h684q56 0 95 13t65.5 37t43.5 58.5t30 76.5l28 92h135l-98 -402h-498l-221 -1054q-8 -38 -14 -67.5t-6 -37.5q0 -22 11 -35.5 t31 -21t47.5 -10t59.5 -2.5h27l-23 -109h-704z" />
<glyph unicode="&#x491;" horiz-adv-x="987" d="M76 0l172 815q3 13 5.5 27t4.5 26.5t3 21.5t1 13q0 28 -6 45t-19 26t-33.5 12t-49.5 3h-37l18 109h586q35 0 61.5 8t47.5 27t37.5 51t31.5 80l35 108h131l-88 -411h-385l-209 -961h-307z" />
<glyph unicode="&#x492;" horiz-adv-x="1210" d="M-47 0l22 109h27q164 0 188 122l101 474h-195l23 108h194l90 424q9 42 9 47q0 70 -148 70h-26l20 108h1118l-69 -401h-136l-4 98q-7 178 -155 178h-267l-112 -524h293l-23 -108h-293l-88 -424q-18 -87 -18 -103q0 -69 149 -69h68l-23 -109h-745z" />
<glyph unicode="&#x493;" horiz-adv-x="1040" d="M8 494l23 108h172l45 213q14 66 14 88q0 47 -18.5 66.5t-89.5 19.5h-37l18 109h948l-59 -348h-131v88q0 94 -23 118.5t-96 24.5h-178l-82 -379h242l-23 -108h-244l-106 -494h-307l104 494h-172z" />
<glyph unicode="&#x494;" horiz-adv-x="1473" d="M-47 0l22 109h27q164 0 188 122l213 1006q9 43 9 47q0 70 -148 70h-26l20 108h1118l-69 -401h-136l-4 98q-7 178 -155 178h-267l-116 -546q62 10 119 10q283 0 438 -134.5t155 -377.5q0 -334 -213.5 -567.5t-558.5 -233.5q-210 0 -321 56.5t-111 158.5q0 85 64 138 t164 53q0 -154 52 -214.5t158 -60.5q190 0 311.5 234t121.5 487q0 157 -77.5 244.5t-219.5 87.5q-61 0 -109 -8l-80 -383q-18 -86 -18 -103q0 -69 149 -69h68l-23 -109h-745z" />
<glyph unicode="&#x495;" horiz-adv-x="1227" d="M76 0l172 815q14 66 14 88q0 47 -18.5 66.5t-89.5 19.5h-37l18 109h948l-53 -307h-137v47q0 94 -23 118.5t-96 24.5h-178l-82 -379q96 21 168 21q418 0 418 -396q0 -316 -173.5 -517.5t-480.5 -201.5q-160 0 -257 53.5t-97 139.5q0 81 61.5 127.5t155.5 46.5 q0 -137 35.5 -189.5t110.5 -52.5q154 0 245 204.5t91 432.5q0 224 -183 224q-61 0 -123 -17l-102 -477h-307z" />
<glyph unicode="&#x496;" horiz-adv-x="2173" d="M-119 0l23 113h6q136 0 248 157l235 332q118 167 344 172q-79 61 -153 293q-45 141 -78.5 186t-87.5 45q-90 0 -135 -114q-74 30 -74 129q0 74 49.5 118t140.5 44q102 0 168.5 -60t130.5 -270q70 -226 127 -289t148 -63l96 444q8 37 8 47q0 70 -147 70h-27l23 108h665 l-22 -108h-27q-170 0 -194 -125l-93 -436q126 0 190 50.5t224 301.5q113 178 209.5 254t222.5 76q162 0 162 -121q0 -68 -42 -112.5t-112 -47.5q0 106 -88 106q-107 0 -256 -227q-168 -258 -233 -291q137 -20 221 -245l107 -287q49 -132 198 -141h21l-113 -539h-135 q22 102 22 176q0 80 -22.5 138.5t-99.5 113.5q-99 69 -132.5 104.5t-56.5 100.5l-110 327q-29 85 -69 115.5t-132 30.5l-94 -451q-4 -18 -5 -25q-4 -14 -4 -22q0 -69 150 -69h27l-23 -109h-664l23 109h27q164 0 188 122l94 445q-112 -2 -159.5 -30t-102.5 -107l-237 -351 q-71 -105 -150 -146.5t-340 -41.5h-80z" />
<glyph unicode="&#x497;" horiz-adv-x="2410" d="M0 203q0 73 63 120.5t168 47.5q0 -265 117 -265q112 0 204.5 183t92.5 397q0 272 -190 272q-160 0 -265 -153q-18 26 -18 80q0 90 100 161.5t271 71.5q188 0 293.5 -105.5t105.5 -287.5q0 -49 -12 -121h151l105 500h260l-107 -500h160q78 238 243 376t372 138 q138 0 217 -61t79 -160q0 -73 -62.5 -120.5t-168.5 -47.5q0 264 -117 264q-114 0 -205.5 -191t-91.5 -401q0 -262 191 -262q159 0 264 154q18 -26 18 -80q0 -17 -5 -42q-6 -26 -11 -54q-75 -392 -143.5 -488t-188.5 -96q-164 0 -303 78l43 110q89 -26 152 -26q168 0 268 274 l16 43q-91 -32 -198 -32q-189 0 -294.5 102t-105.5 283q0 61 13 141h-162l-109 -506h-254l105 506h-150q-75 -235 -241 -379.5t-373 -144.5q-139 0 -218 61t-79 160z" />
<glyph unicode="&#x498;" horiz-adv-x="1255" d="M10 266q0 39 15 70.5t43 54t66.5 35t86.5 12.5q0 -60 21 -118.5t61 -105t99 -75t135 -28.5q62 0 115.5 20t92.5 60t61.5 100t22.5 139q0 56 -18.5 104t-57 83t-97 55t-138.5 20h-160l23 127h174q81 0 151.5 22.5t123.5 65t83.5 104.5t30.5 140q0 45 -11 83.5t-35.5 66.5 t-63 43.5t-93.5 15.5q-68 0 -114.5 -24.5t-77 -67.5t-48.5 -100t-28 -121q-48 0 -90 8t-73.5 26.5t-49.5 48.5t-18 74q0 62 43.5 113.5t116 88t167.5 57t199 20.5q106 0 194 -21.5t151 -62.5t97.5 -100.5t34.5 -135.5q0 -89 -32.5 -159.5t-88.5 -121.5t-132 -82.5 t-163 -41.5q49 -6 104.5 -27t102 -59t77 -95t30.5 -135q0 -118 -45 -205.5t-127.5 -145t-199.5 -86t-261 -28.5q-121 0 -214 21t-156.5 59.5t-96.5 91.5t-33 117zM275 -362q0 43 30 67q40 -31 107 -31q100 0 100 117q0 104 -86 209h150q137 -103 137 -221q0 -105 -74 -165 t-200 -60q-164 0 -164 84z" />
<glyph unicode="&#x499;" horiz-adv-x="1065" d="M0 215q0 32 9.5 61.5t33.5 52t65 35.5t103 13q0 -73 20 -125.5t52.5 -86t72 -49.5t78.5 -16q106 0 168 56t62 176q0 35 -13.5 67.5t-39.5 57t-64 39t-86 14.5h-191l23 127h203q54 0 99 15t77 42.5t49.5 66.5t17.5 87q0 31 -8 59t-25.5 49.5t-44.5 34.5t-65 13 q-42 0 -75.5 -18t-58.5 -49.5t-41.5 -75.5t-25.5 -95q-111 0 -165 31.5t-54 87.5q0 41 25 83.5t79.5 76.5t140.5 55.5t208 21.5q100 0 175.5 -19.5t126.5 -53.5t77 -80t26 -99q0 -63 -24.5 -109.5t-64 -80.5t-90.5 -57t-105 -39l-2 -11q43 -11 80 -31.5t64.5 -50t43.5 -67 t16 -82.5q0 -86 -35 -153t-103 -113.5t-167.5 -71t-228.5 -24.5q-111 0 -190 21t-129.5 54.5t-74.5 75.5t-24 84zM199 -362q0 43 30 67q40 -31 107 -31q100 0 100 117q0 104 -86 209h150q137 -103 137 -221q0 -105 -74 -165t-200 -60q-164 0 -164 84z" />
<glyph unicode="&#x49a;" horiz-adv-x="1548" d="M-47 0l22 109h27q164 0 188 122l213 1006q9 43 9 47q0 70 -148 70h-26l22 108h707l-23 -108h-26q-171 0 -195 -125l-92 -436q122 0 192 52.5t221 299.5q113 181 211.5 255.5t221.5 74.5q161 0 161 -121q0 -68 -42.5 -112.5t-110.5 -47.5q0 106 -88 106q-108 0 -256 -227 q-172 -261 -236 -291q134 -12 223 -245l107 -287q50 -134 199 -141h20l-113 -539h-135q23 107 23 176q0 90 -23 147t-110 105q-94 53 -131 99.5t-58 105.5l-110 327q-31 91 -68 118.5t-123 27.5l-94 -451q-8 -38 -8 -47q0 -69 149 -69h27l-23 -109h-704z" />
<glyph unicode="&#x49b;" horiz-adv-x="1239" d="M43 0l168 795q18 85 18 127q0 41 -24.5 54t-83.5 13h-37l22 109h484l-109 -475q61 0 154 110l100 119q128 153 169 189.5t89 55.5t109 19q77 0 118.5 -37.5t41.5 -97.5q0 -162 -150 -162q0 117 -82 117q-79 0 -215 -170q-119 -143 -184 -166q192 0 282 -201l58 -125 q57 -123 99 -151.5t93 -28.5h13q-62 -337 -129 -449t-197 -112q-164 0 -303 78l43 110q89 -26 151 -26q176 0 271 280l4 13q-137 6 -214.5 47t-125.5 164l-70 178q-26 66 -58.5 91.5t-92.5 25.5l-105 -494h-307z" />
<glyph unicode="&#x49c;" horiz-adv-x="1593" d="M-29 0l23 109h26q162 0 189 122l213 998q8 37 8 55q0 70 -147 70h-27l23 108h688l-23 -108h-26q-171 0 -195 -125l-92 -436h71l68 321h119l-66 -307q97 16 293 338q112 180 210 255t222 75q162 0 162 -121q0 -68 -42 -112.5t-112 -47.5q0 106 -88 106q-107 0 -256 -227 q-166 -257 -237 -293q137 -16 221 -243l107 -287q29 -78 66 -109.5t101 -31.5h7l-23 -109h-127q-170 0 -238.5 42t-109.5 161l-111 327q-37 108 -77 129l-64 -303h-119l70 320h-72l-94 -451q-8 -38 -8 -47q0 -69 149 -69h27l-23 -109h-686z" />
<glyph unicode="&#x49d;" horiz-adv-x="1348" d="M43 0l168 795q18 85 18 127q0 41 -24.5 54t-83.5 13h-37l22 109h484l-109 -475h72l53 247h113l-47 -213q33 31 71 76l101 119q131 154 171 190t88 55t107 19q77 0 118.5 -37.5t41.5 -97.5q0 -162 -149 -162q0 117 -82 117q-84 0 -215 -170q-121 -144 -185 -166 q182 -25 244 -201l43 -125q62 -180 193 -180h12l-25 -108h-26q-239 0 -325 45.5t-124 167.5l-55 178q-21 67 -45 90l-39 -186h-113l47 213h-71l-105 -494h-307z" />
<glyph unicode="&#x49e;" horiz-adv-x="1522" d="M-47 0l22 109h27q164 0 188 122l187 881h-189l23 109h190q11 47 11 63q0 70 -148 70h-26l22 108h686l-22 -108h-27q-168 0 -195 -125l-2 -8h195l-23 -109h-194l-68 -319h21q122 0 192 52t221 300q113 181 211.5 255.5t221.5 74.5q161 0 161 -121q0 -68 -42.5 -112.5 t-110.5 -47.5q0 106 -88 106q-108 0 -256 -227q-172 -261 -236 -291q134 -12 223 -245l107 -287q53 -141 213 -141h6l-24 -109h-130q-191 0 -273.5 47t-119.5 156l-110 327q-29 87 -65 116.5t-126 29.5h-20l-94 -451q-4 -18 -5 -25q-4 -14 -4 -22q0 -69 150 -69h26l-22 -109 h-684z" />
<glyph unicode="&#x49f;" horiz-adv-x="1239" d="M43 0l252 1184h-180l22 108h180q11 61 11 88q0 42 -25 55t-84 13h-37l23 108h483l-59 -264h223l-23 -108h-225l-123 -561q61 0 154 110l100 119q128 153 169 189.5t89 55.5t109 19q77 0 118.5 -37.5t41.5 -97.5q0 -162 -150 -162q0 117 -82 117q-79 0 -215 -170 q-119 -143 -184 -166q192 0 282 -201l58 -125q57 -123 99 -151.5t93 -28.5h13l-25 -108h-27q-225 0 -311.5 43t-136.5 170l-70 178q-26 66 -58.5 91.5t-92.5 25.5l-105 -494h-307z" />
<glyph unicode="&#x4a0;" horiz-adv-x="1747" d="M147 1065l95 397h950l-23 -108h-26q-168 0 -195 -125l-92 -436q123 0 193.5 53t220.5 299q116 186 213.5 258t218.5 72q162 0 162 -121q0 -69 -43.5 -113t-110.5 -47q0 106 -88 106q-108 0 -256 -227q-164 -255 -236 -291q135 -12 224 -245l106 -287q52 -141 213 -141h6 l-24 -109h-129q-191 0 -273.5 47t-119.5 156l-111 327q-32 94 -69.5 120t-121.5 26l-94 -451q-8 -38 -8 -47q0 -69 150 -69h26l-22 -109h-705l23 109h26q162 0 189 122l235 1106h-125q-79 0 -127.5 -36t-85.5 -148l-28 -88h-138z" />
<glyph unicode="&#x4a1;" horiz-adv-x="1509" d="M47 750l84 348h729l-108 -475q60 0 153 110l187 222q56 69 100.5 102t86 46t93.5 13q77 0 118.5 -37.5t41.5 -97.5q0 -162 -150 -162q0 117 -82 117q-79 0 -215 -170q-112 -138 -184 -166q191 0 283 -201l57 -125q52 -115 93.5 -147.5t99.5 -32.5h12l-25 -108h-26 q-229 0 -314.5 44.5t-134.5 168.5l-69 178q-25 64 -57.5 90.5t-94.5 26.5l-104 -494h-308l209 981h-149q-62 0 -95.5 -29t-64.5 -121l-29 -81h-137z" />
<glyph unicode="&#x4a2;" horiz-adv-x="1677" d="M-47 0l22 109h27q164 0 188 122l209 983q13 61 13 70q0 70 -148 70h-26l22 108h707l-23 -108h-26q-171 0 -195 -125l-84 -404h535l86 398q10 46 10 61q0 70 -150 70h-26l22 108h707l-23 -108h-26q-166 0 -193 -125l-211 -1004q-8 -38 -8 -47q0 -65 123 -69h51l-113 -539 h-135q23 107 23 176q0 254 -224 254h-280l22 109h27q165 0 193 124l98 467h-535l-100 -475q-8 -38 -8 -47q0 -69 149 -69h27l-23 -109h-704z" />
<glyph unicode="&#x4a3;" horiz-adv-x="1399" d="M78 0l168 795q18 85 18 127q0 41 -25 54t-83 13h-37l22 109h484l-109 -475h365l106 475h305l-139 -666q-29 -139 -29 -196q0 -93 72 -93q50 0 121 47l49 -69q-61 -344 -128.5 -466t-203.5 -122q-164 0 -303 78l43 110q89 -26 152 -26q168 0 268 274l14 39 q-79 -28 -155 -28q-120 0 -183 55.5t-63 150.5q0 53 20 160l29 148h-367l-104 -494h-307z" />
<glyph unicode="&#x4a4;" horiz-adv-x="1913" d="M-47 0l22 109h27q164 0 188 122l209 983q13 61 13 70q0 70 -148 70h-26l22 108h707l-23 -108h-26q-171 0 -195 -125l-84 -404h535l86 398q10 46 10 61q0 70 -150 70h-26l22 108h963l-70 -401h-129l-4 98q-4 93 -39.5 135.5t-116.5 42.5h-116l-234 -1112q-8 -38 -8 -47 q0 -69 147 -69h27l-23 -109h-706l22 109h27q165 0 193 124l98 467h-535l-100 -475q-8 -38 -8 -47q0 -69 149 -69h27l-23 -109h-704z" />
<glyph unicode="&#x4a5;" horiz-adv-x="1675" d="M78 0l168 795q18 85 18 127q0 41 -25 54t-83 13h-37l22 109h484l-109 -475h365l106 475h725l-59 -348h-131v88q0 94 -23 118.5t-96 24.5h-135l-115 -549q-29 -138 -29 -196q0 -93 72 -93q50 0 121 47l49 -69q-134 -141 -313 -141q-120 0 -183 55.5t-63 150.5q0 53 20 160 l29 148h-367l-104 -494h-307z" />
<glyph unicode="&#x4a6;" horiz-adv-x="2308" d="M-47 0l22 109h27q164 0 188 122l209 983q13 61 13 70q0 70 -148 70h-26l22 108h1542l-22 -108h-27q-168 0 -192 -125l-93 -438q58 10 115 10q284 0 439 -134.5t155 -377.5q0 -335 -214 -568t-558 -233q-210 0 -321 56.5t-111 158.5q0 86 64 138.5t163 52.5 q0 -154 51.5 -214.5t159.5 -60.5q190 0 311 233t121 488q0 159 -77.5 245.5t-219.5 86.5q-59 0 -104 -8l-92 -439q-9 -43 -9 -47q0 -69 148 -69h27l-23 -109h-707l23 109h27q167 0 192 124l236 1104h-514l-238 -1112q-8 -37 -8 -47q0 -69 149 -69h27l-23 -109h-704z" />
<glyph unicode="&#x4a7;" horiz-adv-x="1874" d="M76 0l176 834q10 47 10 88q0 67 -98 67h-47l22 109h1293l-23 -109h-20q-97 0 -128 -31t-44 -96l-56 -260q96 21 168 21q418 0 418 -396q0 -315 -173 -517t-480 -202q-161 0 -258 54t-97 139q0 81 61.5 127.5t155.5 46.5q0 -137 35.5 -189.5t110.5 -52.5q154 0 245 205 t91 432q0 224 -183 224q-59 0 -118 -17l-101 -477h-307l205 981h-342l-209 -981h-307z" />
<glyph unicode="&#x4a8;" horiz-adv-x="1724" d="M129 539q0 384 254 665t643 281q125 0 209 -33.5t84 -81.5q0 -59 -53 -84q-108 70 -246 70q-260 0 -408.5 -261t-148.5 -593q0 -393 307 -393q54 0 78 4q-135 161 -135 401q0 291 156 486.5t415 195.5q170 0 267.5 -100.5t97.5 -272.5q0 -211 -118 -409.5t-323 -331.5 q57 -37 158 -37q91 0 154 61q34 -24 34 -59q0 -63 -67 -97t-178 -34q-196 0 -338 88q-121 -24 -223 -24q-293 0 -456 150t-163 409zM1030 446q0 -139 47 -237q128 129 197 331.5t69 399.5q0 127 -67 127q-92 0 -169 -206.5t-77 -414.5z" />
<glyph unicode="&#x4a9;" horiz-adv-x="1401" d="M82 412q0 314 197.5 510t521.5 196q192 0 192 -86q0 -43 -47 -80q-64 39 -149 39q-205 0 -313.5 -164.5t-108.5 -431.5q0 -139 70.5 -214t191.5 -75h37q-133 125 -133 306q0 193 126 324.5t328 131.5q151 0 237.5 -79t86.5 -220t-77 -268.5t-218 -210.5q62 -24 137 -24 q78 0 123 34q21 -22 21 -53q0 -108 -187 -108q-145 0 -301 67q-110 -26 -217 -26q-245 0 -381.5 113t-136.5 319zM823 393q0 -140 49 -223q172 179 172 494q0 98 -59 98q-73 0 -117.5 -114.5t-44.5 -254.5z" />
<glyph unicode="&#x4aa;" horiz-adv-x="1368" d="M129 530q0 123 29 242t84 226t134.5 197t180 156t220.5 103t257 37q102 0 178.5 -17.5t127 -49t75.5 -77t25 -100.5q0 -45 -22 -79t-60.5 -57.5t-91.5 -35.5t-115 -12q0 43 -6 95t-24.5 97t-52.5 75t-91 30q-81 0 -149.5 -37t-125 -100.5t-100 -147.5t-73 -177.5 t-45 -191t-15.5 -188.5q0 -175 89 -270.5t265 -95.5q71 0 128 16t102 42.5t79 59.5t60 68q12 -9 23.5 -28t11.5 -42q0 -51 -31 -102.5t-91.5 -93t-149.5 -67t-205 -25.5q-147 0 -262.5 36.5t-195 107t-121.5 173t-42 233.5zM404 -362q0 43 30 67q40 -31 107 -31 q100 0 100 117q0 104 -86 209h150q137 -103 137 -221q0 -105 -74 -165t-200 -60q-164 0 -164 84z" />
<glyph unicode="&#x4ab;" horiz-adv-x="1081" d="M82 403q0 76 19 158.5t57 162t94.5 151t131.5 125.5t168 86t204 32q85 0 146.5 -17.5t101 -47t58.5 -69t19 -83.5q0 -32 -13.5 -62.5t-43.5 -55t-77.5 -39.5t-115.5 -15q0 54 -9.5 102.5t-28.5 85t-46.5 57.5t-64.5 21q-44 0 -82.5 -29.5t-70.5 -78t-56.5 -111t-42 -129 t-26.5 -131t-9 -117.5q0 -125 57 -194.5t169 -69.5q54 0 97.5 14.5t78.5 38.5t62 54t48 61q13 -12 22 -35.5t9 -54.5q0 -40 -23.5 -81.5t-73 -75t-125.5 -55t-181 -21.5q-93 0 -175.5 26t-144 79t-97.5 132t-36 186zM234 -362q0 43 30 67q40 -31 107 -31q100 0 100 117 q0 104 -86 209h150q137 -103 137 -221q0 -105 -74 -165t-200 -60q-164 0 -164 84z" />
<glyph unicode="&#x4ac;" horiz-adv-x="1337" d="M139 1065l94 397h1274l-71 -397h-138q17 154 17 164q0 108 -144 108h-163l-236 -1112q-8 -38 -8 -47q0 -69 149 -69h27l-113 -539h-135q23 107 23 176q0 254 -219 254h-283l23 109h26q162 0 189 122l231 1106h-164q-79 0 -127.5 -36t-85.5 -148l-29 -88h-137z" />
<glyph unicode="&#x4ad;" horiz-adv-x="1985" d="M76 0l172 815q3 13 5.5 27t4.5 26.5t3 21.5t1 13q0 28 -6 45t-19 26t-33.5 12t-49.5 3h-37l18 109h475l-39 -209h15q41 62 83 105.5t89 71t99.5 40t113.5 12.5q64 0 107 -18t69.5 -49t37.5 -71t11 -85v-16h12q38 61 78.5 107t87.5 76.5t102 46t121 15.5q63 0 106 -19 t70 -51.5t38.5 -75t11.5 -89.5q0 -26 -4 -55.5t-9.5 -59.5t-12 -60t-11.5 -57l-47 -219q-13 -55 -21 -104t-8 -92q0 -45 19 -68.5t53 -23.5q32 0 58.5 12t62.5 35l49 -70q-28 -163 -68.5 -310t-101 -212.5t-162.5 -65.5q-83 0 -153 16.5t-150 61.5l43 111q31 -10 68 -18.5 t83 -8.5q84 0 152.5 71.5t116.5 202.5l16 45q-37 -17 -75.5 -25.5t-82.5 -8.5q-117 0 -180 56t-63 155q0 43 7.5 104t24.5 139l35 162q5 20 11.5 49t12 60.5t9.5 63t4 56.5q0 20 -3 40.5t-12 37.5t-25 28t-42 11q-33 0 -65.5 -23t-63.5 -60.5t-58.5 -86t-50 -99.5 t-38.5 -100.5t-23 -89.5l-16 -86q-4 -21 -9.5 -57.5t-11.5 -78.5t-12 -86t-10.5 -81.5t-7 -64.5t-2.5 -35h-318q0 12 3.5 42t9.5 70.5t14 87.5l16 94t16 89.5t15 73.5l31 143q4 19 9.5 48t11 60.5t9.5 63.5t4 57q0 19 -2 39t-8.5 36.5t-20 27t-36.5 10.5q-34 0 -67.5 -21 t-64.5 -56t-59 -80t-50.5 -92.5t-38.5 -94t-25 -84.5l-115 -514h-307z" />
<glyph unicode="&#x4ae;" horiz-adv-x="1419" d="M180 1354l23 108h665l-22 -108h-92q-47 0 -66.5 -16t-19.5 -44q0 -18 6 -52t18 -81l74 -289q7 -30 15 -64t14.5 -68t11 -66.5t6.5 -57.5q19 41 58 104t92 138l202 289q25 35 43.5 76t18.5 75q0 28 -28.5 42t-96.5 14h-43l24 108h537l-23 -108h-38q-23 0 -42.5 -6 t-39.5 -21.5t-42.5 -41t-50.5 -64.5l-507 -705l-62 -291q-2 -11 -5 -25t-3 -22q0 -22 11 -35.5t31 -21t47.5 -10t59.5 -2.5h50l-23 -109h-756l23 109h55q32 0 62 4.5t55 18t43 37.5t27 64l59 285l-221 727q-9 30 -18.5 51t-22.5 33.5t-32.5 18.5t-49.5 6h-27z" />
<glyph unicode="&#x4af;" horiz-adv-x="1200" d="M33 989l24 109h402l94 -606q14 -89 22 -185l11 -133h6q157 163 255.5 336.5t98.5 288.5q0 133 -135 133q0 84 46 134t124 50q154 0 154 -190q0 -177 -132.5 -413.5t-365.5 -481.5l-51 -240q-15 -71 -15 -88q0 -47 18.5 -66.5t90.5 -19.5h78l-19 -109h-524l115 543 l-135 830q-18 108 -142 108h-20z" />
<glyph unicode="&#x4b0;" horiz-adv-x="1419" d="M180 1354l23 108h665l-22 -108h-92q-86 0 -86 -60q0 -39 24 -133l74 -289q43 -167 47 -256q41 88 150 242l202 289q62 89 62 151q0 56 -125 56h-43l24 108h537l-23 -108h-38q-47 0 -81.5 -27t-93.5 -106l-507 -705l-5 -12h297l-22 -109h-297l-40 -198q-20 -88 146 -88h50 l-23 -109h-756l23 109h55q159 0 187 124l34 162h-286l22 109h287l2 14l-221 727q-19 64 -43 86.5t-80 22.5h-27z" />
<glyph unicode="&#x4b1;" horiz-adv-x="1200" d="M33 989l24 109h402l94 -606q14 -89 22 -185l11 -133h6q157 163 255.5 336.5t98.5 288.5q0 133 -135 133q0 84 46 134t124 50q154 0 154 -190q0 -177 -132.5 -413.5t-365.5 -481.5l-6 -31h264l-23 -109h-266l-20 -100q-15 -75 -15 -88q0 -47 18.5 -66.5t90.5 -19.5h78 l-19 -109h-524l82 383h-252l23 109h251l11 51l-135 830q-18 108 -142 108h-20z" />
<glyph unicode="&#x4b2;" horiz-adv-x="1540" d="M-86 0l23 109h20q62 0 113 32.5t129 114.5l452 467l-229 526q-26 59 -57 82t-103 23h-18l22 108h678l-22 -108h-48q-96 0 -96 -58q0 -34 37 -122l109 -254l241 258q72 77 72 125q0 51 -98 51h-6l22 108h477l-22 -108h-19q-55 0 -100 -26.5t-131 -119.5l-385 -405 l252 -586q46 -108 141 -108h27l-113 -539h-135q22 102 22 176q0 254 -223 254h-250l23 109h31q116 0 116 71q0 56 -39 142l-125 282l-286 -297q-82 -85 -82 -137q0 -61 112 -61h7l-23 -109h-516z" />
<glyph unicode="&#x4b3;" horiz-adv-x="1237" d="M-41 0l21 109h26q59 0 99.5 23t117.5 108l258 284l-141 340q-28 68 -58.5 96.5t-97.5 28.5h-24l20 109h385l144 -389l284 389h250l-20 -109h-37q-65 0 -105 -31.5t-108 -115.5l-211 -244l149 -344q32 -74 63.5 -109.5t98.5 -35.5h27q-57 -333 -124.5 -454.5 t-203.5 -121.5q-164 0 -303 78l43 110q89 -26 152 -26q168 0 268 274l10 31h-260l-154 414l-319 -414h-250z" />
<glyph unicode="&#x4b4;" horiz-adv-x="2013" d="M139 0l23 109h26q162 0 189 122l231 1106h-88q-79 0 -127.5 -36t-85.5 -148l-28 -88h-138l95 397h1124l-72 -397h-137q16 140 16 164q0 108 -143 108h-90l-258 -1212h686l233 1098q11 52 11 61q0 70 -150 70h-26l22 108h707l-23 -108h-27q-168 0 -192 -125l-209 -996 q-8 -38 -8 -59q0 -65 96 -65h76l-113 -539h-135q23 107 23 176q0 254 -220 254h-1288z" />
<glyph unicode="&#x4b5;" horiz-adv-x="1634" d="M33 748l84 350h923l-57 -350h-129v67q0 105 -19.5 135.5t-72.5 30.5h-45l-109 -496q-35 -159 -35 -217q0 -98 119 -98q122 0 252.5 136t169.5 310l109 482h305l-139 -666q-29 -139 -29 -196q0 -93 72 -93q51 0 120 47l50 -69q-60 -341 -128 -464.5t-204 -123.5 q-165 0 -303 78l43 110q89 -26 151 -26q169 0 269 274l16 45q-70 -34 -178 -34q-219 0 -219 196q0 61 14 133h-8q-156 -187 -275.5 -257t-244.5 -70q-283 0 -283 227q0 73 35 225l116 547h-51q-62 0 -95.5 -36.5t-61.5 -123.5l-25 -73h-137z" />
<glyph unicode="&#x4b6;" horiz-adv-x="1546" d="M170 1354l23 108h657l-23 -108h-22q-137 0 -168 -137l-37 -170q-31 -142 -31 -179q0 -182 176 -182q119 0 283 72l100 465q11 51 11 61q0 70 -150 70h-26l22 108h707l-23 -108h-27q-165 0 -192 -125l-211 -1004q-8 -38 -8 -47q0 -69 131 -69h43l-113 -539h-135 q23 107 23 176q0 254 -219 254h-285l22 109h27q165 0 193 124l79 375q-244 -86 -374 -86q-387 0 -387 301q0 77 36 221l37 170q8 37 8 58q0 82 -124 82h-23z" />
<glyph unicode="&#x4b7;" horiz-adv-x="1337" d="M57 989l23 109h483l-55 -246q-35 -157 -35 -217q0 -98 88 -98q108 0 264 86l101 475h305l-139 -666q-29 -139 -29 -196q0 -93 72 -93q49 0 120 47l50 -69q-61 -344 -128.5 -466t-203.5 -122q-165 0 -303 78l43 110q89 -26 151 -26q169 0 269 274l14 39q-79 -28 -156 -28 q-118 0 -182 55t-64 151q0 48 21 160l33 154q-213 -125 -396 -125q-245 0 -245 227q0 68 26 193q19 80 19 127q0 41 -25 54t-84 13h-37z" />
<glyph unicode="&#x4b8;" horiz-adv-x="1546" d="M170 1354l23 108h657l-23 -108h-22q-137 0 -168 -137l-37 -170q-31 -142 -31 -179q0 -157 138 -180l69 328h119l-70 -322q92 16 203 64l100 465q11 51 11 61q0 70 -150 70h-26l22 108h707l-23 -108h-27q-165 0 -192 -125l-211 -1004q-8 -38 -8 -47q0 -69 147 -69h27 l-23 -109h-706l22 109h27q165 0 193 124l79 375q-101 -37 -202 -61l-70 -334h-119l66 313q-22 -4 -49 -4q-387 0 -387 301q0 77 36 221l37 170q8 37 8 58q0 82 -124 82h-23z" />
<glyph unicode="&#x4b9;" horiz-adv-x="1337" d="M57 989l23 109h483l-55 -246q-35 -157 -35 -217q0 -100 88 -100h8l45 208h109l-41 -186q73 25 143 66l101 475h305l-139 -666q-29 -139 -29 -196q0 -93 72 -93q49 0 120 47l50 -69q-134 -141 -314 -141q-118 0 -182 55t-64 151q0 48 21 160l33 154q-83 -47 -144 -72 l-43 -205h-108l37 168q-64 -16 -138 -16q-245 0 -245 227q0 72 26 193q19 80 19 127q0 41 -25 54t-84 13h-37z" />
<glyph unicode="&#x4ba;" horiz-adv-x="1595" d="M-47 0l22 109h25q165 0 193 124l210 1004q9 43 9 47q0 70 -148 70h-26l22 108h707l-23 -108h-26q-166 0 -193 -125l-80 -375q240 86 375 86q387 0 387 -283q0 -82 -37 -239l-37 -170q-8 -37 -8 -58q0 -81 125 -81h23l-23 -109h-657l22 109h23q81 0 117 34.5t51 102.5 l36 170q31 146 31 194q0 80 -48 123t-128 43q-112 0 -283 -71l-100 -465q-10 -46 -10 -62q0 -69 149 -69h27l-23 -109h-704z" />
<glyph unicode="&#x4bb;" horiz-adv-x="1393" d="M76 0l172 813q14 66 14 90q0 47 -18.5 66.5t-89.5 19.5h-37l18 109h479l-102 -500q213 125 395 125q246 0 246 -227q0 -58 -17 -140q-18 -83 -18 -120q0 -93 72 -93q50 0 121 47l49 -69q-134 -141 -313 -141q-118 0 -181 55.5t-63 154.5q0 53 18 142q17 89 17 131 q0 98 -88 98q-104 0 -265 -86l-102 -475h-307z" />
<glyph unicode="&#x4bc;" horiz-adv-x="1681" d="M82 901q0 70 46.5 117t117.5 47q43 0 90 -33q-47 -64 -47 -131q0 -90 110 -90h21q97 311 320 492.5t483 181.5q220 0 339 -85t119 -249q0 -218 -252.5 -345.5t-652.5 -127.5h-45q-10 -65 -10 -141q0 -385 356 -385q105 0 190.5 39t196.5 149q27 -24 27 -55 q0 -125 -138.5 -215t-346.5 -90q-295 0 -460 144t-165 402q0 92 10 160h-18q-291 0 -291 215zM754 803h73q238 0 391.5 94t153.5 268q0 187 -180 187q-138 0 -258.5 -149t-179.5 -400z" />
<glyph unicode="&#x4bd;" horiz-adv-x="1364" d="M61 698q0 68 46.5 116t117.5 48q43 0 90 -33q-47 -67 -47 -122q0 -86 115 -99q76 233 252.5 371.5t408.5 138.5q147 0 228.5 -63.5t81.5 -177.5q0 -169 -176 -293.5t-435 -124.5h-37q-20 0 -38 2q-4 -24 -4 -78q0 -248 223 -248q176 0 299 166q26 -34 26 -88 q0 -88 -109 -160.5t-296 -72.5q-206 0 -331.5 113.5t-125.5 309.5q0 57 4 82q-293 39 -293 213zM682 578h18q157 0 258 80t101 204q0 133 -101 133q-88 0 -167.5 -122.5t-108.5 -294.5z" />
<glyph unicode="&#x4be;" horiz-adv-x="1681" d="M82 901q0 70 46.5 117t117.5 47q43 0 90 -33q-47 -64 -47 -131q0 -90 110 -90h21q97 311 320 492.5t483 181.5q220 0 339 -85t119 -249q0 -218 -252.5 -345.5t-652.5 -127.5h-45q-10 -65 -10 -141q0 -385 356 -385q105 0 190.5 39t196.5 149q27 -24 27 -55 q0 -81 -61.5 -151.5t-172.5 -110.5q-169 -78 -225 -172t-94 -281h-135q28 135 28 215q0 95 -44.5 157.5t-145.5 116.5q-260 137 -260 467q0 92 10 160h-18q-291 0 -291 215zM754 803h73q238 0 391.5 94t153.5 268q0 187 -180 187q-138 0 -258.5 -149t-179.5 -400z" />
<glyph unicode="&#x4bf;" horiz-adv-x="1364" d="M61 698q0 68 46.5 116t117.5 48q43 0 90 -33q-47 -67 -47 -122q0 -86 115 -99q76 233 252.5 371.5t408.5 138.5q147 0 228.5 -63.5t81.5 -177.5q0 -169 -176 -293.5t-435 -124.5h-37q-20 0 -38 2q-4 -24 -4 -78q0 -248 223 -248q176 0 299 166q26 -34 26 -88 q0 -55 -46 -108t-130 -87q-104 -58 -151.5 -142t-96.5 -306h-129q29 147 29 219q0 170 -125 244q-213 107 -213 370q0 57 4 82q-293 39 -293 213zM682 578h18q157 0 258 80t101 204q0 133 -101 133q-88 0 -167.5 -122.5t-108.5 -294.5z" />
<glyph unicode="&#x4c0;" horiz-adv-x="821" d="M-47 0l22 109h27q32 0 62.5 4t55.5 17t43.5 37t26.5 64l213 1006q4 11 6.5 25t2.5 22q0 22 -11 36t-30.5 21.5t-47 10t-59.5 2.5h-26l22 108h707l-23 -108h-26q-34 0 -65.5 -4.5t-57.5 -17.5t-45 -38t-27 -65l-211 -1004q-2 -11 -5 -25t-3 -22q0 -22 11 -35.5t31 -21 t47.5 -10t59.5 -2.5h27l-23 -109h-704z" />
<glyph unicode="&#x4c1;" horiz-adv-x="2138" d="M-119 0l23 113h6q64 0 126 36.5t122 120.5l235 332q31 46 67 78t78 52t91 30t108 12q-35 26 -74 97t-79 196q-20 59 -36.5 102.5t-34.5 72t-41 42.5t-54 14q-27 0 -48 -9t-37.5 -25t-28.5 -36.5t-21 -43.5q-35 14 -54.5 44.5t-19.5 84.5q0 74 49.5 118t140.5 44 q67 0 113.5 -23t80 -66t58 -104t47.5 -137q20 -65 37.5 -113t33.5 -82t29.5 -56.5t26.5 -37.5t26.5 -27t30.5 -20t39 -12t52 -4l96 444q3 11 5.5 25t2.5 22q0 22 -11 36t-30.5 21.5t-46.5 10t-59 2.5h-27l23 108h665l-22 -108h-27q-34 0 -65.5 -4.5t-57 -17.5t-44.5 -38 t-27 -65l-93 -436q75 0 124 16.5t83 48.5q32 31 82.5 101t124.5 186q56 88 106.5 150.5t101.5 102.5t105.5 58.5t118.5 18.5q84 0 123 -33t39 -88q0 -35 -11.5 -64.5t-32 -50.5t-49 -32.5t-61.5 -12.5q0 19 -4 38t-14.5 34t-27.5 24.5t-42 9.5q-53 0 -115 -53.5t-141 -173.5 q-39 -60 -70.5 -107t-59 -82.5t-52.5 -60.5t-51 -41q38 -7 69 -24t57.5 -46.5t49.5 -72.5t45 -102l107 -287q14 -39 36 -65.5t50 -43.5t60 -24.5t67 -7.5h6l-25 -109h-129q-82 0 -144.5 8.5t-108.5 31.5t-77.5 62t-52.5 101l-110 327q-15 44 -31.5 72t-39.5 44.5t-54.5 23 t-75.5 6.5l-94 -451q-2 -11 -5.5 -25t-3.5 -22q0 -22 11.5 -35.5t31.5 -21t47.5 -10t59.5 -2.5h27l-23 -109h-664l23 109h27q32 0 62.5 4t55.5 17t43.5 37t26.5 64l94 445q-63 -2 -103.5 -11t-68 -26t-48 -42t-42.5 -58l-237 -351q-43 -63 -84 -100.5t-95 -57t-128 -25 t-183 -5.5h-80zM908 1806q0 47 18 86l238 27q-6 -19 -10.5 -45t-4.5 -49q0 -53 34.5 -88t107.5 -35q77 0 140.5 22.5t114.5 57.5t90.5 78t69.5 84l72 -56q-38 -54 -86.5 -109.5t-113.5 -99.5t-149.5 -72t-193.5 -28q-94 0 -157 19t-100.5 50.5t-53.5 72.5t-16 85z" />
<glyph unicode="&#x4c2;" horiz-adv-x="2410" d="M0 203q0 34 15 64.5t44.5 53.5t72.5 36.5t99 13.5q0 -56 6.5 -104t21 -84t36.5 -56.5t53 -20.5q40 0 78 25t71 67.5t60.5 99.5t47 121.5t30 132.5t10.5 134q0 60 -10 110t-32.5 86t-59 56t-88.5 20q-48 0 -86 -11.5t-70 -31.5t-58.5 -48t-50.5 -62q-8 11 -13 31t-5 49 q0 37 21.5 78t67 75.5t115.5 57t167 22.5q98 0 172.5 -29t125 -81t76 -124t25.5 -159q0 -34 -3 -59t-9 -62h151l105 500h260l-107 -500h160q31 101 87.5 194t134.5 164t177 113.5t216 42.5q76 0 131.5 -18t92 -48t54.5 -70t18 -85q0 -34 -15 -64.5t-44.5 -53.5t-72.5 -36.5 t-99 -13.5q0 55 -7 103.5t-21 84t-36 56t-53 20.5q-40 0 -78 -25.5t-71 -69.5t-60 -102.5t-46.5 -124t-30.5 -135t-11 -135.5q0 -60 10.5 -108t33 -82.5t59 -53t88.5 -18.5q48 0 86 11.5t70 32t58 48.5t50 62q8 -11 13 -31t5 -49q0 -37 -21.5 -78t-66.5 -75.5t-115 -57 t-167 -22.5q-98 0 -173 27.5t-125.5 78t-76 121.5t-25.5 158q0 34 3.5 69t9.5 72h-162l-109 -506h-254l105 506h-150q-32 -101 -88 -195.5t-134 -167.5t-176.5 -117t-215.5 -44q-76 0 -132 18t-92.5 48t-54.5 70t-18 85zM987 1468q0 47 18 86l238 27q-6 -19 -10.5 -45 t-4.5 -49q0 -53 34.5 -88t107.5 -35q77 0 140.5 22.5t114.5 57.5t90.5 78t69.5 84l72 -56q-38 -54 -86.5 -109.5t-113.5 -99.5t-149.5 -72t-193.5 -28q-94 0 -157 19t-100.5 50.5t-53.5 72.5t-16 85z" />
<glyph unicode="&#x4c3;" horiz-adv-x="1491" d="M-47 0l22 109h27q164 0 188 122l213 1006q9 43 9 47q0 70 -148 70h-26l22 108h707l-23 -108h-26q-171 0 -195 -125l-92 -436q116 -3 188.5 50t224.5 302q113 181 211.5 255.5t221.5 74.5q161 0 161 -121q0 -68 -42.5 -112.5t-110.5 -47.5q0 106 -88 106q-108 0 -256 -227 q-170 -257 -228 -285q211 -35 323 -165.5t112 -333.5q0 -335 -214 -568t-559 -233q-210 0 -321 56.5t-111 158.5q0 85 64 138t164 53q0 -154 51.5 -214.5t159.5 -60.5q190 0 311 233t121 488q0 157 -77.5 244.5t-219.5 87.5q-67 0 -113 -8l-92 -439q-8 -38 -8 -47 q0 -69 149 -69h27l-23 -109h-704z" />
<glyph unicode="&#x4c4;" horiz-adv-x="1262" d="M43 0l168 795q18 85 18 127q0 41 -24.5 54t-83.5 13h-37l22 109h484l-111 -477q73 14 156 112l100 119q128 153 169 189.5t89 55.5t109 19q77 0 118.5 -37.5t41.5 -97.5q0 -162 -150 -162q0 117 -82 117q-79 0 -215 -170q-91 -109 -139 -141q199 -10 310.5 -120.5 t111.5 -297.5q0 -307 -174.5 -503t-479.5 -196q-160 0 -257 53.5t-97 139.5q0 81 61.5 127.5t155.5 46.5q0 -137 35.5 -189.5t110.5 -52.5q153 0 244 195.5t91 421.5q0 124 -57.5 196t-155.5 72q-62 0 -120 -16l-105 -502h-307z" />
<glyph unicode="&#x4c5;" horiz-adv-x="1516" d="M-96 129q0 66 39.5 106.5t99.5 40.5q0 -96 74 -96q172 0 358.5 529.5t186.5 590.5q0 54 -150 54h-35l23 108h1122l-23 -108h-26q-168 0 -195 -125l-211 -1004q-8 -38 -8 -47q0 -69 150 -69h127l-4 -35l-230 -504h-219l264 430h-639l23 109h26q162 0 189 122l239 1123 h-268q-107 -412 -258.5 -787t-257 -478t-235.5 -103q-162 0 -162 143z" />
<glyph unicode="&#x4c6;" horiz-adv-x="1401" d="M0 127q0 68 39.5 107.5t89.5 39.5q0 -38 22 -67t58 -29q65 0 111 80t198 485q85 226 165.5 300.5t227.5 74.5q198 0 381 -39l-137 -647q-29 -137 -29 -196q0 -93 72 -93q50 0 121 47l49 -69l-252 -551h-219l262 422q-49 -12 -104 -12q-118 0 -181 55.5t-63 154.5 q0 109 33 244l86 375q29 128 35 162q-38 8 -68 8q-103 0 -165.5 -77t-162.5 -372q-108 -323 -188.5 -433.5t-210.5 -110.5q-170 0 -170 141z" />
<glyph unicode="&#x4c7;" horiz-adv-x="1677" d="M-47 0l22 109h27q164 0 188 122l209 983q13 61 13 70q0 70 -148 70h-26l22 108h707l-23 -108h-26q-171 0 -195 -125l-84 -404h535l86 398q10 46 10 61q0 70 -150 70h-26l22 108h707l-23 -108h-26q-166 0 -193 -125l-227 -1092q-70 -338 -243 -493.5t-490 -155.5 q-174 0 -293 59.5t-119 173.5q0 74 59 122t154 51q0 -150 51.5 -214.5t159.5 -64.5q153 0 246 125.5t157 429.5l111 530h-535l-100 -475q-8 -38 -8 -47q0 -69 149 -69h27l-23 -109h-704z" />
<glyph unicode="&#x4c8;" horiz-adv-x="1366" d="M78 0l168 795q18 85 18 127q0 41 -25 54t-83 13h-37l22 109h484l-109 -475h369l102 475h305l-219 -1049q-60 -287 -195.5 -424t-400.5 -137q-141 0 -232 49.5t-91 136.5q0 70 52.5 117t129.5 47q0 -223 145 -223q108 0 169.5 98.5t111.5 333.5l94 447h-367l-104 -494 h-307z" />
<glyph unicode="&#x4c9;" horiz-adv-x="1716" d="M-47 0l22 109h27q164 0 188 122l209 983q13 61 13 70q0 70 -148 70h-26l22 108h707l-23 -108h-26q-171 0 -195 -125l-84 -404h535l86 398q10 46 10 61q0 70 -150 70h-26l22 108h707l-23 -108h-26q-166 0 -193 -125l-211 -1004q-8 -38 -8 -47q0 -69 147 -69h127l-4 -35 l-229 -504h-219l264 430h-641l22 109h27q165 0 193 124l98 467h-535l-100 -475q-8 -38 -8 -47q0 -69 149 -69h27l-23 -109h-704z" />
<glyph unicode="&#x4ca;" horiz-adv-x="1399" d="M78 0l168 795q18 85 18 127q0 41 -25 54t-83 13h-37l22 109h484l-109 -475h365l106 475h305l-139 -666q-29 -139 -29 -196q0 -93 72 -93q50 0 121 47l49 -69l-252 -551h-219l262 422q-49 -12 -104 -12q-120 0 -183 55.5t-63 150.5q0 53 20 160l29 148h-367l-104 -494 h-307z" />
<glyph unicode="&#x4cb;" horiz-adv-x="1546" d="M170 1354l23 108h657l-23 -108h-22q-137 0 -168 -137l-37 -170q-31 -142 -31 -179q0 -182 176 -182q119 0 283 72l100 465q11 51 11 61q0 70 -150 70h-26l22 108h707l-23 -108h-27q-165 0 -192 -125l-211 -1004q-8 -38 -8 -47q0 -69 147 -69h27l-23 -109h-260 q-167 0 -260 -95.5t-149 -334.5h-133l114 539h49q148 0 175 124l79 375q-244 -86 -374 -86q-387 0 -387 301q0 77 36 221l37 170q8 37 8 58q0 82 -124 82h-23z" />
<glyph unicode="&#x4cc;" horiz-adv-x="1337" d="M57 989l23 109h483l-55 -246q-35 -157 -35 -217q0 -98 88 -98q108 0 264 86l101 475h305l-174 -852q-6 -29 -6 -51q0 -51 32 -68.5t95 -17.5h22l-22 -109h-271q-243 0 -323 -307l-33 -123h-139l112 539h47q148 0 177 137l51 254q-213 -125 -396 -125q-245 0 -245 227 q0 68 26 193q19 80 19 127q0 41 -25 54t-84 13h-37z" />
<glyph unicode="&#x4cd;" horiz-adv-x="1991" d="M-47 0l22 109h27q164 0 188 122l209 983q13 61 13 70q0 70 -148 70h-26l22 108h571l138 -995l536 995h592l-22 -108h-27q-166 0 -193 -125l-210 -1004q-9 -43 -9 -47q0 -69 148 -69h127l-4 -35l-230 -504h-219l264 430h-632l22 109h27q167 0 192 124l217 1027l-678 -1260 h-141l-166 1260l-217 -1018q-10 -47 -10 -64q0 -69 149 -69h7l-23 -109h-516z" />
<glyph unicode="&#x4ce;" horiz-adv-x="1939" d="M0 123q0 62 35 106.5t84 44.5q0 -38 22 -67t58 -29q44 0 80 37.5t94.5 179t114.5 303.5q68 195 98 236q-44 55 -162 55h-27l27 109h487l99 -699l473 699h352l-141 -666q-29 -137 -29 -196q0 -93 72 -93q48 0 121 47l49 -69l-252 -551h-219l262 422q-49 -12 -105 -12 q-117 0 -180 55.5t-63 154.5q0 105 32 244l97 414h-13l-585 -848h-95l-124 817q-17 -43 -41 -111q-106 -303 -169.5 -446t-140.5 -208.5t-178 -65.5q-62 0 -97.5 38t-35.5 99z" />
<glyph unicode="&#x4cf;" horiz-adv-x="821" d="M-47 0l22 109h27q32 0 62.5 4t55.5 17t43.5 37t26.5 64l213 1006q4 11 6.5 25t2.5 22q0 22 -11 36t-30.5 21.5t-47 10t-59.5 2.5h-26l22 108h707l-23 -108h-26q-34 0 -65.5 -4.5t-57.5 -17.5t-45 -38t-27 -65l-211 -1004q-2 -11 -5 -25t-3 -22q0 -22 11 -35.5t31 -21 t47.5 -10t59.5 -2.5h27l-23 -109h-704z" />
<glyph unicode="&#x4d0;" horiz-adv-x="1542" d="M-100 0l22 109h43q28 0 49.5 6.5t41.5 24.5t41.5 49t49.5 79l695 1194h280l172 -1206q5 -32 13.5 -59t22.5 -46.5t35.5 -30.5t53.5 -11h37l-22 -109h-676l22 109h47q66 0 105 20.5t39 65.5q0 17 -1 33.5t-3 31.5l-31 221h-498l-100 -184q-20 -37 -29.5 -65t-9.5 -50 q0 -38 28 -55.5t87 -17.5h41l-23 -109h-532zM508 606h414l-37 344q-5 45 -9.5 84.5t-8 76.5t-6 72t-3.5 72q-15 -37 -30 -68.5t-32 -64t-37.5 -69t-47.5 -84.5zM643 1806q0 47 18 86l238 27q-6 -19 -10.5 -45t-4.5 -49q0 -53 34.5 -88t107.5 -35q77 0 140.5 22.5t114.5 57.5 t90.5 78t69.5 84l72 -56q-38 -54 -86.5 -109.5t-113.5 -99.5t-149.5 -72t-193.5 -28q-94 0 -157 19t-100.5 50.5t-53.5 72.5t-16 85z" />
<glyph unicode="&#x4d1;" horiz-adv-x="1362" d="M82 354q0 80 18.5 167.5t55.5 172.5t91.5 162t126 135t159.5 92.5t192 34.5q40 0 81.5 -6.5t79.5 -16.5t71.5 -22.5t56.5 -25.5l108 49h109l-135 -639q-4 -17 -10 -45t-11.5 -59.5t-9.5 -61t-4 -49.5q0 -51 20 -76t52 -25q29 0 55.5 12.5t58.5 30.5l45 -82 q-26 -20 -59 -41.5t-73.5 -39.5t-88 -29.5t-102.5 -11.5q-91 0 -146 41.5t-55 121.5q0 32 3 62.5t11 70.5h-14q-38 -71 -75.5 -126.5t-83.5 -93t-102.5 -57t-131.5 -19.5q-73 0 -128 28.5t-91.5 78.5t-55 118.5t-18.5 148.5zM393 352q0 -59 8.5 -99t23 -64.5t35 -35 t44.5 -10.5q45 0 93 39t90 102.5t75.5 143.5t50.5 162l72 340q-20 29 -55.5 43t-75.5 14q-60 0 -109.5 -31t-89.5 -83t-70.5 -118t-51 -137t-30.5 -140t-10 -126zM432 1468q0 47 18 86l238 27q-6 -19 -10.5 -45t-4.5 -49q0 -53 34.5 -88t107.5 -35q77 0 140.5 22.5 t114.5 57.5t90.5 78t69.5 84l72 -56q-38 -54 -86.5 -109.5t-113.5 -99.5t-149.5 -72t-193.5 -28q-94 0 -157 19t-100.5 50.5t-53.5 72.5t-16 85z" />
<glyph unicode="&#x4d2;" horiz-adv-x="1542" d="M-100 0l22 109h43q28 0 49.5 6.5t41.5 24.5t41.5 49t49.5 79l695 1194h280l172 -1206q5 -32 13.5 -59t22.5 -46.5t35.5 -30.5t53.5 -11h37l-22 -109h-676l22 109h47q66 0 105 20.5t39 65.5q0 17 -1 33.5t-3 31.5l-31 221h-498l-100 -184q-20 -37 -29.5 -65t-9.5 -50 q0 -38 28 -55.5t87 -17.5h41l-23 -109h-532zM508 606h414l-37 344q-5 45 -9.5 84.5t-8 76.5t-6 72t-3.5 72q-15 -37 -30 -68.5t-32 -64t-37.5 -69t-47.5 -84.5zM678 1724q0 66 33 105t90 39q49 0 80.5 -28t31.5 -85q0 -40 -11 -67t-28 -44t-39 -24.5t-44 -7.5 q-51 0 -82 27.5t-31 84.5zM1106 1724q0 66 33 105t90 39q49 0 80.5 -28t31.5 -85q0 -40 -11 -67t-28 -44t-39 -24.5t-44 -7.5q-51 0 -82 27.5t-31 84.5z" />
<glyph unicode="&#x4d3;" horiz-adv-x="1362" d="M82 354q0 80 18.5 167.5t55.5 172.5t91.5 162t126 135t159.5 92.5t192 34.5q40 0 81.5 -6.5t79.5 -16.5t71.5 -22.5t56.5 -25.5l108 49h109l-135 -639q-4 -17 -10 -45t-11.5 -59.5t-9.5 -61t-4 -49.5q0 -51 20 -76t52 -25q29 0 55.5 12.5t58.5 30.5l45 -82 q-26 -20 -59 -41.5t-73.5 -39.5t-88 -29.5t-102.5 -11.5q-91 0 -146 41.5t-55 121.5q0 32 3 62.5t11 70.5h-14q-38 -71 -75.5 -126.5t-83.5 -93t-102.5 -57t-131.5 -19.5q-73 0 -128 28.5t-91.5 78.5t-55 118.5t-18.5 148.5zM393 352q0 -59 8.5 -99t23 -64.5t35 -35 t44.5 -10.5q45 0 93 39t90 102.5t75.5 143.5t50.5 162l72 340q-20 29 -55.5 43t-75.5 14q-60 0 -109.5 -31t-89.5 -83t-70.5 -118t-51 -137t-30.5 -140t-10 -126zM424 1386q0 66 33 105t90 39q49 0 80.5 -28t31.5 -85q0 -40 -11 -67t-28 -44t-39 -24.5t-44 -7.5 q-51 0 -82 27.5t-31 84.5zM852 1386q0 66 33 105t90 39q49 0 80.5 -28t31.5 -85q0 -40 -11 -67t-28 -44t-39 -24.5t-44 -7.5q-51 0 -82 27.5t-31 84.5z" />
<glyph unicode="&#x4d4;" horiz-adv-x="2034" d="M-90 0l22 109h25q27 0 52 9.5t50.5 29t52.5 49.5t58 71l805 1075l-133 11l22 108h1219l-72 -381h-145q1 7 2.5 25t3 37.5t3 36t1.5 20.5q0 28 -8 53t-25 44t-44.5 29.5t-67.5 10.5h-273l-108 -512h465l-27 -123h-465l-123 -577h324q48 0 85.5 13.5t66 36.5t48 53.5 t31.5 64.5l33 88h145l-94 -381h-1175l22 109h27q32 0 62.5 4t55.5 17t43.5 37t26.5 64l49 238h-467l-121 -172q-30 -43 -43.5 -76.5t-13.5 -50.5q0 -32 28 -46.5t81 -14.5h35l-23 -109h-516zM575 592h402l158 745h-21z" />
<glyph unicode="&#x4d5;" horiz-adv-x="1802" d="M82 354q0 80 18.5 167.5t55.5 172.5t91.5 162t126 135t159.5 92.5t192 34.5q103 0 186 -31.5t154 -93.5q80 62 181.5 95.5t226.5 33.5q154 0 236.5 -63.5t82.5 -177.5q0 -83 -46 -159.5t-127 -135t-193 -93t-244 -34.5h-37.5t-38.5 2q-3 -20 -3.5 -40.5t-0.5 -37.5 q0 -119 55.5 -183.5t167.5 -64.5q50 0 95 14.5t83 38t69 53t52 60.5q12 -15 19.5 -38.5t7.5 -49.5q0 -37 -24 -78t-73.5 -75.5t-126.5 -57t-182 -22.5q-187 0 -299.5 75t-150.5 221h-19q-38 -71 -77 -126.5t-86 -93t-105 -57t-133 -19.5q-73 0 -128 28.5t-91.5 78.5 t-55 118.5t-18.5 148.5zM393 352q0 -59 8.5 -99t23 -64.5t35 -35t44.5 -10.5q37 0 77 28t77.5 74.5t70.5 108t57 129.5q10 53 24 107.5t33.5 106.5t44 101t56.5 91q-10 15 -29.5 32t-45 31.5t-55 24.5t-60.5 10q-60 0 -109.5 -31t-89.5 -83t-70.5 -118t-51 -137t-30.5 -140 t-10 -126zM1120 578h19q76 0 141.5 21t113.5 58.5t75.5 90.5t27.5 118q0 63 -26 98t-74 35q-33 0 -64.5 -17.5t-59.5 -48t-52 -71.5t-44 -88t-34.5 -97t-22.5 -99z" />
<glyph unicode="&#x4d6;" horiz-adv-x="1296" d="M-47 0l22 109h27q32 0 62.5 4t55.5 17t43.5 37t26.5 64l213 1006q4 11 6.5 25t2.5 22q0 22 -11 36t-30.5 21.5t-47 10t-59.5 2.5h-26l22 108h1112l-72 -381h-145q1 7 2.5 25t3 37.5t3 36t1.5 20.5q0 28 -8 53t-25 44t-44.5 29.5t-67.5 10.5h-272l-109 -512h465l-27 -123 h-465l-123 -577h324q48 0 86 13.5t66 36.5t47.5 53.5t31.5 64.5l33 88h146l-95 -381h-1175zM516 1806q0 47 18 86l238 27q-6 -19 -10.5 -45t-4.5 -49q0 -53 34.5 -88t107.5 -35q77 0 140.5 22.5t114.5 57.5t90.5 78t69.5 84l72 -56q-38 -54 -86.5 -109.5t-113.5 -99.5 t-149.5 -72t-193.5 -28q-94 0 -157 19t-100.5 50.5t-53.5 72.5t-16 85z" />
<glyph unicode="&#x4d7;" horiz-adv-x="1096" d="M82 403q0 76 20 159t59.5 162.5t98 151t135.5 125.5t172.5 85.5t208.5 31.5q147 0 228 -63.5t81 -177.5q0 -83 -46 -159t-127 -133.5t-193 -91.5t-244 -34h-37t-39 2q-3 -20 -3.5 -40.5t-0.5 -37.5q0 -119 55.5 -183.5t167.5 -64.5q50 0 95 14.5t83.5 38t69 53t52.5 60.5 q12 -15 19 -38.5t7 -49.5q0 -37 -24 -78t-73.5 -75.5t-126 -57t-181.5 -22.5q-94 0 -177 26t-145.5 78.5t-98.5 132t-36 186.5zM398 1468q0 47 18 86l238 27q-6 -19 -10.5 -45t-4.5 -49q0 -53 34.5 -88t107.5 -35q77 0 140.5 22.5t114.5 57.5t90.5 78t69.5 84l72 -56 q-38 -54 -86.5 -109.5t-113.5 -99.5t-149.5 -72t-193.5 -28q-94 0 -157 19t-100.5 50.5t-53.5 72.5t-16 85zM414 578h18q76 0 141.5 20t114 57.5t76 89.5t27.5 117q0 63 -26.5 98t-74.5 35q-50 0 -95 -37.5t-81 -97.5t-62 -134.5t-38 -147.5z" />
<glyph unicode="&#x4d8;" horiz-adv-x="1438" d="M86 307q0 223 253 351t652 128h47q11 56 11 144q0 383 -349 383q-206 0 -397 -189q-27 26 -27 56q0 124 138.5 214.5t347.5 90.5q290 0 455 -147t165 -420q0 -381 -244.5 -659.5t-592.5 -278.5q-459 0 -459 327zM395 303q0 -87 47.5 -138.5t132.5 -51.5q138 0 258 147 t181 402h-74q-242 0 -393.5 -93t-151.5 -266z" />
<glyph unicode="&#x4d9;" horiz-adv-x="1096" d="M8 221q0 167 175 292.5t435 125.5h37q21 0 39 -2q4 24 4 78q0 248 -223 248q-178 0 -299 -166q-26 34 -26 88q0 88 109 160.5t296 72.5q204 0 330.5 -112t126.5 -312q0 -266 -195 -490t-500 -224q-146 0 -227.5 63.5t-81.5 177.5zM303 236q0 -134 100 -134 q86 0 165.5 119t111.5 299h-18q-156 0 -257.5 -79.5t-101.5 -204.5z" />
<glyph unicode="&#x4da;" horiz-adv-x="1438" d="M86 307q0 223 253 351t652 128h47q11 56 11 144q0 383 -349 383q-206 0 -397 -189q-27 26 -27 56q0 124 138.5 214.5t347.5 90.5q290 0 455 -147t165 -420q0 -381 -244.5 -659.5t-592.5 -278.5q-459 0 -459 327zM395 303q0 -87 47.5 -138.5t132.5 -51.5q138 0 258 147 t181 402h-74q-242 0 -393.5 -93t-151.5 -266zM565 1724q0 66 33 105t90 39q49 0 80.5 -28t31.5 -85q0 -40 -11 -67t-28 -44t-39 -24.5t-44 -7.5q-51 0 -82 27.5t-31 84.5zM993 1724q0 66 33 105t90 39q49 0 80.5 -28t31.5 -85q0 -40 -11 -67t-28 -44t-39 -24.5t-44 -7.5 q-51 0 -82 27.5t-31 84.5z" />
<glyph unicode="&#x4db;" horiz-adv-x="1096" d="M8 221q0 167 175 292.5t435 125.5h37q21 0 39 -2q4 24 4 78q0 248 -223 248q-178 0 -299 -166q-26 34 -26 88q0 88 109 160.5t296 72.5q204 0 330.5 -112t126.5 -312q0 -266 -195 -490t-500 -224q-146 0 -227.5 63.5t-81.5 177.5zM303 236q0 -134 100 -134 q86 0 165.5 119t111.5 299h-18q-156 0 -257.5 -79.5t-101.5 -204.5zM343 1386q0 66 33 105t90 39q49 0 80.5 -28t31.5 -85q0 -40 -11 -67t-28 -44t-39 -24.5t-44 -7.5q-51 0 -82 27.5t-31 84.5zM771 1386q0 66 33 105t90 39q49 0 80.5 -28t31.5 -85q0 -40 -11 -67t-28 -44 t-39 -24.5t-44 -7.5q-51 0 -82 27.5t-31 84.5z" />
<glyph unicode="&#x4dc;" horiz-adv-x="2138" d="M-119 0l23 113h6q64 0 126 36.5t122 120.5l235 332q31 46 67 78t78 52t91 30t108 12q-35 26 -74 97t-79 196q-20 59 -36.5 102.5t-34.5 72t-41 42.5t-54 14q-27 0 -48 -9t-37.5 -25t-28.5 -36.5t-21 -43.5q-35 14 -54.5 44.5t-19.5 84.5q0 74 49.5 118t140.5 44 q67 0 113.5 -23t80 -66t58 -104t47.5 -137q20 -65 37.5 -113t33.5 -82t29.5 -56.5t26.5 -37.5t26.5 -27t30.5 -20t39 -12t52 -4l96 444q3 11 5.5 25t2.5 22q0 22 -11 36t-30.5 21.5t-46.5 10t-59 2.5h-27l23 108h665l-22 -108h-27q-34 0 -65.5 -4.5t-57 -17.5t-44.5 -38 t-27 -65l-93 -436q75 0 124 16.5t83 48.5q32 31 82.5 101t124.5 186q56 88 106.5 150.5t101.5 102.5t105.5 58.5t118.5 18.5q84 0 123 -33t39 -88q0 -35 -11.5 -64.5t-32 -50.5t-49 -32.5t-61.5 -12.5q0 19 -4 38t-14.5 34t-27.5 24.5t-42 9.5q-53 0 -115 -53.5t-141 -173.5 q-39 -60 -70.5 -107t-59 -82.5t-52.5 -60.5t-51 -41q38 -7 69 -24t57.5 -46.5t49.5 -72.5t45 -102l107 -287q14 -39 36 -65.5t50 -43.5t60 -24.5t67 -7.5h6l-25 -109h-129q-82 0 -144.5 8.5t-108.5 31.5t-77.5 62t-52.5 101l-110 327q-15 44 -31.5 72t-39.5 44.5t-54.5 23 t-75.5 6.5l-94 -451q-2 -11 -5.5 -25t-3.5 -22q0 -22 11.5 -35.5t31.5 -21t47.5 -10t59.5 -2.5h27l-23 -109h-664l23 109h27q32 0 62.5 4t55.5 17t43.5 37t26.5 64l94 445q-63 -2 -103.5 -11t-68 -26t-48 -42t-42.5 -58l-237 -351q-43 -63 -84 -100.5t-95 -57t-128 -25 t-183 -5.5h-80zM961 1724q0 66 33 105t90 39q49 0 80.5 -28t31.5 -85q0 -40 -11 -67t-28 -44t-39 -24.5t-44 -7.5q-51 0 -82 27.5t-31 84.5zM1389 1724q0 66 33 105t90 39q49 0 80.5 -28t31.5 -85q0 -40 -11 -67t-28 -44t-39 -24.5t-44 -7.5q-51 0 -82 27.5t-31 84.5z" />
<glyph unicode="&#x4dd;" horiz-adv-x="2410" d="M0 203q0 34 15 64.5t44.5 53.5t72.5 36.5t99 13.5q0 -56 6.5 -104t21 -84t36.5 -56.5t53 -20.5q40 0 78 25t71 67.5t60.5 99.5t47 121.5t30 132.5t10.5 134q0 60 -10 110t-32.5 86t-59 56t-88.5 20q-48 0 -86 -11.5t-70 -31.5t-58.5 -48t-50.5 -62q-8 11 -13 31t-5 49 q0 37 21.5 78t67 75.5t115.5 57t167 22.5q98 0 172.5 -29t125 -81t76 -124t25.5 -159q0 -34 -3 -59t-9 -62h151l105 500h260l-107 -500h160q31 101 87.5 194t134.5 164t177 113.5t216 42.5q76 0 131.5 -18t92 -48t54.5 -70t18 -85q0 -34 -15 -64.5t-44.5 -53.5t-72.5 -36.5 t-99 -13.5q0 55 -7 103.5t-21 84t-36 56t-53 20.5q-40 0 -78 -25.5t-71 -69.5t-60 -102.5t-46.5 -124t-30.5 -135t-11 -135.5q0 -60 10.5 -108t33 -82.5t59 -53t88.5 -18.5q48 0 86 11.5t70 32t58 48.5t50 62q8 -11 13 -31t5 -49q0 -37 -21.5 -78t-66.5 -75.5t-115 -57 t-167 -22.5q-98 0 -173 27.5t-125.5 78t-76 121.5t-25.5 158q0 34 3.5 69t9.5 72h-162l-109 -506h-254l105 506h-150q-32 -101 -88 -195.5t-134 -167.5t-176.5 -117t-215.5 -44q-76 0 -132 18t-92.5 48t-54.5 70t-18 85zM1012 1386q0 66 33 105t90 39q49 0 80.5 -28 t31.5 -85q0 -40 -11 -67t-28 -44t-39 -24.5t-44 -7.5q-51 0 -82 27.5t-31 84.5zM1440 1386q0 66 33 105t90 39q49 0 80.5 -28t31.5 -85q0 -40 -11 -67t-28 -44t-39 -24.5t-44 -7.5q-51 0 -82 27.5t-31 84.5z" />
</font>
</defs>
</svg>
